{"glyphs":{"0":{"ha":924,"x_min":0,"x_max":0,"o":"m 464 -10 b 843 485 769 -10 843 250 b 458 981 843 717 771 981 b 78 486 135 981 78 704 b 464 -10 78 268 138 -10 z m 464 104 b 219 483 267 104 219 285 b 458 865 219 686 265 865 b 703 482 640 865 703 701 b 464 104 703 267 640 104 z "},"1":{"ha":575,"x_min":0,"x_max":0,"o":"m 343 894 b 242 814 343 819 281 814 l 51 814 l 51 718 l 343 718 l 343 0 l 478 0 l 478 968 l 343 968 z "},"2":{"ha":964,"x_min":0,"x_max":0,"o":"m 231 114 b 839 689 575 235 839 444 b 481 978 839 864 703 978 b 99 640 257 978 99 838 l 231 632 b 478 861 236 775 331 861 b 703 672 619 861 703 793 b 74 124 703 429 338 243 l 74 0 l 894 0 l 894 114 z "},"3":{"ha":976,"x_min":0,"x_max":0,"o":"m 485 -10 b 904 285 714 -10 904 94 b 626 524 904 419 786 500 b 843 725 736 546 843 607 b 486 978 843 879 682 978 b 121 704 285 978 121 875 l 256 697 b 483 871 256 799 349 871 b 707 717 610 871 707 811 b 428 558 707 593 561 557 l 428 458 b 768 283 614 458 768 426 b 489 97 768 172 654 97 b 197 301 318 97 197 178 l 64 296 b 485 -10 64 96 251 -10 z "},"4":{"ha":979,"x_min":0,"x_max":0,"o":"m 774 968 l 633 968 l 57 328 l 57 210 l 639 210 l 639 0 l 774 0 l 774 210 l 918 210 l 918 318 l 774 318 z m 639 821 l 639 318 l 186 318 z "},"5":{"ha":963,"x_min":0,"x_max":0,"o":"m 511 649 b 260 575 425 649 338 625 l 322 858 l 833 858 l 833 968 l 211 968 l 103 465 l 236 435 b 485 549 307 513 390 549 b 746 331 638 549 746 460 b 474 96 746 197 629 96 b 197 292 333 96 224 174 l 65 271 b 475 -11 100 108 250 -11 b 889 331 729 -11 889 147 b 511 649 889 517 735 649 z "},"6":{"ha":944,"x_min":0,"x_max":0,"o":"m 490 633 b 371 614 451 633 410 626 l 636 968 l 481 968 l 142 510 b 63 314 86 438 63 386 b 472 -11 63 126 236 -11 b 881 315 707 -11 881 129 b 490 633 881 497 713 633 z m 472 96 b 200 315 315 96 200 189 b 472 535 200 442 318 535 b 743 315 628 535 743 440 b 472 96 743 190 628 96 z "},"7":{"ha":925,"x_min":0,"x_max":0,"o":"m 47 858 l 721 858 l 174 0 l 332 0 l 874 861 l 874 968 l 47 968 z "},"8":{"ha":961,"x_min":0,"x_max":0,"o":"m 482 -11 b 886 278 719 -11 886 100 b 679 526 886 397 806 493 b 826 721 771 556 826 628 b 483 979 826 872 690 979 b 136 726 289 979 136 881 b 283 526 136 628 194 556 b 72 278 151 492 72 397 b 482 -11 72 94 251 -11 z m 485 558 b 274 719 358 558 274 621 b 483 872 274 817 368 872 b 692 713 607 872 692 808 b 485 558 692 622 606 558 z m 481 99 b 207 293 332 99 207 168 b 481 482 207 407 319 482 b 751 293 642 482 751 407 b 481 99 751 167 631 99 z "},"9":{"ha":944,"x_min":0,"x_max":0,"o":"m 471 979 b 63 653 236 979 63 839 b 453 335 63 471 231 335 b 572 354 492 335 533 342 l 307 0 l 463 0 l 801 458 b 881 654 857 531 881 582 b 471 979 881 842 707 979 z m 471 433 b 200 653 315 433 200 528 b 471 872 200 778 315 872 b 743 653 628 872 743 779 b 471 433 743 526 625 433 z "}," ":{"ha":411,"x_min":0,"x_max":0,"o":""},"A":{"ha":1011,"x_min":0,"x_max":0,"o":"m 994 0 l 585 968 l 425 968 l 15 0 l 176 0 l 268 229 l 740 229 l 832 0 z m 504 819 l 697 339 l 313 339 z "},"Á":{"ha":1011,"x_min":0,"x_max":0,"o":"m 608 1251 l 457 1056 l 549 1056 l 743 1251 z m 994 0 l 585 968 l 425 968 l 15 0 l 176 0 l 268 229 l 740 229 l 832 0 z m 504 819 l 697 339 l 313 339 z "},"Ă":{"ha":1011,"x_min":0,"x_max":0,"o":"m 504 1053 b 736 1251 657 1053 736 1118 l 633 1251 b 504 1126 633 1160 582 1126 b 375 1251 428 1126 375 1160 l 274 1251 b 504 1053 274 1124 346 1053 z m 994 0 l 585 968 l 425 968 l 15 0 l 176 0 l 268 229 l 740 229 l 832 0 z m 504 819 l 697 339 l 313 339 z "},"Ắ":{"ha":1011,"x_min":0,"x_max":0,"o":"m 608 1535 l 457 1339 l 549 1339 l 743 1535 z m 504 1053 b 736 1251 657 1053 736 1118 l 633 1251 b 504 1126 633 1160 582 1126 b 375 1251 428 1126 375 1160 l 274 1251 b 504 1053 274 1124 346 1053 z m 994 0 l 585 968 l 425 968 l 15 0 l 176 0 l 268 229 l 740 229 l 832 0 z m 504 819 l 697 339 l 313 339 z "},"Ặ":{"ha":1011,"x_min":0,"x_max":0,"o":"m 504 1053 b 736 1251 657 1053 736 1118 l 633 1251 b 504 1126 633 1160 582 1126 b 375 1251 428 1126 375 1160 l 274 1251 b 504 1053 274 1124 346 1053 z m 585 968 l 425 968 l 15 0 l 176 0 l 268 229 l 740 229 l 832 0 l 994 0 z m 504 819 l 697 339 l 313 339 z m 586 -256 l 586 -94 l 422 -94 l 422 -256 z "},"Ằ":{"ha":1011,"x_min":0,"x_max":0,"o":"m 406 1535 l 274 1535 l 456 1339 l 550 1339 z m 504 1053 b 736 1251 657 1053 736 1118 l 633 1251 b 504 1126 633 1160 582 1126 b 375 1251 428 1126 375 1160 l 274 1251 b 504 1053 274 1124 346 1053 z m 994 0 l 585 968 l 425 968 l 15 0 l 176 0 l 268 229 l 740 229 l 832 0 z m 504 819 l 697 339 l 313 339 z "},"Ẳ":{"ha":1011,"x_min":0,"x_max":0,"o":"m 567 1414 b 467 1343 567 1356 514 1351 l 482 1289 b 657 1422 556 1303 657 1317 b 443 1564 657 1514 568 1564 l 422 1564 l 422 1485 l 443 1485 b 567 1414 508 1485 567 1471 z m 504 1053 b 736 1251 657 1053 736 1118 l 633 1251 b 504 1126 633 1160 582 1126 b 375 1251 428 1126 375 1160 l 274 1251 b 504 1053 274 1124 346 1053 z m 994 0 l 585 968 l 425 968 l 15 0 l 176 0 l 268 229 l 740 229 l 832 0 z m 504 819 l 697 339 l 313 339 z "},"Ẵ":{"ha":1011,"x_min":0,"x_max":0,"o":"m 410 1461 b 596 1351 475 1461 485 1351 b 729 1535 676 1351 729 1418 l 651 1535 b 597 1429 651 1468 628 1429 b 415 1539 532 1429 517 1539 b 279 1367 332 1539 279 1474 l 353 1367 b 410 1461 353 1425 374 1461 z m 504 1053 b 736 1251 657 1053 736 1118 l 633 1251 b 504 1126 633 1160 582 1126 b 375 1251 428 1126 375 1160 l 274 1251 b 504 1053 274 1124 346 1053 z m 994 0 l 585 968 l 425 968 l 15 0 l 176 0 l 268 229 l 740 229 l 832 0 z m 504 819 l 697 339 l 313 339 z "},"Ǎ":{"ha":1011,"x_min":0,"x_max":0,"o":"m 615 1251 l 503 1136 l 393 1251 l 293 1251 l 503 1032 l 714 1251 z m 994 0 l 585 968 l 425 968 l 15 0 l 176 0 l 268 229 l 740 229 l 832 0 z m 504 819 l 697 339 l 313 339 z "},"Â":{"ha":1011,"x_min":0,"x_max":0,"o":"m 615 1042 l 715 1042 l 504 1269 l 293 1042 l 392 1042 l 504 1161 z m 994 0 l 585 968 l 425 968 l 15 0 l 176 0 l 268 229 l 740 229 l 832 0 z m 504 819 l 697 339 l 313 339 z "},"Ấ":{"ha":1011,"x_min":0,"x_max":0,"o":"m 608 1513 l 457 1317 l 549 1317 l 743 1513 z m 615 1042 l 715 1042 l 504 1269 l 293 1042 l 392 1042 l 504 1161 z m 994 0 l 585 968 l 425 968 l 15 0 l 176 0 l 268 229 l 740 229 l 832 0 z m 504 819 l 697 339 l 313 339 z "},"Ậ":{"ha":1011,"x_min":0,"x_max":0,"o":"m 615 1042 l 715 1042 l 504 1269 l 293 1042 l 392 1042 l 504 1161 z m 585 968 l 425 968 l 15 0 l 176 0 l 268 229 l 740 229 l 832 0 l 994 0 z m 504 819 l 697 339 l 313 339 z m 586 -256 l 586 -94 l 422 -94 l 422 -256 z "},"Ầ":{"ha":1011,"x_min":0,"x_max":0,"o":"m 406 1513 l 274 1513 l 456 1317 l 550 1317 z m 392 1042 l 504 1161 l 615 1042 l 715 1042 l 504 1269 l 293 1042 z m 994 0 l 585 968 l 425 968 l 15 0 l 176 0 l 268 229 l 740 229 l 832 0 z m 504 819 l 697 339 l 313 339 z "},"Ẩ":{"ha":1011,"x_min":0,"x_max":0,"o":"m 567 1392 b 467 1321 567 1333 514 1329 l 482 1267 b 657 1400 556 1281 657 1294 b 443 1542 657 1492 568 1542 l 422 1542 l 422 1463 l 443 1463 b 567 1392 508 1463 567 1449 z m 615 1042 l 715 1042 l 504 1269 l 293 1042 l 392 1042 l 504 1161 z m 994 0 l 585 968 l 425 968 l 15 0 l 176 0 l 268 229 l 740 229 l 832 0 z m 504 819 l 697 339 l 313 339 z "},"Ẫ":{"ha":1011,"x_min":0,"x_max":0,"o":"m 410 1439 b 596 1329 475 1439 485 1329 b 729 1513 676 1329 729 1396 l 651 1513 b 597 1407 651 1446 628 1407 b 415 1517 532 1407 517 1517 b 279 1344 332 1517 279 1451 l 353 1344 b 410 1439 353 1403 374 1439 z m 392 1042 l 504 1161 l 615 1042 l 715 1042 l 504 1269 l 293 1042 z m 994 0 l 585 968 l 425 968 l 15 0 l 176 0 l 268 229 l 740 229 l 832 0 z m 504 819 l 697 339 l 313 339 z "},"Ä":{"ha":1011,"x_min":0,"x_max":0,"o":"m 300 1251 l 300 1090 l 440 1090 l 440 1251 z m 567 1251 l 567 1090 l 707 1090 l 707 1251 z m 994 0 l 585 968 l 425 968 l 15 0 l 176 0 l 268 229 l 740 229 l 832 0 z m 504 819 l 697 339 l 313 339 z "},"Ạ":{"ha":1011,"x_min":0,"x_max":0,"o":"m 585 968 l 425 968 l 15 0 l 176 0 l 268 229 l 740 229 l 832 0 l 994 0 z m 504 819 l 697 339 l 313 339 z m 586 -256 l 586 -94 l 422 -94 l 422 -256 z "},"À":{"ha":1011,"x_min":0,"x_max":0,"o":"m 406 1251 l 274 1251 l 456 1056 l 550 1056 z m 994 0 l 585 968 l 425 968 l 15 0 l 176 0 l 268 229 l 740 229 l 832 0 z m 504 819 l 697 339 l 313 339 z "},"Ả":{"ha":1011,"x_min":0,"x_max":0,"o":"m 567 1131 b 467 1060 567 1072 514 1068 l 482 1006 b 657 1139 556 1019 657 1033 b 443 1281 657 1231 568 1281 l 422 1281 l 422 1201 l 443 1201 b 567 1131 508 1201 567 1188 z m 994 0 l 585 968 l 425 968 l 15 0 l 176 0 l 268 229 l 740 229 l 832 0 z m 504 819 l 697 339 l 313 339 z "},"Ā":{"ha":1011,"x_min":0,"x_max":0,"o":"m 315 1171 l 315 1097 l 693 1097 l 693 1171 z m 994 0 l 585 968 l 425 968 l 15 0 l 176 0 l 268 229 l 740 229 l 832 0 z m 504 819 l 697 339 l 313 339 z "},"Ą":{"ha":1011,"x_min":0,"x_max":0,"o":"m 990 -185 b 913 -224 969 -208 943 -224 b 853 -164 881 -224 853 -207 b 996 0 853 -90 942 -28 l 994 0 l 585 968 l 425 968 l 15 0 l 176 0 l 268 229 l 740 229 l 832 0 l 893 0 b 778 -176 840 -33 778 -93 b 915 -301 778 -253 838 -301 b 1054 -231 978 -301 1021 -271 z m 504 819 l 697 339 l 313 339 z "},"Å":{"ha":1011,"x_min":0,"x_max":0,"o":"m 994 0 l 596 943 b 654 1063 632 969 654 1014 b 504 1214 654 1147 585 1214 b 353 1063 419 1214 353 1146 b 414 942 353 1014 376 969 l 15 0 l 176 0 l 268 229 l 740 229 l 832 0 z m 504 1138 b 579 1064 549 1138 579 1107 b 504 988 579 1021 547 988 b 429 1064 461 988 429 1019 b 504 1138 429 1106 458 1138 z m 504 819 l 697 339 l 313 339 z "},"Ã":{"ha":1011,"x_min":0,"x_max":0,"o":"m 410 1178 b 596 1068 475 1178 485 1068 b 729 1251 676 1068 729 1135 l 651 1251 b 597 1146 651 1185 628 1146 b 415 1256 532 1146 517 1256 b 279 1083 332 1256 279 1190 l 353 1083 b 410 1178 353 1142 374 1178 z m 994 0 l 585 968 l 425 968 l 15 0 l 176 0 l 268 229 l 740 229 l 832 0 z m 504 819 l 697 339 l 313 339 z "},"Æ":{"ha":1447,"x_min":0,"x_max":0,"o":"m 175 0 l 257 208 l 629 208 l 629 0 l 1383 0 l 1383 110 l 778 110 l 778 432 l 1322 432 l 1322 543 l 778 543 l 778 858 l 1383 858 l 1383 968 l 439 968 l 15 0 z m 526 868 l 629 868 l 629 315 l 304 315 z "},"B":{"ha":1054,"x_min":0,"x_max":0,"o":"m 676 0 b 994 274 878 0 994 100 b 822 517 994 401 933 488 b 944 726 901 554 944 631 b 642 968 944 878 829 968 l 97 968 l 97 0 z m 246 858 l 626 858 b 794 706 733 858 794 803 b 644 554 794 611 738 554 l 246 554 z m 246 446 l 676 446 b 844 282 785 446 844 388 b 651 110 844 169 778 110 l 246 110 z "},"C":{"ha":1146,"x_min":0,"x_max":0,"o":"m 599 -17 b 1101 258 842 -17 1013 76 l 961 304 b 599 103 894 167 771 103 b 203 486 344 103 203 246 b 606 865 203 728 343 865 b 960 669 783 865 899 804 l 1100 715 b 606 985 1015 893 850 985 b 56 485 258 985 56 797 b 599 -17 56 175 257 -17 z "},"Ć":{"ha":1146,"x_min":0,"x_max":0,"o":"m 658 1056 l 853 1251 l 718 1251 l 567 1056 z m 599 -17 b 1101 258 842 -17 1013 76 l 961 304 b 599 103 894 167 771 103 b 203 486 344 103 203 246 b 606 865 203 728 343 865 b 960 669 783 865 899 804 l 1100 715 b 606 985 1015 893 850 985 b 56 485 258 985 56 797 b 599 -17 56 175 257 -17 z "},"Č":{"ha":1146,"x_min":0,"x_max":0,"o":"m 824 1251 l 725 1251 l 613 1136 l 503 1251 l 403 1251 l 613 1032 z m 599 -17 b 1101 258 842 -17 1013 76 l 961 304 b 599 103 894 167 771 103 b 203 486 344 103 203 246 b 606 865 203 728 343 865 b 960 669 783 865 899 804 l 1100 715 b 606 985 1015 893 850 985 b 56 485 258 985 56 797 b 599 -17 56 175 257 -17 z "},"Ç":{"ha":1146,"x_min":0,"x_max":0,"o":"m 961 304 b 599 103 894 167 771 103 b 203 486 344 103 203 246 b 606 865 203 728 343 865 b 960 669 783 865 899 804 l 1100 715 b 606 985 1015 893 850 985 b 56 485 258 985 56 797 b 564 -17 56 186 243 -3 l 496 -132 b 607 -143 536 -132 574 -133 b 669 -215 643 -154 669 -175 b 594 -283 669 -260 640 -283 b 515 -240 563 -283 533 -265 l 474 -300 b 592 -357 507 -339 556 -357 b 743 -210 685 -357 743 -296 b 682 -106 743 -162 722 -128 b 594 -81 658 -93 629 -85 l 639 -15 b 1101 258 861 -6 1018 86 z "},"Ċ":{"ha":1146,"x_min":0,"x_max":0,"o":"m 699 1090 l 699 1251 l 528 1251 l 528 1090 z m 599 -17 b 1101 258 842 -17 1013 76 l 961 304 b 599 103 894 167 771 103 b 203 486 344 103 203 246 b 606 865 203 728 343 865 b 960 669 783 865 899 804 l 1100 715 b 606 985 1015 893 850 985 b 56 485 258 985 56 797 b 599 -17 56 175 257 -17 z "},"D":{"ha":1124,"x_min":0,"x_max":0,"o":"m 556 0 b 1067 476 885 0 1067 168 b 558 968 1067 790 879 968 l 96 968 l 96 0 z m 244 844 l 540 844 b 915 481 750 844 915 743 b 528 124 915 193 704 124 l 244 124 z "},"Ð":{"ha":1124,"x_min":0,"x_max":0,"o":"m 96 968 l 96 528 l -4 528 l -4 443 l 96 443 l 96 0 l 556 0 b 1067 476 885 0 1067 168 b 558 968 1067 790 879 968 z m 244 124 l 244 443 l 449 443 l 449 528 l 244 528 l 244 844 l 540 844 b 915 481 750 844 915 743 b 528 124 915 193 704 124 z "},"Ď":{"ha":1124,"x_min":0,"x_max":0,"o":"m 757 1251 l 658 1251 l 546 1136 l 436 1251 l 336 1251 l 546 1032 z m 556 0 b 1067 476 885 0 1067 168 b 558 968 1067 790 879 968 l 96 968 l 96 0 z m 244 844 l 540 844 b 915 481 750 844 915 743 b 528 124 915 193 704 124 l 244 124 z "},"Đ":{"ha":1124,"x_min":0,"x_max":0,"o":"m 96 968 l 96 528 l -4 528 l -4 443 l 96 443 l 96 0 l 556 0 b 1067 476 885 0 1067 168 b 558 968 1067 790 879 968 z m 244 124 l 244 443 l 449 443 l 449 528 l 244 528 l 244 844 l 540 844 b 915 481 750 844 915 743 b 528 124 915 193 704 124 z "},"E":{"ha":936,"x_min":0,"x_max":0,"o":"m 874 0 l 874 110 l 243 110 l 243 432 l 811 432 l 811 543 l 243 543 l 243 858 l 874 858 l 874 968 l 96 968 l 96 0 z "},"É":{"ha":936,"x_min":0,"x_max":0,"o":"m 531 1056 l 725 1251 l 590 1251 l 439 1056 z m 874 0 l 874 110 l 243 110 l 243 432 l 811 432 l 811 543 l 243 543 l 243 858 l 874 858 l 874 968 l 96 968 l 96 0 z "},"Ě":{"ha":936,"x_min":0,"x_max":0,"o":"m 696 1251 l 597 1251 l 485 1136 l 375 1251 l 275 1251 l 485 1032 z m 874 0 l 874 110 l 243 110 l 243 432 l 811 432 l 811 543 l 243 543 l 243 858 l 874 858 l 874 968 l 96 968 l 96 0 z "},"Ê":{"ha":936,"x_min":0,"x_max":0,"o":"m 372 1042 l 485 1161 l 596 1042 l 696 1042 l 485 1269 l 274 1042 z m 874 0 l 874 110 l 243 110 l 243 432 l 811 432 l 811 543 l 243 543 l 243 858 l 874 858 l 874 968 l 96 968 l 96 0 z "},"Ế":{"ha":936,"x_min":0,"x_max":0,"o":"m 531 1317 l 725 1513 l 590 1513 l 439 1317 z m 372 1042 l 485 1161 l 596 1042 l 696 1042 l 485 1269 l 274 1042 z m 874 0 l 874 110 l 243 110 l 243 432 l 811 432 l 811 543 l 243 543 l 243 858 l 874 858 l 874 968 l 96 968 l 96 0 z "},"Ệ":{"ha":936,"x_min":0,"x_max":0,"o":"m 372 1042 l 485 1161 l 596 1042 l 696 1042 l 485 1269 l 274 1042 z m 874 0 l 874 110 l 243 110 l 243 432 l 811 432 l 811 543 l 243 543 l 243 858 l 874 858 l 874 968 l 96 968 l 96 0 z m 567 -256 l 567 -94 l 403 -94 l 403 -256 z "},"Ề":{"ha":936,"x_min":0,"x_max":0,"o":"m 532 1317 l 388 1513 l 256 1513 l 438 1317 z m 372 1042 l 485 1161 l 596 1042 l 696 1042 l 485 1269 l 274 1042 z m 874 0 l 874 110 l 243 110 l 243 432 l 811 432 l 811 543 l 243 543 l 243 858 l 874 858 l 874 968 l 96 968 l 96 0 z "},"Ể":{"ha":936,"x_min":0,"x_max":0,"o":"m 463 1267 b 638 1400 536 1281 638 1294 b 424 1542 638 1492 549 1542 l 403 1542 l 403 1463 l 424 1463 b 547 1392 489 1463 547 1449 b 447 1321 547 1333 494 1329 z m 372 1042 l 485 1161 l 596 1042 l 696 1042 l 485 1269 l 274 1042 z m 874 0 l 874 110 l 243 110 l 243 432 l 811 432 l 811 543 l 243 543 l 243 858 l 874 858 l 874 968 l 96 968 l 96 0 z "},"Ễ":{"ha":936,"x_min":0,"x_max":0,"o":"m 576 1329 b 710 1513 657 1329 710 1396 l 632 1513 b 578 1407 632 1446 608 1407 b 396 1517 513 1407 497 1517 b 260 1344 313 1517 260 1451 l 333 1344 b 390 1439 333 1403 354 1439 b 576 1329 456 1439 465 1329 z m 372 1042 l 485 1161 l 596 1042 l 696 1042 l 485 1269 l 274 1042 z m 874 0 l 874 110 l 243 110 l 243 432 l 811 432 l 811 543 l 243 543 l 243 858 l 874 858 l 874 968 l 96 968 l 96 0 z "},"Ë":{"ha":936,"x_min":0,"x_max":0,"o":"m 422 1090 l 422 1251 l 282 1251 l 282 1090 z m 689 1090 l 689 1251 l 549 1251 l 549 1090 z m 874 0 l 874 110 l 243 110 l 243 432 l 811 432 l 811 543 l 243 543 l 243 858 l 874 858 l 874 968 l 96 968 l 96 0 z "},"Ė":{"ha":936,"x_min":0,"x_max":0,"o":"m 571 1090 l 571 1251 l 400 1251 l 400 1090 z m 874 0 l 874 110 l 243 110 l 243 432 l 811 432 l 811 543 l 243 543 l 243 858 l 874 858 l 874 968 l 96 968 l 96 0 z "},"Ẹ":{"ha":936,"x_min":0,"x_max":0,"o":"m 874 0 l 874 110 l 243 110 l 243 432 l 811 432 l 811 543 l 243 543 l 243 858 l 874 858 l 874 968 l 96 968 l 96 0 z m 567 -256 l 567 -94 l 403 -94 l 403 -256 z "},"È":{"ha":936,"x_min":0,"x_max":0,"o":"m 532 1056 l 388 1251 l 256 1251 l 438 1056 z m 874 0 l 874 110 l 243 110 l 243 432 l 811 432 l 811 543 l 243 543 l 243 858 l 874 858 l 874 968 l 96 968 l 96 0 z "},"Ẻ":{"ha":936,"x_min":0,"x_max":0,"o":"m 463 1006 b 638 1139 536 1019 638 1033 b 424 1281 638 1231 549 1281 l 403 1281 l 403 1201 l 424 1201 b 547 1131 489 1201 547 1188 b 447 1060 547 1072 494 1068 z m 874 0 l 874 110 l 243 110 l 243 432 l 811 432 l 811 543 l 243 543 l 243 858 l 874 858 l 874 968 l 96 968 l 96 0 z "},"Ē":{"ha":936,"x_min":0,"x_max":0,"o":"m 674 1097 l 674 1171 l 296 1171 l 296 1097 z m 874 0 l 874 110 l 243 110 l 243 432 l 811 432 l 811 543 l 243 543 l 243 858 l 874 858 l 874 968 l 96 968 l 96 0 z "},"Ę":{"ha":936,"x_min":0,"x_max":0,"o":"m 868 -185 b 790 -224 847 -208 821 -224 b 731 -164 758 -224 731 -207 b 874 0 731 -90 819 -28 l 874 110 l 243 110 l 243 432 l 811 432 l 811 543 l 243 543 l 243 858 l 874 858 l 874 968 l 96 968 l 96 0 l 771 0 b 656 -176 718 -33 656 -93 b 793 -301 656 -253 715 -301 b 932 -231 856 -301 899 -271 z "},"Ẽ":{"ha":936,"x_min":0,"x_max":0,"o":"m 576 1068 b 710 1251 657 1068 710 1135 l 632 1251 b 578 1146 632 1185 608 1146 b 396 1256 513 1146 497 1256 b 260 1083 313 1256 260 1190 l 333 1083 b 390 1178 333 1142 354 1178 b 576 1068 456 1178 465 1068 z m 874 0 l 874 110 l 243 110 l 243 432 l 811 432 l 811 543 l 243 543 l 243 858 l 874 858 l 874 968 l 96 968 l 96 0 z "},"F":{"ha":940,"x_min":0,"x_max":0,"o":"m 243 0 l 243 413 l 822 413 l 822 522 l 243 522 l 243 858 l 904 858 l 904 968 l 96 968 l 96 0 z "},"G":{"ha":1178,"x_min":0,"x_max":0,"o":"m 682 399 l 950 399 l 950 365 b 604 97 950 199 828 97 b 201 483 326 97 201 260 b 607 871 201 726 336 871 b 958 671 792 871 897 806 l 1099 715 b 610 985 1014 894 846 985 b 54 479 263 985 54 793 b 596 -17 54 182 251 -17 b 981 142 761 -17 906 31 l 989 0 l 1100 0 l 1100 507 l 682 507 z "},"Ğ":{"ha":1178,"x_min":0,"x_max":0,"o":"m 597 1053 b 829 1251 750 1053 829 1118 l 726 1251 b 597 1126 726 1160 675 1126 b 468 1251 521 1126 468 1160 l 367 1251 b 597 1053 367 1124 439 1053 z m 682 399 l 950 399 l 950 365 b 604 97 950 199 828 97 b 201 483 326 97 201 260 b 607 871 201 726 336 871 b 958 671 792 871 897 806 l 1099 715 b 610 985 1014 894 846 985 b 54 479 263 985 54 793 b 596 -17 54 182 251 -17 b 981 142 761 -17 906 31 l 989 0 l 1100 0 l 1100 507 l 682 507 z "},"Ģ":{"ha":1178,"x_min":0,"x_max":0,"o":"m 682 399 l 950 399 l 950 365 b 604 97 950 199 828 97 b 201 483 326 97 201 260 b 607 871 201 726 336 871 b 958 671 792 871 897 806 l 1099 715 b 610 985 1014 894 846 985 b 54 479 263 985 54 793 b 596 -17 54 182 251 -17 b 981 142 761 -17 906 31 l 989 0 l 1100 0 l 1100 507 l 682 507 z m 494 -310 l 661 -75 l 529 -75 l 419 -310 z "},"Ġ":{"ha":1178,"x_min":0,"x_max":0,"o":"m 513 1251 l 513 1090 l 683 1090 l 683 1251 z m 682 399 l 950 399 l 950 365 b 604 97 950 199 828 97 b 201 483 326 97 201 260 b 607 871 201 726 336 871 b 958 671 792 871 897 806 l 1099 715 b 610 985 1014 894 846 985 b 54 479 263 985 54 793 b 596 -17 54 182 251 -17 b 981 142 761 -17 906 31 l 989 0 l 1100 0 l 1100 507 l 682 507 z "},"H":{"ha":1060,"x_min":0,"x_max":0,"o":"m 243 0 l 243 422 l 817 422 l 817 0 l 964 0 l 964 968 l 817 968 l 817 553 l 243 553 l 243 968 l 96 968 l 96 0 z "},"Ħ":{"ha":1060,"x_min":0,"x_max":0,"o":"m 964 796 l 964 968 l 817 968 l 817 796 l 243 796 l 243 968 l 96 968 l 96 796 l 32 796 l 32 721 l 96 721 l 96 0 l 243 0 l 243 422 l 817 422 l 817 0 l 964 0 l 964 721 l 1029 721 l 1029 796 z m 243 553 l 243 721 l 817 721 l 817 553 z "},"I":{"ha":342,"x_min":0,"x_max":0,"o":"m 244 0 l 244 968 l 96 968 l 96 0 z "},"Í":{"ha":342,"x_min":0,"x_max":0,"o":"m 215 1056 l 410 1251 l 275 1251 l 124 1056 z m 244 0 l 244 968 l 96 968 l 96 0 z "},"Ǐ":{"ha":342,"x_min":0,"x_max":0,"o":"m 381 1251 l 282 1251 l 169 1136 l 60 1251 l -40 1251 l 169 1032 z m 244 0 l 244 968 l 96 968 l 96 0 z "},"Î":{"ha":342,"x_min":0,"x_max":0,"o":"m 58 1042 l 171 1161 l 282 1042 l 382 1042 l 171 1269 l -40 1042 z m 244 0 l 244 968 l 96 968 l 96 0 z "},"Ï":{"ha":342,"x_min":0,"x_max":0,"o":"m 107 1090 l 107 1251 l -33 1251 l -33 1090 z m 374 1090 l 374 1251 l 233 1251 l 233 1090 z m 244 0 l 244 968 l 96 968 l 96 0 z "},"İ":{"ha":342,"x_min":0,"x_max":0,"o":"m 257 1090 l 257 1251 l 86 1251 l 86 1090 z m 244 0 l 244 968 l 96 968 l 96 0 z "},"Ị":{"ha":342,"x_min":0,"x_max":0,"o":"m 244 0 l 244 968 l 96 968 l 96 0 z m 253 -256 l 253 -94 l 89 -94 l 89 -256 z "},"Ì":{"ha":342,"x_min":0,"x_max":0,"o":"m 217 1056 l 72 1251 l -60 1251 l 122 1056 z m 244 0 l 244 968 l 96 968 l 96 0 z "},"Ỉ":{"ha":342,"x_min":0,"x_max":0,"o":"m 149 1006 b 324 1139 222 1019 324 1033 b 110 1281 324 1231 235 1281 l 89 1281 l 89 1201 l 110 1201 b 233 1131 175 1201 233 1188 b 133 1060 233 1072 181 1068 z m 244 0 l 244 968 l 96 968 l 96 0 z "},"Ī":{"ha":342,"x_min":0,"x_max":0,"o":"m 360 1097 l 360 1171 l -18 1171 l -18 1097 z m 244 0 l 244 968 l 96 968 l 96 0 z "},"Į":{"ha":342,"x_min":0,"x_max":0,"o":"m 240 -185 b 163 -224 219 -208 193 -224 b 103 -164 131 -224 103 -207 b 246 0 103 -90 192 -28 l 244 0 l 244 968 l 96 968 l 96 0 l 143 0 b 28 -176 90 -33 28 -93 b 165 -301 28 -253 88 -301 b 304 -231 228 -301 271 -271 z "},"Ĩ":{"ha":342,"x_min":0,"x_max":0,"o":"m 263 1068 b 396 1251 343 1068 396 1135 l 318 1251 b 264 1146 318 1185 294 1146 b 82 1256 199 1146 183 1256 b -54 1083 -1 1256 -54 1190 l 19 1083 b 76 1178 19 1142 40 1178 b 263 1068 142 1178 151 1068 z m 244 0 l 244 968 l 96 968 l 96 0 z "},"J":{"ha":904,"x_min":0,"x_max":0,"o":"m 424 -17 b 817 343 676 -17 817 115 l 817 968 l 239 968 l 239 844 l 669 844 l 669 364 b 424 108 669 206 594 108 b 174 315 269 108 183 182 l 26 289 b 424 -17 43 99 188 -17 z "},"K":{"ha":1075,"x_min":0,"x_max":0,"o":"m 569 576 l 1038 968 l 831 968 l 243 463 l 243 968 l 96 968 l 96 0 l 243 0 l 243 304 l 464 489 l 876 0 l 1058 0 z "},"Ķ":{"ha":1075,"x_min":0,"x_max":0,"o":"m 1038 968 l 831 968 l 243 463 l 243 968 l 96 968 l 96 0 l 243 0 l 243 304 l 464 489 l 876 0 l 1058 0 l 569 576 z m 411 -310 l 578 -75 l 446 -75 l 336 -310 z "},"L":{"ha":786,"x_min":0,"x_max":0,"o":"m 765 0 l 765 124 l 243 124 l 243 968 l 96 968 l 96 0 z "},"Ĺ":{"ha":786,"x_min":0,"x_max":0,"o":"m 208 1056 l 403 1251 l 268 1251 l 117 1056 z m 765 0 l 765 124 l 243 124 l 243 968 l 96 968 l 96 0 z "},"Ľ":{"ha":786,"x_min":0,"x_max":0,"o":"m 765 0 l 765 124 l 243 124 l 243 968 l 96 968 l 96 0 z m 621 669 l 756 968 l 625 968 l 546 669 z "},"Ļ":{"ha":786,"x_min":0,"x_max":0,"o":"m 765 0 l 765 124 l 243 124 l 243 968 l 96 968 l 96 0 z m 329 -310 l 496 -75 l 364 -75 l 254 -310 z "},"Ł":{"ha":786,"x_min":0,"x_max":0,"o":"m 243 376 l 560 576 l 560 704 l 243 504 l 243 968 l 96 968 l 96 411 l 7 356 l 7 228 l 96 283 l 96 0 l 765 0 l 765 124 l 243 124 z "},"M":{"ha":1335,"x_min":0,"x_max":0,"o":"m 667 238 l 296 968 l 96 968 l 96 0 l 244 0 l 244 783 l 603 82 l 732 82 l 1090 786 l 1090 0 l 1239 0 l 1239 968 l 1038 968 z "},"N":{"ha":1060,"x_min":0,"x_max":0,"o":"m 815 215 l 238 968 l 96 968 l 96 0 l 243 0 l 243 756 l 821 0 l 965 0 l 965 968 l 815 968 z "},"Ń":{"ha":1060,"x_min":0,"x_max":0,"o":"m 626 1251 l 475 1056 l 567 1056 l 761 1251 z m 815 215 l 238 968 l 96 968 l 96 0 l 243 0 l 243 756 l 821 0 l 965 0 l 965 968 l 815 968 z "},"Ň":{"ha":1060,"x_min":0,"x_max":0,"o":"m 633 1251 l 521 1136 l 411 1251 l 311 1251 l 521 1032 l 732 1251 z m 815 215 l 238 968 l 96 968 l 96 0 l 243 0 l 243 756 l 821 0 l 965 0 l 965 968 l 815 968 z "},"Ņ":{"ha":1060,"x_min":0,"x_max":0,"o":"m 815 215 l 238 968 l 96 968 l 96 0 l 243 0 l 243 756 l 821 0 l 965 0 l 965 968 l 815 968 z m 419 -310 l 586 -75 l 454 -75 l 344 -310 z "},"Ŋ":{"ha":1033,"x_min":0,"x_max":0,"o":"m 813 188 l 232 968 l 96 968 l 96 0 l 222 0 l 222 779 l 799 -1 b 817 -51 811 -17 817 -33 b 654 -164 817 -110 768 -164 b 568 -154 633 -164 597 -160 l 567 -226 b 686 -240 610 -236 656 -240 b 938 -14 867 -240 938 -137 l 938 968 l 813 968 z "},"Ñ":{"ha":1060,"x_min":0,"x_max":0,"o":"m 426 1178 b 613 1068 492 1178 501 1068 b 746 1251 693 1068 746 1135 l 668 1251 b 614 1146 668 1185 644 1146 b 432 1256 549 1146 533 1256 b 296 1083 349 1256 296 1190 l 369 1083 b 426 1178 369 1142 390 1178 z m 815 215 l 238 968 l 96 968 l 96 0 l 243 0 l 243 756 l 821 0 l 965 0 l 965 968 l 815 968 z "},"O":{"ha":1201,"x_min":0,"x_max":0,"o":"m 599 -17 b 1144 483 936 -17 1144 179 b 599 985 1144 788 938 985 b 54 483 263 985 54 786 b 599 -17 54 181 263 -17 z m 599 107 b 203 483 349 107 203 253 b 599 861 203 715 347 861 b 994 483 850 861 994 715 b 599 107 994 253 850 107 z "},"Ó":{"ha":1201,"x_min":0,"x_max":0,"o":"m 646 1056 l 840 1251 l 706 1251 l 554 1056 z m 599 -17 b 1144 483 936 -17 1144 179 b 599 985 1144 788 938 985 b 54 483 263 985 54 786 b 599 -17 54 181 263 -17 z m 599 107 b 203 483 349 107 203 253 b 599 861 203 715 347 861 b 994 483 850 861 994 715 b 599 107 994 253 850 107 z "},"Ǒ":{"ha":1201,"x_min":0,"x_max":0,"o":"m 811 1251 l 713 1251 l 600 1136 l 490 1251 l 390 1251 l 600 1032 z m 599 -17 b 1144 483 936 -17 1144 179 b 599 985 1144 788 938 985 b 54 483 263 985 54 786 b 599 -17 54 181 263 -17 z m 599 107 b 203 483 349 107 203 253 b 599 861 203 715 347 861 b 994 483 850 861 994 715 b 599 107 994 253 850 107 z "},"Ô":{"ha":1201,"x_min":0,"x_max":0,"o":"m 488 1042 l 600 1161 l 711 1042 l 811 1042 l 600 1269 l 389 1042 z m 599 -17 b 1144 483 936 -17 1144 179 b 599 985 1144 788 938 985 b 54 483 263 985 54 786 b 599 -17 54 181 263 -17 z m 599 107 b 203 483 349 107 203 253 b 599 861 203 715 347 861 b 994 483 850 861 994 715 b 599 107 994 253 850 107 z "},"Ố":{"ha":1201,"x_min":0,"x_max":0,"o":"m 646 1317 l 840 1513 l 706 1513 l 554 1317 z m 488 1042 l 600 1161 l 711 1042 l 811 1042 l 600 1269 l 389 1042 z m 599 -17 b 1144 483 936 -17 1144 179 b 599 985 1144 788 938 985 b 54 483 263 985 54 786 b 599 -17 54 181 263 -17 z m 599 107 b 203 483 349 107 203 253 b 599 861 203 715 347 861 b 994 483 850 861 994 715 b 599 107 994 253 850 107 z "},"Ộ":{"ha":1201,"x_min":0,"x_max":0,"o":"m 488 1042 l 600 1161 l 711 1042 l 811 1042 l 600 1269 l 389 1042 z m 599 -17 b 1144 483 936 -17 1144 179 b 599 985 1144 788 938 985 b 54 483 263 985 54 786 b 599 -17 54 181 263 -17 z m 599 107 b 203 483 349 107 203 253 b 599 861 203 715 347 861 b 994 483 850 861 994 715 b 599 107 994 253 850 107 z m 682 -256 l 682 -94 l 518 -94 l 518 -256 z "},"Ồ":{"ha":1201,"x_min":0,"x_max":0,"o":"m 647 1317 l 503 1513 l 371 1513 l 553 1317 z m 488 1042 l 600 1161 l 711 1042 l 811 1042 l 600 1269 l 389 1042 z m 599 -17 b 1144 483 936 -17 1144 179 b 599 985 1144 788 938 985 b 54 483 263 985 54 786 b 599 -17 54 181 263 -17 z m 599 107 b 203 483 349 107 203 253 b 599 861 203 715 347 861 b 994 483 850 861 994 715 b 599 107 994 253 850 107 z "},"Ổ":{"ha":1201,"x_min":0,"x_max":0,"o":"m 578 1267 b 753 1400 651 1281 753 1294 b 539 1542 753 1492 664 1542 l 518 1542 l 518 1463 l 539 1463 b 663 1392 604 1463 663 1449 b 563 1321 663 1333 610 1329 z m 488 1042 l 600 1161 l 711 1042 l 811 1042 l 600 1269 l 389 1042 z m 599 -17 b 1144 483 936 -17 1144 179 b 599 985 1144 788 938 985 b 54 483 263 985 54 786 b 599 -17 54 181 263 -17 z m 599 107 b 203 483 349 107 203 253 b 599 861 203 715 347 861 b 994 483 850 861 994 715 b 599 107 994 253 850 107 z "},"Ỗ":{"ha":1201,"x_min":0,"x_max":0,"o":"m 692 1329 b 825 1513 772 1329 825 1396 l 747 1513 b 693 1407 747 1446 724 1407 b 511 1517 628 1407 613 1517 b 375 1344 428 1517 375 1451 l 449 1344 b 506 1439 449 1403 469 1439 b 692 1329 571 1439 581 1329 z m 488 1042 l 600 1161 l 711 1042 l 811 1042 l 600 1269 l 389 1042 z m 599 -17 b 1144 483 936 -17 1144 179 b 599 985 1144 788 938 985 b 54 483 263 985 54 786 b 599 -17 54 181 263 -17 z m 599 107 b 203 483 349 107 203 253 b 599 861 203 715 347 861 b 994 483 850 861 994 715 b 599 107 994 253 850 107 z "},"Ö":{"ha":1201,"x_min":0,"x_max":0,"o":"m 538 1090 l 538 1251 l 397 1251 l 397 1090 z m 804 1090 l 804 1251 l 664 1251 l 664 1090 z m 599 -17 b 1144 483 936 -17 1144 179 b 599 985 1144 788 938 985 b 54 483 263 985 54 786 b 599 -17 54 181 263 -17 z m 599 107 b 203 483 349 107 203 253 b 599 861 203 715 347 861 b 994 483 850 861 994 715 b 599 107 994 253 850 107 z "},"Ọ":{"ha":1201,"x_min":0,"x_max":0,"o":"m 599 -17 b 1144 483 936 -17 1144 179 b 599 985 1144 788 938 985 b 54 483 263 985 54 786 b 599 -17 54 181 263 -17 z m 599 107 b 203 483 349 107 203 253 b 599 861 203 715 347 861 b 994 483 850 861 994 715 b 599 107 994 253 850 107 z m 682 -256 l 682 -94 l 518 -94 l 518 -256 z "},"Ò":{"ha":1201,"x_min":0,"x_max":0,"o":"m 647 1056 l 503 1251 l 371 1251 l 553 1056 z m 599 -17 b 1144 483 936 -17 1144 179 b 599 985 1144 788 938 985 b 54 483 263 985 54 786 b 599 -17 54 181 263 -17 z m 599 107 b 203 483 349 107 203 253 b 599 861 203 715 347 861 b 994 483 850 861 994 715 b 599 107 994 253 850 107 z "},"Ỏ":{"ha":1201,"x_min":0,"x_max":0,"o":"m 578 1006 b 753 1139 651 1019 753 1033 b 539 1281 753 1231 664 1281 l 518 1281 l 518 1201 l 539 1201 b 663 1131 604 1201 663 1188 b 563 1060 663 1072 610 1068 z m 599 -17 b 1144 483 936 -17 1144 179 b 599 985 1144 788 938 985 b 54 483 263 985 54 786 b 599 -17 54 181 263 -17 z m 599 107 b 203 483 349 107 203 253 b 599 861 203 715 347 861 b 994 483 850 861 994 715 b 599 107 994 253 850 107 z "},"Ơ":{"ha":1201,"x_min":0,"x_max":0,"o":"m 1193 1047 l 1106 1047 l 1106 993 b 996 850 1106 900 1076 851 b 599 985 903 936 767 985 b 54 483 263 985 54 786 b 599 -17 54 181 263 -17 b 1144 483 936 -17 1144 179 b 1061 775 1144 597 1115 696 b 1193 986 1154 801 1193 882 z m 599 107 b 203 483 349 107 203 253 b 599 861 203 715 347 861 b 994 483 850 861 994 715 b 599 107 994 253 850 107 z "},"Ớ":{"ha":1201,"x_min":0,"x_max":0,"o":"m 706 1251 l 554 1056 l 646 1056 l 840 1251 z m 1193 1047 l 1106 1047 l 1106 993 b 996 850 1106 900 1076 851 b 599 985 903 936 767 985 b 54 483 263 985 54 786 b 599 -17 54 181 263 -17 b 1144 483 936 -17 1144 179 b 1061 775 1144 597 1115 696 b 1193 986 1154 801 1193 882 z m 599 107 b 203 483 349 107 203 253 b 599 861 203 715 347 861 b 994 483 850 861 994 715 b 599 107 994 253 850 107 z "},"Ợ":{"ha":1201,"x_min":0,"x_max":0,"o":"m 1193 1047 l 1106 1047 l 1106 993 b 996 850 1106 900 1076 851 b 599 985 903 936 767 985 b 54 483 263 985 54 786 b 599 -17 54 181 263 -17 b 1144 483 936 -17 1144 179 b 1061 775 1144 597 1115 696 b 1193 986 1154 801 1193 882 z m 599 107 b 203 483 349 107 203 253 b 599 861 203 715 347 861 b 994 483 850 861 994 715 b 599 107 994 253 850 107 z m 682 -256 l 682 -94 l 518 -94 l 518 -256 z "},"Ờ":{"ha":1201,"x_min":0,"x_max":0,"o":"m 503 1251 l 371 1251 l 553 1056 l 647 1056 z m 1193 1047 l 1106 1047 l 1106 993 b 996 850 1106 900 1076 851 b 599 985 903 936 767 985 b 54 483 263 985 54 786 b 599 -17 54 181 263 -17 b 1144 483 936 -17 1144 179 b 1061 775 1144 597 1115 696 b 1193 986 1154 801 1193 882 z m 599 107 b 203 483 349 107 203 253 b 599 861 203 715 347 861 b 994 483 850 861 994 715 b 599 107 994 253 850 107 z "},"Ở":{"ha":1201,"x_min":0,"x_max":0,"o":"m 663 1131 b 563 1060 663 1072 610 1068 l 578 1006 b 753 1139 651 1019 753 1033 b 539 1281 753 1231 664 1281 l 518 1281 l 518 1201 l 539 1201 b 663 1131 604 1201 663 1188 z m 1193 1047 l 1106 1047 l 1106 993 b 996 850 1106 900 1076 851 b 599 985 903 936 767 985 b 54 483 263 985 54 786 b 599 -17 54 181 263 -17 b 1144 483 936 -17 1144 179 b 1061 775 1144 597 1115 696 b 1193 986 1154 801 1193 882 z m 599 107 b 203 483 349 107 203 253 b 599 861 203 715 347 861 b 994 483 850 861 994 715 b 599 107 994 253 850 107 z "},"Ỡ":{"ha":1201,"x_min":0,"x_max":0,"o":"m 506 1178 b 692 1068 571 1178 581 1068 b 825 1251 772 1068 825 1135 l 747 1251 b 693 1146 747 1185 724 1146 b 511 1256 628 1146 613 1256 b 375 1083 428 1256 375 1190 l 449 1083 b 506 1178 449 1142 469 1178 z m 1193 1047 l 1106 1047 l 1106 993 b 996 850 1106 900 1076 851 b 599 985 903 936 767 985 b 54 483 263 985 54 786 b 599 -17 54 181 263 -17 b 1144 483 936 -17 1144 179 b 1061 775 1144 597 1115 696 b 1193 986 1154 801 1193 882 z m 599 107 b 203 483 349 107 203 253 b 599 861 203 715 347 861 b 994 483 850 861 994 715 b 599 107 994 253 850 107 z "},"Ő":{"ha":1201,"x_min":0,"x_max":0,"o":"m 522 1033 l 694 1251 l 582 1251 l 431 1033 z m 771 1033 l 963 1251 l 831 1251 l 679 1033 z m 599 -17 b 1144 483 936 -17 1144 179 b 599 985 1144 788 938 985 b 54 483 263 985 54 786 b 599 -17 54 181 263 -17 z m 599 107 b 203 483 349 107 203 253 b 599 861 203 715 347 861 b 994 483 850 861 994 715 b 599 107 994 253 850 107 z "},"Ō":{"ha":1201,"x_min":0,"x_max":0,"o":"m 789 1097 l 789 1171 l 411 1171 l 411 1097 z m 599 -17 b 1144 483 936 -17 1144 179 b 599 985 1144 788 938 985 b 54 483 263 985 54 786 b 599 -17 54 181 263 -17 z m 599 107 b 203 483 349 107 203 253 b 599 861 203 715 347 861 b 994 483 850 861 994 715 b 599 107 994 253 850 107 z "},"Ø":{"ha":1201,"x_min":0,"x_max":0,"o":"m 992 968 l 906 968 l 878 929 b 599 985 799 965 706 985 b 54 483 263 985 54 786 b 261 72 54 303 129 158 l 208 0 l 296 0 l 324 39 b 599 -17 401 3 493 -17 b 1144 483 936 -17 1144 179 b 939 894 1144 665 1071 808 z m 203 483 b 599 861 203 715 347 861 b 800 821 676 861 743 847 l 339 182 b 203 483 251 246 203 351 z m 599 107 b 400 146 522 107 456 121 l 860 785 b 994 483 947 719 994 615 b 599 107 994 253 850 107 z "},"Õ":{"ha":1201,"x_min":0,"x_max":0,"o":"m 692 1068 b 825 1251 772 1068 825 1135 l 747 1251 b 693 1146 747 1185 724 1146 b 511 1256 628 1146 613 1256 b 375 1083 428 1256 375 1190 l 449 1083 b 506 1178 449 1142 469 1178 b 692 1068 571 1178 581 1068 z m 599 -17 b 1144 483 936 -17 1144 179 b 599 985 1144 788 938 985 b 54 483 263 985 54 786 b 599 -17 54 181 263 -17 z m 599 107 b 203 483 349 107 203 253 b 599 861 203 715 347 861 b 994 483 850 861 994 715 b 599 107 994 253 850 107 z "},"Œ":{"ha":1840,"x_min":0,"x_max":0,"o":"m 1776 968 l 999 968 l 999 849 b 599 985 904 936 768 985 b 54 483 263 985 54 786 b 599 -17 54 181 263 -17 b 999 119 768 -17 904 32 l 999 0 l 1776 0 l 1776 110 l 1147 110 l 1147 432 l 1715 432 l 1715 543 l 1147 543 l 1147 858 l 1776 858 z m 599 107 b 203 483 349 107 203 253 b 599 861 203 715 347 861 b 994 483 850 861 994 715 b 599 107 994 253 850 107 z "},"P":{"ha":974,"x_min":0,"x_max":0,"o":"m 243 0 l 243 404 l 572 404 b 928 688 758 404 928 450 b 572 968 928 919 764 968 l 96 968 l 96 0 z m 243 858 l 567 858 b 779 686 668 858 779 838 b 567 514 779 535 669 514 l 243 514 z "},"Þ":{"ha":974,"x_min":0,"x_max":0,"o":"m 243 810 l 243 968 l 96 968 l 96 0 l 243 0 l 243 246 l 572 246 b 928 529 758 246 928 292 b 572 810 928 771 750 810 z m 243 357 l 243 700 l 567 700 b 779 529 668 700 779 679 b 567 357 779 376 669 357 z "},"Q":{"ha":1211,"x_min":0,"x_max":0,"o":"m 1133 49 l 1022 142 b 1146 483 1103 226 1146 346 b 600 985 1146 788 938 985 b 56 483 265 985 56 788 b 600 -17 56 179 265 -17 b 938 75 735 -17 849 17 l 1063 -26 z m 600 97 b 204 483 350 97 204 246 b 600 871 204 721 350 871 b 997 483 850 871 997 721 b 910 226 997 376 967 288 l 664 433 l 585 358 l 822 158 b 600 97 763 118 685 97 z "},"R":{"ha":993,"x_min":0,"x_max":0,"o":"m 675 410 b 928 688 817 428 928 494 b 572 968 928 919 764 968 l 96 968 l 96 0 l 243 0 l 243 404 l 522 404 l 776 0 l 946 0 z m 567 858 b 779 686 668 858 779 838 b 567 514 779 535 669 514 l 243 514 l 243 858 z "},"Ŕ":{"ha":993,"x_min":0,"x_max":0,"o":"m 589 1251 l 438 1056 l 529 1056 l 724 1251 z m 675 410 b 928 688 817 428 928 494 b 572 968 928 919 764 968 l 96 968 l 96 0 l 243 0 l 243 404 l 522 404 l 776 0 l 946 0 z m 567 858 b 779 686 668 858 779 838 b 567 514 779 535 669 514 l 243 514 l 243 858 z "},"Ř":{"ha":993,"x_min":0,"x_max":0,"o":"m 594 1251 l 482 1136 l 372 1251 l 272 1251 l 482 1032 l 693 1251 z m 675 410 b 928 688 817 428 928 494 b 572 968 928 919 764 968 l 96 968 l 96 0 l 243 0 l 243 404 l 522 404 l 776 0 l 946 0 z m 567 858 b 779 686 668 858 779 838 b 567 514 779 535 669 514 l 243 514 l 243 858 z "},"Ŗ":{"ha":993,"x_min":0,"x_max":0,"o":"m 675 410 b 928 688 817 428 928 494 b 572 968 928 919 764 968 l 96 968 l 96 0 l 243 0 l 243 404 l 522 404 l 776 0 l 946 0 z m 567 858 b 779 686 668 858 779 838 b 567 514 779 535 669 514 l 243 514 l 243 858 z m 382 -310 l 549 -75 l 417 -75 l 307 -310 z "},"S":{"ha":989,"x_min":0,"x_max":0,"o":"m 529 -17 b 936 276 813 -17 936 106 b 539 564 936 489 714 531 b 258 725 361 597 258 624 b 475 871 258 815 343 871 b 789 747 608 871 717 826 l 886 828 b 485 985 786 935 661 985 b 110 711 261 985 110 881 b 501 431 110 503 303 464 b 789 261 682 399 789 371 b 531 97 789 160 708 97 b 183 293 357 97 228 165 l 38 263 b 529 -17 92 96 232 -17 z "},"Ś":{"ha":989,"x_min":0,"x_max":0,"o":"m 539 1056 l 733 1251 l 599 1251 l 447 1056 z m 529 -17 b 936 276 813 -17 936 106 b 539 564 936 489 714 531 b 258 725 361 597 258 624 b 475 871 258 815 343 871 b 789 747 608 871 717 826 l 886 828 b 485 985 786 935 661 985 b 110 711 261 985 110 881 b 501 431 110 503 303 464 b 789 261 682 399 789 371 b 531 97 789 160 708 97 b 183 293 357 97 228 165 l 38 263 b 529 -17 92 96 232 -17 z "},"Š":{"ha":989,"x_min":0,"x_max":0,"o":"m 704 1251 l 606 1251 l 493 1136 l 383 1251 l 283 1251 l 493 1032 z m 529 -17 b 936 276 813 -17 936 106 b 539 564 936 489 714 531 b 258 725 361 597 258 624 b 475 871 258 815 343 871 b 789 747 608 871 717 826 l 886 828 b 485 985 786 935 661 985 b 110 711 261 985 110 881 b 501 431 110 503 303 464 b 789 261 682 399 789 371 b 531 97 789 160 708 97 b 183 293 357 97 228 165 l 38 263 b 529 -17 92 96 232 -17 z "},"Ş":{"ha":989,"x_min":0,"x_max":0,"o":"m 529 -17 b 936 276 813 -17 936 106 b 539 564 936 489 714 531 b 258 725 361 597 258 624 b 475 871 258 815 343 871 b 789 747 608 871 717 826 l 886 828 b 485 985 786 935 661 985 b 110 711 261 985 110 881 b 501 431 110 503 303 464 b 789 261 682 399 789 371 b 531 97 789 160 708 97 b 183 293 357 97 228 165 l 38 263 b 446 -14 86 113 206 6 l 376 -132 b 488 -143 417 -132 454 -133 b 550 -215 524 -154 550 -175 b 475 -283 550 -260 521 -283 b 396 -240 443 -283 414 -265 l 354 -300 b 472 -357 388 -339 436 -357 b 624 -210 565 -357 624 -296 b 563 -106 624 -162 603 -128 b 475 -81 539 -93 510 -85 l 519 -17 z "},"Ș":{"ha":989,"x_min":0,"x_max":0,"o":"m 529 -17 b 936 276 813 -17 936 106 b 539 564 936 489 714 531 b 258 725 361 597 258 624 b 475 871 258 815 343 871 b 789 747 608 871 717 826 l 886 828 b 485 985 786 935 661 985 b 110 711 261 985 110 881 b 501 431 110 503 303 464 b 789 261 682 399 789 371 b 531 97 789 160 708 97 b 183 293 357 97 228 165 l 38 263 b 529 -17 92 96 232 -17 z m 393 -310 l 560 -75 l 428 -75 l 318 -310 z "},"ẞ":{"ha":1242,"x_min":0,"x_max":0,"o":"m 801 556 b 538 718 650 583 538 610 b 728 860 538 808 624 860 l 1054 860 l 1054 968 l 96 968 l 96 0 l 243 0 l 243 860 l 443 860 b 389 711 408 821 389 771 b 763 426 389 513 581 460 b 1042 260 914 399 1042 375 b 782 90 1042 160 964 90 b 463 276 622 90 494 156 l 325 224 b 771 -17 381 76 551 -17 b 1189 276 1038 -17 1189 104 b 801 556 1189 488 974 524 z "},"T":{"ha":988,"x_min":0,"x_max":0,"o":"m 568 0 l 568 844 l 967 844 l 967 968 l 22 968 l 22 844 l 418 844 l 418 0 z "},"Ŧ":{"ha":988,"x_min":0,"x_max":0,"o":"m 967 968 l 22 968 l 22 844 l 418 844 l 418 528 l 267 528 l 267 443 l 418 443 l 418 0 l 568 0 l 568 443 l 719 443 l 719 528 l 568 528 l 568 844 l 967 844 z "},"Ť":{"ha":988,"x_min":0,"x_max":0,"o":"m 703 1251 l 604 1251 l 492 1136 l 382 1251 l 282 1251 l 492 1032 z m 568 0 l 568 844 l 967 844 l 967 968 l 22 968 l 22 844 l 418 844 l 418 0 z "},"Ţ":{"ha":988,"x_min":0,"x_max":0,"o":"m 568 844 l 967 844 l 967 968 l 22 968 l 22 844 l 418 844 l 418 0 l 453 0 l 375 -132 b 486 -143 415 -132 453 -133 b 549 -215 522 -154 549 -175 b 474 -283 549 -260 519 -283 b 394 -240 442 -283 413 -265 l 353 -300 b 471 -357 386 -339 435 -357 b 622 -210 564 -357 622 -296 b 561 -106 622 -162 601 -128 b 474 -81 538 -93 508 -85 l 529 0 l 568 0 z "},"Ț":{"ha":988,"x_min":0,"x_max":0,"o":"m 568 0 l 568 844 l 967 844 l 967 968 l 22 968 l 22 844 l 418 844 l 418 0 z m 392 -310 l 558 -75 l 426 -75 l 317 -310 z "},"U":{"ha":1057,"x_min":0,"x_max":0,"o":"m 526 -17 b 972 357 817 -17 972 114 l 972 968 l 824 968 l 824 385 b 526 114 824 222 736 114 b 233 383 317 114 233 222 l 233 968 l 85 968 l 85 350 b 526 -17 85 111 239 -17 z "},"Ú":{"ha":1057,"x_min":0,"x_max":0,"o":"m 572 1056 l 767 1251 l 632 1251 l 481 1056 z m 526 -17 b 972 357 817 -17 972 114 l 972 968 l 824 968 l 824 385 b 526 114 824 222 736 114 b 233 383 317 114 233 222 l 233 968 l 85 968 l 85 350 b 526 -17 85 111 239 -17 z "},"Ǔ":{"ha":1057,"x_min":0,"x_max":0,"o":"m 738 1251 l 639 1251 l 526 1136 l 417 1251 l 317 1251 l 526 1032 z m 526 -17 b 972 357 817 -17 972 114 l 972 968 l 824 968 l 824 385 b 526 114 824 222 736 114 b 233 383 317 114 233 222 l 233 968 l 85 968 l 85 350 b 526 -17 85 111 239 -17 z "},"Û":{"ha":1057,"x_min":0,"x_max":0,"o":"m 415 1042 l 528 1161 l 639 1042 l 739 1042 l 528 1269 l 317 1042 z m 526 -17 b 972 357 817 -17 972 114 l 972 968 l 824 968 l 824 385 b 526 114 824 222 736 114 b 233 383 317 114 233 222 l 233 968 l 85 968 l 85 350 b 526 -17 85 111 239 -17 z "},"Ü":{"ha":1057,"x_min":0,"x_max":0,"o":"m 464 1090 l 464 1251 l 324 1251 l 324 1090 z m 731 1090 l 731 1251 l 590 1251 l 590 1090 z m 526 -17 b 972 357 817 -17 972 114 l 972 968 l 824 968 l 824 385 b 526 114 824 222 736 114 b 233 383 317 114 233 222 l 233 968 l 85 968 l 85 350 b 526 -17 85 111 239 -17 z "},"Ǘ":{"ha":1057,"x_min":0,"x_max":0,"o":"m 572 1339 l 767 1535 l 632 1535 l 481 1339 z m 464 1090 l 464 1251 l 324 1251 l 324 1090 z m 731 1090 l 731 1251 l 590 1251 l 590 1090 z m 526 -17 b 972 357 817 -17 972 114 l 972 968 l 824 968 l 824 385 b 526 114 824 222 736 114 b 233 383 317 114 233 222 l 233 968 l 85 968 l 85 350 b 526 -17 85 111 239 -17 z "},"Ǚ":{"ha":1057,"x_min":0,"x_max":0,"o":"m 738 1535 l 639 1535 l 526 1419 l 417 1535 l 317 1535 l 526 1315 z m 464 1090 l 464 1251 l 324 1251 l 324 1090 z m 731 1090 l 731 1251 l 590 1251 l 590 1090 z m 526 -17 b 972 357 817 -17 972 114 l 972 968 l 824 968 l 824 385 b 526 114 824 222 736 114 b 233 383 317 114 233 222 l 233 968 l 85 968 l 85 350 b 526 -17 85 111 239 -17 z "},"Ǜ":{"ha":1057,"x_min":0,"x_max":0,"o":"m 574 1339 l 429 1535 l 297 1535 l 479 1339 z m 464 1090 l 464 1251 l 324 1251 l 324 1090 z m 731 1090 l 731 1251 l 590 1251 l 590 1090 z m 526 -17 b 972 357 817 -17 972 114 l 972 968 l 824 968 l 824 385 b 526 114 824 222 736 114 b 233 383 317 114 233 222 l 233 968 l 85 968 l 85 350 b 526 -17 85 111 239 -17 z "},"Ǖ":{"ha":1057,"x_min":0,"x_max":0,"o":"m 717 1381 l 717 1454 l 339 1454 l 339 1381 z m 464 1090 l 464 1251 l 324 1251 l 324 1090 z m 731 1090 l 731 1251 l 590 1251 l 590 1090 z m 526 -17 b 972 357 817 -17 972 114 l 972 968 l 824 968 l 824 385 b 526 114 824 222 736 114 b 233 383 317 114 233 222 l 233 968 l 85 968 l 85 350 b 526 -17 85 111 239 -17 z "},"Ụ":{"ha":1057,"x_min":0,"x_max":0,"o":"m 526 -17 b 972 357 817 -17 972 114 l 972 968 l 824 968 l 824 385 b 526 114 824 222 736 114 b 233 383 317 114 233 222 l 233 968 l 85 968 l 85 350 b 526 -17 85 111 239 -17 z m 610 -256 l 610 -94 l 446 -94 l 446 -256 z "},"Ù":{"ha":1057,"x_min":0,"x_max":0,"o":"m 574 1056 l 429 1251 l 297 1251 l 479 1056 z m 526 -17 b 972 357 817 -17 972 114 l 972 968 l 824 968 l 824 385 b 526 114 824 222 736 114 b 233 383 317 114 233 222 l 233 968 l 85 968 l 85 350 b 526 -17 85 111 239 -17 z "},"Ủ":{"ha":1057,"x_min":0,"x_max":0,"o":"m 506 1006 b 681 1139 579 1019 681 1033 b 467 1281 681 1231 592 1281 l 446 1281 l 446 1201 l 467 1201 b 590 1131 532 1201 590 1188 b 490 1060 590 1072 538 1068 z m 526 -17 b 972 357 817 -17 972 114 l 972 968 l 824 968 l 824 385 b 526 114 824 222 736 114 b 233 383 317 114 233 222 l 233 968 l 85 968 l 85 350 b 526 -17 85 111 239 -17 z "},"Ư":{"ha":1057,"x_min":0,"x_max":0,"o":"m 1064 914 b 972 772 1064 828 1039 781 l 972 968 l 824 968 l 824 385 b 526 114 824 222 736 114 b 233 383 317 114 233 222 l 233 968 l 85 968 l 85 350 b 526 -17 85 111 239 -17 b 972 357 817 -17 972 114 l 972 689 b 1151 907 1099 697 1151 786 l 1151 968 l 1064 968 z "},"Ứ":{"ha":1057,"x_min":0,"x_max":0,"o":"m 632 1251 l 481 1056 l 572 1056 l 767 1251 z m 1064 914 b 972 772 1064 828 1039 781 l 972 968 l 824 968 l 824 385 b 526 114 824 222 736 114 b 233 383 317 114 233 222 l 233 968 l 85 968 l 85 350 b 526 -17 85 111 239 -17 b 972 357 817 -17 972 114 l 972 689 b 1151 907 1099 697 1151 786 l 1151 968 l 1064 968 z "},"Ự":{"ha":1057,"x_min":0,"x_max":0,"o":"m 1064 914 b 972 772 1064 828 1039 781 l 972 968 l 824 968 l 824 385 b 526 114 824 222 736 114 b 233 383 317 114 233 222 l 233 968 l 85 968 l 85 350 b 526 -17 85 111 239 -17 b 972 357 817 -17 972 114 l 972 689 b 1151 907 1099 697 1151 786 l 1151 968 l 1064 968 z m 610 -256 l 610 -94 l 446 -94 l 446 -256 z "},"Ừ":{"ha":1057,"x_min":0,"x_max":0,"o":"m 429 1251 l 297 1251 l 479 1056 l 574 1056 z m 1064 914 b 972 772 1064 828 1039 781 l 972 968 l 824 968 l 824 385 b 526 114 824 222 736 114 b 233 383 317 114 233 222 l 233 968 l 85 968 l 85 350 b 526 -17 85 111 239 -17 b 972 357 817 -17 972 114 l 972 689 b 1151 907 1099 697 1151 786 l 1151 968 l 1064 968 z "},"Ử":{"ha":1057,"x_min":0,"x_max":0,"o":"m 590 1131 b 490 1060 590 1072 538 1068 l 506 1006 b 681 1139 579 1019 681 1033 b 467 1281 681 1231 592 1281 l 446 1281 l 446 1201 l 467 1201 b 590 1131 532 1201 590 1188 z m 1064 914 b 972 772 1064 828 1039 781 l 972 968 l 824 968 l 824 385 b 526 114 824 222 736 114 b 233 383 317 114 233 222 l 233 968 l 85 968 l 85 350 b 526 -17 85 111 239 -17 b 972 357 817 -17 972 114 l 972 689 b 1151 907 1099 697 1151 786 l 1151 968 l 1064 968 z "},"Ữ":{"ha":1057,"x_min":0,"x_max":0,"o":"m 433 1178 b 619 1068 499 1178 508 1068 b 753 1251 700 1068 753 1135 l 675 1251 b 621 1146 675 1185 651 1146 b 439 1256 556 1146 540 1256 b 303 1083 356 1256 303 1190 l 376 1083 b 433 1178 376 1142 397 1178 z m 1064 914 b 972 772 1064 828 1039 781 l 972 968 l 824 968 l 824 385 b 526 114 824 222 736 114 b 233 383 317 114 233 222 l 233 968 l 85 968 l 85 350 b 526 -17 85 111 239 -17 b 972 357 817 -17 972 114 l 972 689 b 1151 907 1099 697 1151 786 l 1151 968 l 1064 968 z "},"Ű":{"ha":1057,"x_min":0,"x_max":0,"o":"m 449 1033 l 621 1251 l 508 1251 l 357 1033 z m 697 1033 l 889 1251 l 757 1251 l 606 1033 z m 526 -17 b 972 357 817 -17 972 114 l 972 968 l 824 968 l 824 385 b 526 114 824 222 736 114 b 233 383 317 114 233 222 l 233 968 l 85 968 l 85 350 b 526 -17 85 111 239 -17 z "},"Ū":{"ha":1057,"x_min":0,"x_max":0,"o":"m 717 1097 l 717 1171 l 339 1171 l 339 1097 z m 526 -17 b 972 357 817 -17 972 114 l 972 968 l 824 968 l 824 385 b 526 114 824 222 736 114 b 233 383 317 114 233 222 l 233 968 l 85 968 l 85 350 b 526 -17 85 111 239 -17 z "},"Ų":{"ha":1057,"x_min":0,"x_max":0,"o":"m 824 385 b 526 114 824 222 736 114 b 233 383 317 114 233 222 l 233 968 l 85 968 l 85 350 b 526 -17 85 111 239 -17 l 551 -17 b 460 -176 506 -51 460 -106 b 597 -301 460 -253 519 -301 b 736 -231 660 -301 703 -271 l 672 -185 b 594 -224 651 -208 625 -224 b 535 -164 563 -224 535 -207 b 669 -4 535 -93 615 -33 b 972 357 868 35 972 158 l 972 968 l 824 968 z "},"Ů":{"ha":1057,"x_min":0,"x_max":0,"o":"m 528 911 b 678 1063 611 911 678 979 b 528 1214 678 1147 608 1214 b 376 1063 443 1214 376 1146 b 528 911 376 982 442 911 z m 528 988 b 453 1064 485 988 453 1019 b 528 1138 453 1106 482 1138 b 603 1064 572 1138 603 1107 b 528 988 603 1021 571 988 z m 526 -17 b 972 357 817 -17 972 114 l 972 968 l 824 968 l 824 385 b 526 114 824 222 736 114 b 233 383 317 114 233 222 l 233 968 l 85 968 l 85 350 b 526 -17 85 111 239 -17 z "},"Ũ":{"ha":1057,"x_min":0,"x_max":0,"o":"m 619 1068 b 753 1251 700 1068 753 1135 l 675 1251 b 621 1146 675 1185 651 1146 b 439 1256 556 1146 540 1256 b 303 1083 356 1256 303 1190 l 376 1083 b 433 1178 376 1142 397 1178 b 619 1068 499 1178 508 1068 z m 526 -17 b 972 357 817 -17 972 114 l 972 968 l 824 968 l 824 385 b 526 114 824 222 736 114 b 233 383 317 114 233 222 l 233 968 l 85 968 l 85 350 b 526 -17 85 111 239 -17 z "},"V":{"ha":1011,"x_min":0,"x_max":0,"o":"m 504 149 l 176 968 l 15 968 l 425 0 l 585 0 l 994 968 l 832 968 z "},"W":{"ha":1540,"x_min":0,"x_max":0,"o":"m 1097 199 l 835 914 l 703 914 l 443 200 l 182 968 l 19 968 l 364 0 l 504 0 l 769 714 l 1036 0 l 1175 0 l 1521 968 l 1356 968 z "},"Ẃ":{"ha":1540,"x_min":0,"x_max":0,"o":"m 875 1251 l 724 1056 l 815 1056 l 1010 1251 z m 1097 199 l 835 914 l 703 914 l 443 200 l 182 968 l 19 968 l 364 0 l 504 0 l 769 714 l 1036 0 l 1175 0 l 1521 968 l 1356 968 z "},"Ŵ":{"ha":1540,"x_min":0,"x_max":0,"o":"m 882 1042 l 982 1042 l 771 1269 l 560 1042 l 658 1042 l 771 1161 z m 1097 199 l 835 914 l 703 914 l 443 200 l 182 968 l 19 968 l 364 0 l 504 0 l 769 714 l 1036 0 l 1175 0 l 1521 968 l 1356 968 z "},"Ẅ":{"ha":1540,"x_min":0,"x_max":0,"o":"m 567 1251 l 567 1090 l 707 1090 l 707 1251 z m 833 1251 l 833 1090 l 974 1090 l 974 1251 z m 1097 199 l 835 914 l 703 914 l 443 200 l 182 968 l 19 968 l 364 0 l 504 0 l 769 714 l 1036 0 l 1175 0 l 1521 968 l 1356 968 z "},"Ẁ":{"ha":1540,"x_min":0,"x_max":0,"o":"m 672 1251 l 540 1251 l 722 1056 l 817 1056 z m 1097 199 l 835 914 l 703 914 l 443 200 l 182 968 l 19 968 l 364 0 l 504 0 l 769 714 l 1036 0 l 1175 0 l 1521 968 l 1356 968 z "},"X":{"ha":1043,"x_min":0,"x_max":0,"o":"m 201 0 l 519 399 l 840 0 l 1024 0 l 613 486 l 1017 968 l 833 968 l 521 578 l 208 968 l 25 968 l 428 486 l 18 0 z "},"Y":{"ha":1053,"x_min":0,"x_max":0,"o":"m 601 0 l 601 382 l 1044 968 l 865 968 l 525 493 l 188 968 l 7 968 l 453 382 l 453 0 z "},"Ý":{"ha":1053,"x_min":0,"x_max":0,"o":"m 572 1056 l 767 1251 l 632 1251 l 481 1056 z m 601 0 l 601 382 l 1044 968 l 865 968 l 525 493 l 188 968 l 7 968 l 453 382 l 453 0 z "},"Ŷ":{"ha":1053,"x_min":0,"x_max":0,"o":"m 414 1042 l 526 1161 l 638 1042 l 738 1042 l 526 1269 l 315 1042 z m 601 0 l 601 382 l 1044 968 l 865 968 l 525 493 l 188 968 l 7 968 l 453 382 l 453 0 z "},"Ÿ":{"ha":1053,"x_min":0,"x_max":0,"o":"m 464 1090 l 464 1251 l 324 1251 l 324 1090 z m 731 1090 l 731 1251 l 590 1251 l 590 1090 z m 601 0 l 601 382 l 1044 968 l 865 968 l 525 493 l 188 968 l 7 968 l 453 382 l 453 0 z "},"Ỵ":{"ha":1053,"x_min":0,"x_max":0,"o":"m 601 0 l 601 382 l 1044 968 l 865 968 l 525 493 l 188 968 l 7 968 l 453 382 l 453 0 z m 608 -256 l 608 -94 l 444 -94 l 444 -256 z "},"Ỳ":{"ha":1053,"x_min":0,"x_max":0,"o":"m 574 1056 l 429 1251 l 297 1251 l 479 1056 z m 601 0 l 601 382 l 1044 968 l 865 968 l 525 493 l 188 968 l 7 968 l 453 382 l 453 0 z "},"Ỷ":{"ha":1053,"x_min":0,"x_max":0,"o":"m 504 1006 b 679 1139 578 1019 679 1033 b 465 1281 679 1231 590 1281 l 444 1281 l 444 1201 l 465 1201 b 589 1131 531 1201 589 1188 b 489 1060 589 1072 536 1068 z m 601 0 l 601 382 l 1044 968 l 865 968 l 525 493 l 188 968 l 7 968 l 453 382 l 453 0 z "},"Ỹ":{"ha":1053,"x_min":0,"x_max":0,"o":"m 618 1068 b 751 1251 699 1068 751 1135 l 674 1251 b 619 1146 674 1185 650 1146 b 438 1256 554 1146 539 1256 b 301 1083 354 1256 301 1190 l 375 1083 b 432 1178 375 1142 396 1178 b 618 1068 497 1178 507 1068 z m 601 0 l 601 382 l 1044 968 l 865 968 l 525 493 l 188 968 l 7 968 l 453 382 l 453 0 z "},"Z":{"ha":1025,"x_min":0,"x_max":0,"o":"m 81 968 l 81 858 l 776 858 l 40 101 l 40 0 l 976 0 l 976 110 l 244 110 l 976 864 l 976 968 z "},"Ź":{"ha":1025,"x_min":0,"x_max":0,"o":"m 619 1251 l 468 1056 l 560 1056 l 754 1251 z m 81 968 l 81 858 l 776 858 l 40 101 l 40 0 l 976 0 l 976 110 l 244 110 l 976 864 l 976 968 z "},"Ž":{"ha":1025,"x_min":0,"x_max":0,"o":"m 626 1251 l 514 1136 l 404 1251 l 304 1251 l 514 1032 l 725 1251 z m 81 968 l 81 858 l 776 858 l 40 101 l 40 0 l 976 0 l 976 110 l 244 110 l 976 864 l 976 968 z "},"Ż":{"ha":1025,"x_min":0,"x_max":0,"o":"m 431 1251 l 431 1090 l 601 1090 l 601 1251 z m 81 968 l 81 858 l 776 858 l 40 101 l 40 0 l 976 0 l 976 110 l 244 110 l 976 864 l 976 968 z "},"a":{"ha":851,"x_min":0,"x_max":0,"o":"m 429 696 b 89 597 300 696 192 667 l 139 504 b 419 599 226 572 317 599 b 626 419 581 599 626 529 l 626 403 l 331 403 b 56 201 160 403 56 339 b 349 -11 56 67 164 -11 b 639 132 474 -11 582 38 l 661 0 l 771 0 l 771 422 b 429 696 771 604 656 696 z m 372 79 b 201 199 268 79 201 125 b 368 314 201 282 268 314 l 626 314 l 626 307 b 372 79 626 174 532 79 z "},"á":{"ha":851,"x_min":0,"x_max":0,"o":"m 540 968 l 389 772 l 481 772 l 675 968 z m 429 696 b 89 597 300 696 192 667 l 139 504 b 419 599 226 572 317 599 b 626 419 581 599 626 529 l 626 403 l 331 403 b 56 201 160 403 56 339 b 349 -11 56 67 164 -11 b 639 132 474 -11 582 38 l 661 0 l 771 0 l 771 422 b 429 696 771 604 656 696 z m 372 79 b 201 199 268 79 201 125 b 368 314 201 282 268 314 l 626 314 l 626 307 b 372 79 626 174 532 79 z "},"ă":{"ha":851,"x_min":0,"x_max":0,"o":"m 436 769 b 668 968 589 769 668 835 l 565 968 b 436 843 565 876 514 843 b 307 968 360 843 307 876 l 206 968 b 436 769 206 840 278 769 z m 429 696 b 89 597 300 696 192 667 l 139 504 b 419 599 226 572 317 599 b 626 419 581 599 626 529 l 626 403 l 331 403 b 56 201 160 403 56 339 b 349 -11 56 67 164 -11 b 639 132 474 -11 582 38 l 661 0 l 771 0 l 771 422 b 429 696 771 604 656 696 z m 372 79 b 201 199 268 79 201 125 b 368 314 201 282 268 314 l 626 314 l 626 307 b 372 79 626 174 532 79 z "},"ắ":{"ha":851,"x_min":0,"x_max":0,"o":"m 540 1251 l 389 1056 l 481 1056 l 675 1251 z m 436 769 b 668 968 589 769 668 835 l 565 968 b 436 843 565 876 514 843 b 307 968 360 843 307 876 l 206 968 b 436 769 206 840 278 769 z m 429 696 b 89 597 300 696 192 667 l 139 504 b 419 599 226 572 317 599 b 626 419 581 599 626 529 l 626 403 l 331 403 b 56 201 160 403 56 339 b 349 -11 56 67 164 -11 b 639 132 474 -11 582 38 l 661 0 l 771 0 l 771 422 b 429 696 771 604 656 696 z m 372 79 b 201 199 268 79 201 125 b 368 314 201 282 268 314 l 626 314 l 626 307 b 372 79 626 174 532 79 z "},"ặ":{"ha":851,"x_min":0,"x_max":0,"o":"m 436 769 b 668 968 589 769 668 835 l 565 968 b 436 843 565 876 514 843 b 307 968 360 843 307 876 l 206 968 b 436 769 206 840 278 769 z m 429 696 b 89 597 300 696 192 667 l 139 504 b 419 599 226 572 317 599 b 626 419 581 599 626 529 l 626 403 l 331 403 b 56 201 160 403 56 339 b 349 -11 56 67 164 -11 b 639 132 474 -11 582 38 l 661 0 l 771 0 l 771 422 b 429 696 771 604 656 696 z m 372 79 b 201 199 268 79 201 125 b 368 314 201 282 268 314 l 626 314 l 626 307 b 372 79 626 174 532 79 z m 518 -256 l 518 -94 l 354 -94 l 354 -256 z "},"ằ":{"ha":851,"x_min":0,"x_max":0,"o":"m 338 1251 l 206 1251 l 388 1056 l 482 1056 z m 436 769 b 668 968 589 769 668 835 l 565 968 b 436 843 565 876 514 843 b 307 968 360 843 307 876 l 206 968 b 436 769 206 840 278 769 z m 429 696 b 89 597 300 696 192 667 l 139 504 b 419 599 226 572 317 599 b 626 419 581 599 626 529 l 626 403 l 331 403 b 56 201 160 403 56 339 b 349 -11 56 67 164 -11 b 639 132 474 -11 582 38 l 661 0 l 771 0 l 771 422 b 429 696 771 604 656 696 z m 372 79 b 201 199 268 79 201 125 b 368 314 201 282 268 314 l 626 314 l 626 307 b 372 79 626 174 532 79 z "},"ẳ":{"ha":851,"x_min":0,"x_max":0,"o":"m 499 1131 b 399 1060 499 1072 446 1068 l 414 1006 b 589 1139 488 1019 589 1033 b 375 1281 589 1231 500 1281 l 354 1281 l 354 1201 l 375 1201 b 499 1131 440 1201 499 1188 z m 436 769 b 668 968 589 769 668 835 l 565 968 b 436 843 565 876 514 843 b 307 968 360 843 307 876 l 206 968 b 436 769 206 840 278 769 z m 429 696 b 89 597 300 696 192 667 l 139 504 b 419 599 226 572 317 599 b 626 419 581 599 626 529 l 626 403 l 331 403 b 56 201 160 403 56 339 b 349 -11 56 67 164 -11 b 639 132 474 -11 582 38 l 661 0 l 771 0 l 771 422 b 429 696 771 604 656 696 z m 372 79 b 201 199 268 79 201 125 b 368 314 201 282 268 314 l 626 314 l 626 307 b 372 79 626 174 532 79 z "},"ẵ":{"ha":851,"x_min":0,"x_max":0,"o":"m 342 1178 b 528 1068 407 1178 417 1068 b 661 1251 608 1068 661 1135 l 583 1251 b 529 1146 583 1185 560 1146 b 347 1256 464 1146 449 1256 b 211 1083 264 1256 211 1190 l 285 1083 b 342 1178 285 1142 306 1178 z m 436 769 b 668 968 589 769 668 835 l 565 968 b 436 843 565 876 514 843 b 307 968 360 843 307 876 l 206 968 b 436 769 206 840 278 769 z m 429 696 b 89 597 300 696 192 667 l 139 504 b 419 599 226 572 317 599 b 626 419 581 599 626 529 l 626 403 l 331 403 b 56 201 160 403 56 339 b 349 -11 56 67 164 -11 b 639 132 474 -11 582 38 l 661 0 l 771 0 l 771 422 b 429 696 771 604 656 696 z m 372 79 b 201 199 268 79 201 125 b 368 314 201 282 268 314 l 626 314 l 626 307 b 372 79 626 174 532 79 z "},"ǎ":{"ha":851,"x_min":0,"x_max":0,"o":"m 547 968 l 435 853 l 325 968 l 225 968 l 435 749 l 646 968 z m 429 696 b 89 597 300 696 192 667 l 139 504 b 419 599 226 572 317 599 b 626 419 581 599 626 529 l 626 403 l 331 403 b 56 201 160 403 56 339 b 349 -11 56 67 164 -11 b 639 132 474 -11 582 38 l 661 0 l 771 0 l 771 422 b 429 696 771 604 656 696 z m 372 79 b 201 199 268 79 201 125 b 368 314 201 282 268 314 l 626 314 l 626 307 b 372 79 626 174 532 79 z "},"â":{"ha":851,"x_min":0,"x_max":0,"o":"m 547 758 l 647 758 l 436 986 l 225 758 l 324 758 l 436 878 z m 429 696 b 89 597 300 696 192 667 l 139 504 b 419 599 226 572 317 599 b 626 419 581 599 626 529 l 626 403 l 331 403 b 56 201 160 403 56 339 b 349 -11 56 67 164 -11 b 639 132 474 -11 582 38 l 661 0 l 771 0 l 771 422 b 429 696 771 604 656 696 z m 372 79 b 201 199 268 79 201 125 b 368 314 201 282 268 314 l 626 314 l 626 307 b 372 79 626 174 532 79 z "},"ấ":{"ha":851,"x_min":0,"x_max":0,"o":"m 540 1229 l 389 1033 l 481 1033 l 675 1229 z m 547 758 l 647 758 l 436 986 l 225 758 l 324 758 l 436 878 z m 429 696 b 89 597 300 696 192 667 l 139 504 b 419 599 226 572 317 599 b 626 419 581 599 626 529 l 626 403 l 331 403 b 56 201 160 403 56 339 b 349 -11 56 67 164 -11 b 639 132 474 -11 582 38 l 661 0 l 771 0 l 771 422 b 429 696 771 604 656 696 z m 372 79 b 201 199 268 79 201 125 b 368 314 201 282 268 314 l 626 314 l 626 307 b 372 79 626 174 532 79 z "},"ậ":{"ha":851,"x_min":0,"x_max":0,"o":"m 547 758 l 647 758 l 436 986 l 225 758 l 324 758 l 436 878 z m 429 696 b 89 597 300 696 192 667 l 139 504 b 419 599 226 572 317 599 b 626 419 581 599 626 529 l 626 403 l 331 403 b 56 201 160 403 56 339 b 349 -11 56 67 164 -11 b 639 132 474 -11 582 38 l 661 0 l 771 0 l 771 422 b 429 696 771 604 656 696 z m 372 79 b 201 199 268 79 201 125 b 368 314 201 282 268 314 l 626 314 l 626 307 b 372 79 626 174 532 79 z m 518 -256 l 518 -94 l 354 -94 l 354 -256 z "},"ầ":{"ha":851,"x_min":0,"x_max":0,"o":"m 338 1229 l 206 1229 l 388 1033 l 482 1033 z m 324 758 l 436 878 l 547 758 l 647 758 l 436 986 l 225 758 z m 429 696 b 89 597 300 696 192 667 l 139 504 b 419 599 226 572 317 599 b 626 419 581 599 626 529 l 626 403 l 331 403 b 56 201 160 403 56 339 b 349 -11 56 67 164 -11 b 639 132 474 -11 582 38 l 661 0 l 771 0 l 771 422 b 429 696 771 604 656 696 z m 372 79 b 201 199 268 79 201 125 b 368 314 201 282 268 314 l 626 314 l 626 307 b 372 79 626 174 532 79 z "},"ẩ":{"ha":851,"x_min":0,"x_max":0,"o":"m 499 1108 b 399 1038 499 1050 446 1046 l 414 983 b 589 1117 488 997 589 1011 b 375 1258 589 1208 500 1258 l 354 1258 l 354 1179 l 375 1179 b 499 1108 440 1179 499 1165 z m 547 758 l 647 758 l 436 986 l 225 758 l 324 758 l 436 878 z m 429 696 b 89 597 300 696 192 667 l 139 504 b 419 599 226 572 317 599 b 626 419 581 599 626 529 l 626 403 l 331 403 b 56 201 160 403 56 339 b 349 -11 56 67 164 -11 b 639 132 474 -11 582 38 l 661 0 l 771 0 l 771 422 b 429 696 771 604 656 696 z m 372 79 b 201 199 268 79 201 125 b 368 314 201 282 268 314 l 626 314 l 626 307 b 372 79 626 174 532 79 z "},"ẫ":{"ha":851,"x_min":0,"x_max":0,"o":"m 342 1156 b 528 1046 407 1156 417 1046 b 661 1229 608 1046 661 1113 l 583 1229 b 529 1124 583 1163 560 1124 b 347 1233 464 1124 449 1233 b 211 1061 264 1233 211 1168 l 285 1061 b 342 1156 285 1119 306 1156 z m 324 758 l 436 878 l 547 758 l 647 758 l 436 986 l 225 758 z m 429 696 b 89 597 300 696 192 667 l 139 504 b 419 599 226 572 317 599 b 626 419 581 599 626 529 l 626 403 l 331 403 b 56 201 160 403 56 339 b 349 -11 56 67 164 -11 b 639 132 474 -11 582 38 l 661 0 l 771 0 l 771 422 b 429 696 771 604 656 696 z m 372 79 b 201 199 268 79 201 125 b 368 314 201 282 268 314 l 626 314 l 626 307 b 372 79 626 174 532 79 z "},"ä":{"ha":851,"x_min":0,"x_max":0,"o":"m 232 968 l 232 807 l 372 807 l 372 968 z m 499 968 l 499 807 l 639 807 l 639 968 z m 429 696 b 89 597 300 696 192 667 l 139 504 b 419 599 226 572 317 599 b 626 419 581 599 626 529 l 626 403 l 331 403 b 56 201 160 403 56 339 b 349 -11 56 67 164 -11 b 639 132 474 -11 582 38 l 661 0 l 771 0 l 771 422 b 429 696 771 604 656 696 z m 372 79 b 201 199 268 79 201 125 b 368 314 201 282 268 314 l 626 314 l 626 307 b 372 79 626 174 532 79 z "},"ạ":{"ha":851,"x_min":0,"x_max":0,"o":"m 429 696 b 89 597 300 696 192 667 l 139 504 b 419 599 226 572 317 599 b 626 419 581 599 626 529 l 626 403 l 331 403 b 56 201 160 403 56 339 b 349 -11 56 67 164 -11 b 639 132 474 -11 582 38 l 661 0 l 771 0 l 771 422 b 429 696 771 604 656 696 z m 372 79 b 201 199 268 79 201 125 b 368 314 201 282 268 314 l 626 314 l 626 307 b 372 79 626 174 532 79 z m 518 -256 l 518 -94 l 354 -94 l 354 -256 z "},"à":{"ha":851,"x_min":0,"x_max":0,"o":"m 338 968 l 206 968 l 388 772 l 482 772 z m 429 696 b 89 597 300 696 192 667 l 139 504 b 419 599 226 572 317 599 b 626 419 581 599 626 529 l 626 403 l 331 403 b 56 201 160 403 56 339 b 349 -11 56 67 164 -11 b 639 132 474 -11 582 38 l 661 0 l 771 0 l 771 422 b 429 696 771 604 656 696 z m 372 79 b 201 199 268 79 201 125 b 368 314 201 282 268 314 l 626 314 l 626 307 b 372 79 626 174 532 79 z "},"ả":{"ha":851,"x_min":0,"x_max":0,"o":"m 499 847 b 399 776 499 789 446 785 l 414 722 b 589 856 488 736 589 750 b 375 997 589 947 500 997 l 354 997 l 354 918 l 375 918 b 499 847 440 918 499 904 z m 429 696 b 89 597 300 696 192 667 l 139 504 b 419 599 226 572 317 599 b 626 419 581 599 626 529 l 626 403 l 331 403 b 56 201 160 403 56 339 b 349 -11 56 67 164 -11 b 639 132 474 -11 582 38 l 661 0 l 771 0 l 771 422 b 429 696 771 604 656 696 z m 372 79 b 201 199 268 79 201 125 b 368 314 201 282 268 314 l 626 314 l 626 307 b 372 79 626 174 532 79 z "},"ā":{"ha":851,"x_min":0,"x_max":0,"o":"m 247 888 l 247 814 l 625 814 l 625 888 z m 429 696 b 89 597 300 696 192 667 l 139 504 b 419 599 226 572 317 599 b 626 419 581 599 626 529 l 626 403 l 331 403 b 56 201 160 403 56 339 b 349 -11 56 67 164 -11 b 639 132 474 -11 582 38 l 661 0 l 771 0 l 771 422 b 429 696 771 604 656 696 z m 372 79 b 201 199 268 79 201 125 b 368 314 201 282 268 314 l 626 314 l 626 307 b 372 79 626 174 532 79 z "},"ą":{"ha":851,"x_min":0,"x_max":0,"o":"m 767 -185 b 689 -224 746 -208 719 -224 b 629 -164 657 -224 629 -207 b 772 0 629 -90 718 -28 l 771 0 l 771 422 b 429 696 771 604 656 696 b 89 597 300 696 192 667 l 139 504 b 419 599 226 572 317 599 b 626 419 581 599 626 529 l 626 403 l 331 403 b 56 201 160 403 56 339 b 349 -11 56 67 164 -11 b 639 132 474 -11 582 38 l 661 0 l 669 0 b 554 -176 617 -33 554 -93 b 692 -301 554 -253 614 -301 b 831 -231 754 -301 797 -271 z m 372 79 b 201 199 268 79 201 125 b 368 314 201 282 268 314 l 626 314 l 626 307 b 372 79 626 174 532 79 z "},"å":{"ha":851,"x_min":0,"x_max":0,"o":"m 436 742 b 579 886 515 742 579 806 b 436 1031 579 967 513 1031 b 292 886 356 1031 292 965 b 436 742 292 808 354 742 z m 436 961 b 511 888 481 961 511 931 b 436 811 511 844 479 811 b 361 888 393 811 361 843 b 436 961 361 929 390 961 z m 429 696 b 89 597 300 696 192 667 l 139 504 b 419 599 226 572 317 599 b 626 419 581 599 626 529 l 626 403 l 331 403 b 56 201 160 403 56 339 b 349 -11 56 67 164 -11 b 639 132 474 -11 582 38 l 661 0 l 771 0 l 771 422 b 429 696 771 604 656 696 z m 372 79 b 201 199 268 79 201 125 b 368 314 201 282 268 314 l 626 314 l 626 307 b 372 79 626 174 532 79 z "},"ã":{"ha":851,"x_min":0,"x_max":0,"o":"m 342 894 b 528 785 407 894 417 785 b 661 968 608 785 661 851 l 583 968 b 529 863 583 901 560 863 b 347 972 464 863 449 972 b 211 800 264 972 211 907 l 285 800 b 342 894 285 858 306 894 z m 429 696 b 89 597 300 696 192 667 l 139 504 b 419 599 226 572 317 599 b 626 419 581 599 626 529 l 626 403 l 331 403 b 56 201 160 403 56 339 b 349 -11 56 67 164 -11 b 639 132 474 -11 582 38 l 661 0 l 771 0 l 771 422 b 429 696 771 604 656 696 z m 372 79 b 201 199 268 79 201 125 b 368 314 201 282 268 314 l 626 314 l 626 307 b 372 79 626 174 532 79 z "},"æ":{"ha":1438,"x_min":0,"x_max":0,"o":"m 1379 367 b 1010 696 1379 542 1260 696 b 726 583 893 696 793 654 b 429 696 674 658 574 696 b 89 597 300 696 192 667 l 139 504 b 419 599 226 572 317 599 b 626 419 581 599 626 529 l 626 403 l 331 403 b 56 201 160 403 56 339 b 364 -11 56 67 164 -11 b 682 154 506 -11 622 46 b 1033 -11 747 50 872 -11 b 1349 72 1153 -11 1244 13 l 1297 169 b 1033 100 1219 121 1132 100 b 774 306 878 100 782 176 l 1375 306 b 1379 367 1378 326 1379 350 z m 774 394 b 1014 599 785 518 882 599 b 1243 413 1174 599 1243 503 b 1242 394 1243 407 1243 401 z m 372 79 b 201 199 268 79 201 125 b 368 314 201 282 268 314 l 626 314 l 626 307 b 372 79 626 174 532 79 z "},"b":{"ha":956,"x_min":0,"x_max":0,"o":"m 513 696 b 221 550 378 696 268 639 l 221 968 l 88 968 l 88 0 l 221 0 l 221 131 b 507 -11 282 40 386 -11 b 899 344 736 -11 899 128 b 513 696 899 557 736 696 z m 493 93 b 221 344 336 93 221 190 b 493 594 221 496 336 594 b 765 344 650 594 765 494 b 493 93 765 193 650 93 z "},"c":{"ha":871,"x_min":0,"x_max":0,"o":"m 460 -11 b 817 182 635 -11 761 58 l 696 228 b 460 100 664 147 576 100 b 188 340 281 100 188 207 b 458 585 188 474 278 585 b 701 457 575 585 660 535 l 825 504 b 458 696 754 628 639 696 b 54 340 196 696 54 536 b 460 -11 54 133 210 -11 z "},"ć":{"ha":871,"x_min":0,"x_max":0,"o":"m 454 772 l 649 968 l 514 968 l 363 772 z m 460 -11 b 817 182 635 -11 761 58 l 696 228 b 460 100 664 147 576 100 b 188 340 281 100 188 207 b 458 585 188 474 278 585 b 701 457 575 585 660 535 l 825 504 b 458 696 754 628 639 696 b 54 340 196 696 54 536 b 460 -11 54 133 210 -11 z "},"č":{"ha":871,"x_min":0,"x_max":0,"o":"m 619 968 l 521 968 l 408 853 l 299 968 l 199 968 l 408 749 z m 460 -11 b 817 182 635 -11 761 58 l 696 228 b 460 100 664 147 576 100 b 188 340 281 100 188 207 b 458 585 188 474 278 585 b 701 457 575 585 660 535 l 825 504 b 458 696 754 628 639 696 b 54 340 196 696 54 536 b 460 -11 54 133 210 -11 z "},"ç":{"ha":871,"x_min":0,"x_max":0,"o":"m 460 100 b 188 340 281 100 188 207 b 458 585 188 474 278 585 b 701 457 575 585 660 535 l 825 504 b 458 696 754 628 639 696 b 54 340 196 696 54 536 b 367 -4 54 160 172 28 l 292 -132 b 403 -143 332 -132 369 -133 b 465 -215 439 -154 465 -175 b 390 -283 465 -260 436 -283 b 311 -240 358 -283 329 -265 l 269 -300 b 388 -357 303 -339 351 -357 b 539 -210 481 -357 539 -296 b 478 -106 539 -162 518 -128 b 390 -81 454 -93 425 -85 l 439 -11 l 460 -11 b 817 182 635 -11 761 58 l 696 228 b 460 100 664 147 576 100 z "},"ċ":{"ha":871,"x_min":0,"x_max":0,"o":"m 494 807 l 494 968 l 324 968 l 324 807 z m 460 -11 b 817 182 635 -11 761 58 l 696 228 b 460 100 664 147 576 100 b 188 340 281 100 188 207 b 458 585 188 474 278 585 b 701 457 575 585 660 535 l 825 504 b 458 696 754 628 639 696 b 54 340 196 696 54 536 b 460 -11 54 133 210 -11 z "},"d":{"ha":956,"x_min":0,"x_max":0,"o":"m 732 551 b 442 696 683 639 575 696 b 56 344 217 696 56 557 b 447 -11 56 128 218 -11 b 732 128 567 -11 671 39 l 732 0 l 865 0 l 865 968 l 732 968 z m 461 93 b 189 344 304 93 189 193 b 461 594 189 494 304 594 b 732 344 618 594 732 496 b 461 93 732 190 618 93 z "},"ð":{"ha":1024,"x_min":0,"x_max":0,"o":"m 953 938 l 760 892 b 310 1010 665 960 522 1000 l 299 928 b 631 861 442 925 550 903 l 388 804 l 404 754 l 689 822 b 794 561 761 763 794 675 b 526 694 739 640 651 694 b 56 301 261 694 56 535 b 429 -8 56 122 200 -8 b 917 515 750 -8 917 215 b 808 851 917 656 888 768 l 967 889 z m 765 344 b 443 89 747 207 649 89 b 190 308 276 89 190 181 b 524 603 190 475 315 603 b 765 344 708 603 781 461 z "},"ď":{"ha":1024,"x_min":0,"x_max":0,"o":"m 732 551 b 442 696 683 639 575 696 b 56 344 217 696 56 557 b 447 -11 56 128 218 -11 b 732 128 567 -11 671 39 l 732 0 l 865 0 l 865 968 l 732 968 z m 940 669 l 1015 669 l 1150 968 l 1019 968 z m 461 93 b 189 344 304 93 189 193 b 461 594 189 494 304 594 b 732 344 618 594 732 496 b 461 93 732 190 618 93 z "},"đ":{"ha":956,"x_min":0,"x_max":0,"o":"m 865 872 l 865 968 l 732 968 l 732 872 l 574 872 l 574 788 l 732 788 l 732 551 b 442 696 683 639 575 696 b 56 344 217 696 56 557 b 447 -11 56 128 218 -11 b 732 128 567 -11 671 39 l 732 0 l 865 0 l 865 788 l 1026 788 l 1026 872 z m 461 93 b 189 344 304 93 189 193 b 461 594 189 494 304 594 b 732 344 618 594 732 496 b 461 93 732 190 618 93 z "},"e":{"ha":860,"x_min":0,"x_max":0,"o":"m 801 367 b 432 696 801 542 682 696 b 54 339 211 696 54 549 b 456 -11 54 128 214 -11 b 771 72 575 -11 667 13 l 719 169 b 456 100 642 121 554 100 b 196 306 300 100 204 176 l 797 306 b 801 367 800 326 801 350 z m 196 394 b 436 588 207 510 304 588 b 665 411 596 588 665 496 b 664 394 665 407 665 401 z "},"é":{"ha":860,"x_min":0,"x_max":0,"o":"m 539 968 l 388 772 l 479 772 l 674 968 z m 801 367 b 432 696 801 542 682 696 b 54 339 211 696 54 549 b 456 -11 54 128 214 -11 b 771 72 575 -11 667 13 l 719 169 b 456 100 642 121 554 100 b 196 306 300 100 204 176 l 797 306 b 801 367 800 326 801 350 z m 196 394 b 436 588 207 510 304 588 b 665 411 596 588 665 496 b 664 394 665 407 665 401 z "},"ě":{"ha":860,"x_min":0,"x_max":0,"o":"m 544 968 l 432 853 l 322 968 l 222 968 l 432 749 l 643 968 z m 801 367 b 432 696 801 542 682 696 b 54 339 211 696 54 549 b 456 -11 54 128 214 -11 b 771 72 575 -11 667 13 l 719 169 b 456 100 642 121 554 100 b 196 306 300 100 204 176 l 797 306 b 801 367 800 326 801 350 z m 196 394 b 436 588 207 510 304 588 b 665 411 596 588 665 496 b 664 394 665 407 665 401 z "},"ê":{"ha":860,"x_min":0,"x_max":0,"o":"m 544 758 l 644 758 l 433 986 l 222 758 l 321 758 l 433 878 z m 801 367 b 432 696 801 542 682 696 b 54 339 211 696 54 549 b 456 -11 54 128 214 -11 b 771 72 575 -11 667 13 l 719 169 b 456 100 642 121 554 100 b 196 306 300 100 204 176 l 797 306 b 801 367 800 326 801 350 z m 196 394 b 436 588 207 510 304 588 b 665 411 596 588 665 496 b 664 394 665 407 665 401 z "},"ế":{"ha":860,"x_min":0,"x_max":0,"o":"m 539 1229 l 388 1033 l 479 1033 l 674 1229 z m 544 758 l 644 758 l 433 986 l 222 758 l 321 758 l 433 878 z m 801 367 b 432 696 801 542 682 696 b 54 339 211 696 54 549 b 456 -11 54 128 214 -11 b 771 72 575 -11 667 13 l 719 169 b 456 100 642 121 554 100 b 196 306 300 100 204 176 l 797 306 b 801 367 800 326 801 350 z m 196 394 b 436 588 207 510 304 588 b 665 411 596 588 665 496 b 664 394 665 407 665 401 z "},"ệ":{"ha":860,"x_min":0,"x_max":0,"o":"m 544 758 l 644 758 l 433 986 l 222 758 l 321 758 l 433 878 z m 801 367 b 432 696 801 542 682 696 b 54 339 211 696 54 549 b 456 -11 54 128 214 -11 b 771 72 575 -11 667 13 l 719 169 b 456 100 642 121 554 100 b 196 306 300 100 204 176 l 797 306 b 801 367 800 326 801 350 z m 196 394 b 436 588 207 510 304 588 b 665 411 596 588 665 496 b 664 394 665 407 665 401 z m 528 -256 l 528 -94 l 364 -94 l 364 -256 z "},"ề":{"ha":860,"x_min":0,"x_max":0,"o":"m 335 1229 l 203 1229 l 385 1033 l 479 1033 z m 321 758 l 433 878 l 544 758 l 644 758 l 433 986 l 222 758 z m 801 367 b 432 696 801 542 682 696 b 54 339 211 696 54 549 b 456 -11 54 128 214 -11 b 771 72 575 -11 667 13 l 719 169 b 456 100 642 121 554 100 b 196 306 300 100 204 176 l 797 306 b 801 367 800 326 801 350 z m 196 394 b 436 588 207 510 304 588 b 665 411 596 588 665 496 b 664 394 665 407 665 401 z "},"ể":{"ha":860,"x_min":0,"x_max":0,"o":"m 496 1108 b 396 1038 496 1050 443 1046 l 411 983 b 586 1117 485 997 586 1011 b 372 1258 586 1208 497 1258 l 351 1258 l 351 1179 l 372 1179 b 496 1108 438 1179 496 1165 z m 544 758 l 644 758 l 433 986 l 222 758 l 321 758 l 433 878 z m 801 367 b 432 696 801 542 682 696 b 54 339 211 696 54 549 b 456 -11 54 128 214 -11 b 771 72 575 -11 667 13 l 719 169 b 456 100 642 121 554 100 b 196 306 300 100 204 176 l 797 306 b 801 367 800 326 801 350 z m 196 394 b 436 588 207 510 304 588 b 665 411 596 588 665 496 b 664 394 665 407 665 401 z "},"ễ":{"ha":860,"x_min":0,"x_max":0,"o":"m 339 1156 b 525 1046 404 1156 414 1046 b 658 1229 606 1046 658 1113 l 581 1229 b 526 1124 581 1163 557 1124 b 344 1233 461 1124 446 1233 b 208 1061 261 1233 208 1168 l 282 1061 b 339 1156 282 1119 303 1156 z m 321 758 l 433 878 l 544 758 l 644 758 l 433 986 l 222 758 z m 801 367 b 432 696 801 542 682 696 b 54 339 211 696 54 549 b 456 -11 54 128 214 -11 b 771 72 575 -11 667 13 l 719 169 b 456 100 642 121 554 100 b 196 306 300 100 204 176 l 797 306 b 801 367 800 326 801 350 z m 196 394 b 436 588 207 510 304 588 b 665 411 596 588 665 496 b 664 394 665 407 665 401 z "},"ë":{"ha":860,"x_min":0,"x_max":0,"o":"m 229 968 l 229 807 l 369 807 l 369 968 z m 496 968 l 496 807 l 636 807 l 636 968 z m 801 367 b 432 696 801 542 682 696 b 54 339 211 696 54 549 b 456 -11 54 128 214 -11 b 771 72 575 -11 667 13 l 719 169 b 456 100 642 121 554 100 b 196 306 300 100 204 176 l 797 306 b 801 367 800 326 801 350 z m 196 394 b 436 588 207 510 304 588 b 665 411 596 588 665 496 b 664 394 665 407 665 401 z "},"ė":{"ha":860,"x_min":0,"x_max":0,"o":"m 349 968 l 349 807 l 519 807 l 519 968 z m 801 367 b 432 696 801 542 682 696 b 54 339 211 696 54 549 b 456 -11 54 128 214 -11 b 771 72 575 -11 667 13 l 719 169 b 456 100 642 121 554 100 b 196 306 300 100 204 176 l 797 306 b 801 367 800 326 801 350 z m 196 394 b 436 588 207 510 304 588 b 665 411 596 588 665 496 b 664 394 665 407 665 401 z "},"ẹ":{"ha":860,"x_min":0,"x_max":0,"o":"m 801 367 b 432 696 801 542 682 696 b 54 339 211 696 54 549 b 456 -11 54 128 214 -11 b 771 72 575 -11 667 13 l 719 169 b 456 100 642 121 554 100 b 196 306 300 100 204 176 l 797 306 b 801 367 800 326 801 350 z m 196 394 b 436 588 207 510 304 588 b 665 411 596 588 665 496 b 664 394 665 407 665 401 z m 528 -256 l 528 -94 l 364 -94 l 364 -256 z "},"è":{"ha":860,"x_min":0,"x_max":0,"o":"m 335 968 l 203 968 l 385 772 l 479 772 z m 801 367 b 432 696 801 542 682 696 b 54 339 211 696 54 549 b 456 -11 54 128 214 -11 b 771 72 575 -11 667 13 l 719 169 b 456 100 642 121 554 100 b 196 306 300 100 204 176 l 797 306 b 801 367 800 326 801 350 z m 196 394 b 436 588 207 510 304 588 b 665 411 596 588 665 496 b 664 394 665 407 665 401 z "},"ẻ":{"ha":860,"x_min":0,"x_max":0,"o":"m 496 847 b 396 776 496 789 443 785 l 411 722 b 586 856 485 736 586 750 b 372 997 586 947 497 997 l 351 997 l 351 918 l 372 918 b 496 847 438 918 496 904 z m 801 367 b 432 696 801 542 682 696 b 54 339 211 696 54 549 b 456 -11 54 128 214 -11 b 771 72 575 -11 667 13 l 719 169 b 456 100 642 121 554 100 b 196 306 300 100 204 176 l 797 306 b 801 367 800 326 801 350 z m 196 394 b 436 588 207 510 304 588 b 665 411 596 588 665 496 b 664 394 665 407 665 401 z "},"ē":{"ha":860,"x_min":0,"x_max":0,"o":"m 244 888 l 244 814 l 622 814 l 622 888 z m 801 367 b 432 696 801 542 682 696 b 54 339 211 696 54 549 b 456 -11 54 128 214 -11 b 771 72 575 -11 667 13 l 719 169 b 456 100 642 121 554 100 b 196 306 300 100 204 176 l 797 306 b 801 367 800 326 801 350 z m 196 394 b 436 588 207 510 304 588 b 665 411 596 588 665 496 b 664 394 665 407 665 401 z "},"ę":{"ha":860,"x_min":0,"x_max":0,"o":"m 801 367 b 432 696 801 542 682 696 b 54 339 211 696 54 549 b 456 -11 54 128 214 -11 l 463 -11 b 364 -176 414 -46 364 -101 b 501 -301 364 -253 424 -301 b 640 -231 564 -301 607 -271 l 576 -185 b 499 -224 556 -208 529 -224 b 439 -164 467 -224 439 -207 b 582 0 439 -90 528 -28 b 771 72 646 13 706 35 l 719 169 b 456 100 642 121 554 100 b 196 306 300 100 204 176 l 797 306 b 801 367 800 326 801 350 z m 196 394 b 436 588 207 510 304 588 b 665 411 596 588 665 496 b 664 394 665 407 665 401 z "},"ẽ":{"ha":860,"x_min":0,"x_max":0,"o":"m 339 894 b 525 785 404 894 414 785 b 658 968 606 785 658 851 l 581 968 b 526 863 581 901 557 863 b 344 972 461 863 446 972 b 208 800 261 972 208 907 l 282 800 b 339 894 282 858 303 894 z m 801 367 b 432 696 801 542 682 696 b 54 339 211 696 54 549 b 456 -11 54 128 214 -11 b 771 72 575 -11 667 13 l 719 169 b 456 100 642 121 554 100 b 196 306 300 100 204 176 l 797 306 b 801 367 800 326 801 350 z m 196 394 b 436 588 207 510 304 588 b 665 411 596 588 665 496 b 664 394 665 407 665 401 z "},"f":{"ha":601,"x_min":0,"x_max":0,"o":"m 340 0 l 340 590 l 572 590 l 572 685 l 340 685 l 340 763 b 451 879 340 842 381 879 b 542 860 476 879 510 874 l 585 953 b 438 979 536 971 493 979 b 207 767 268 979 207 893 l 207 685 l 33 685 l 33 590 l 207 590 l 207 0 z "},"g":{"ha":824,"x_min":0,"x_max":0,"o":"m 469 78 b 171 183 249 99 171 118 b 219 250 171 210 188 233 b 407 213 271 225 336 213 b 725 449 597 213 725 301 b 685 575 725 496 711 539 l 783 646 l 725 731 l 610 644 b 403 696 554 678 483 696 b 79 451 218 696 79 599 b 146 299 79 389 103 338 b 63 165 89 263 63 218 b 164 33 63 103 99 61 l 44 -53 b 40 -90 44 -58 40 -79 b 424 -303 40 -222 194 -303 b 783 -99 644 -303 783 -229 b 469 78 783 25 647 60 z m 404 603 b 593 454 517 603 593 549 b 404 306 593 360 515 306 b 214 454 290 306 214 361 b 404 603 214 547 293 603 z m 428 -212 b 169 -90 288 -212 169 -174 b 171 -75 169 -86 169 -81 l 250 7 b 367 -11 285 0 324 -7 b 650 -115 542 -32 650 -43 b 428 -212 650 -181 568 -212 z "},"ğ":{"ha":824,"x_min":0,"x_max":0,"o":"m 403 769 b 635 968 556 769 635 835 l 532 968 b 403 843 532 876 481 843 b 274 968 326 843 274 876 l 172 968 b 403 769 172 840 244 769 z m 469 78 b 171 183 249 99 171 118 b 219 250 171 210 188 233 b 407 213 271 225 336 213 b 725 449 597 213 725 301 b 685 575 725 496 711 539 l 783 646 l 725 731 l 610 644 b 403 696 554 678 483 696 b 79 451 218 696 79 599 b 146 299 79 389 103 338 b 63 165 89 263 63 218 b 164 33 63 103 99 61 l 44 -53 b 40 -90 44 -58 40 -79 b 424 -303 40 -222 194 -303 b 783 -99 644 -303 783 -229 b 469 78 783 25 647 60 z m 404 603 b 593 454 517 603 593 549 b 404 306 593 360 515 306 b 214 454 290 306 214 361 b 404 603 214 547 293 603 z m 428 -212 b 169 -90 288 -212 169 -174 b 171 -75 169 -86 169 -81 l 250 7 b 367 -11 285 0 324 -7 b 650 -115 542 -32 650 -43 b 428 -212 650 -181 568 -212 z "},"ģ":{"ha":824,"x_min":0,"x_max":0,"o":"m 449 978 l 283 768 l 413 768 l 525 978 z m 469 78 b 171 183 249 99 171 118 b 219 250 171 210 188 233 b 407 213 271 225 336 213 b 725 449 597 213 725 301 b 685 575 725 496 711 539 l 783 646 l 725 731 l 610 644 b 403 696 554 678 483 696 b 79 451 218 696 79 599 b 146 299 79 389 103 338 b 63 165 89 263 63 218 b 164 33 63 103 99 61 l 44 -53 b 40 -90 44 -58 40 -79 b 424 -303 40 -222 194 -303 b 783 -99 644 -303 783 -229 b 469 78 783 25 647 60 z m 404 603 b 593 454 517 603 593 549 b 404 306 593 360 515 306 b 214 454 290 306 214 361 b 404 603 214 547 293 603 z m 428 -212 b 169 -90 288 -212 169 -174 b 171 -75 169 -86 169 -81 l 250 7 b 367 -11 285 0 324 -7 b 650 -115 542 -32 650 -43 b 428 -212 650 -181 568 -212 z "},"ġ":{"ha":824,"x_min":0,"x_max":0,"o":"m 318 968 l 318 807 l 489 807 l 489 968 z m 469 78 b 171 183 249 99 171 118 b 219 250 171 210 188 233 b 407 213 271 225 336 213 b 725 449 597 213 725 301 b 685 575 725 496 711 539 l 783 646 l 725 731 l 610 644 b 403 696 554 678 483 696 b 79 451 218 696 79 599 b 146 299 79 389 103 338 b 63 165 89 263 63 218 b 164 33 63 103 99 61 l 44 -53 b 40 -90 44 -58 40 -79 b 424 -303 40 -222 194 -303 b 783 -99 644 -303 783 -229 b 469 78 783 25 647 60 z m 404 603 b 593 454 517 603 593 549 b 404 306 593 360 515 306 b 214 454 290 306 214 361 b 404 603 214 547 293 603 z m 428 -212 b 169 -90 288 -212 169 -174 b 171 -75 169 -86 169 -81 l 250 7 b 367 -11 285 0 324 -7 b 650 -115 542 -32 650 -43 b 428 -212 650 -181 568 -212 z "},"h":{"ha":854,"x_min":0,"x_max":0,"o":"m 482 696 b 222 557 360 696 269 647 l 222 968 l 88 968 l 88 0 l 222 0 l 222 340 b 447 592 222 511 307 592 b 639 383 572 592 639 525 l 639 0 l 774 0 l 774 435 b 482 696 774 607 660 696 z "},"ħ":{"ha":854,"x_min":0,"x_max":0,"o":"m 482 696 b 222 557 360 696 269 647 l 222 789 l 465 789 l 465 874 l 222 874 l 222 968 l 88 968 l 88 874 l 13 874 l 13 789 l 88 789 l 88 0 l 222 0 l 222 340 b 447 592 222 511 307 592 b 639 383 572 592 639 525 l 639 0 l 774 0 l 774 435 b 482 696 774 607 660 696 z "},"i":{"ha":313,"x_min":0,"x_max":0,"o":"m 242 807 l 242 968 l 71 968 l 71 807 z m 224 0 l 224 685 l 88 685 l 88 0 z "},"ı":{"ha":313,"x_min":0,"x_max":0,"o":"m 224 0 l 224 685 l 88 685 l 88 0 z "},"í":{"ha":313,"x_min":0,"x_max":0,"o":"m 201 772 l 396 968 l 261 968 l 110 772 z m 224 0 l 224 685 l 88 685 l 88 0 z "},"ǐ":{"ha":313,"x_min":0,"x_max":0,"o":"m 367 968 l 268 968 l 156 853 l 46 968 l -54 968 l 156 749 z m 224 0 l 224 685 l 88 685 l 88 0 z "},"î":{"ha":313,"x_min":0,"x_max":0,"o":"m 44 758 l 157 878 l 268 758 l 368 758 l 157 986 l -54 758 z m 224 0 l 224 685 l 88 685 l 88 0 z "},"ï":{"ha":313,"x_min":0,"x_max":0,"o":"m 93 807 l 93 968 l -47 968 l -47 807 z m 360 807 l 360 968 l 219 968 l 219 807 z m 224 0 l 224 685 l 88 685 l 88 0 z "},"ị":{"ha":313,"x_min":0,"x_max":0,"o":"m 242 807 l 242 968 l 71 968 l 71 807 z m 224 0 l 224 685 l 88 685 l 88 0 z m 239 -256 l 239 -94 l 75 -94 l 75 -256 z "},"ì":{"ha":313,"x_min":0,"x_max":0,"o":"m 203 772 l 58 968 l -74 968 l 108 772 z m 224 0 l 224 685 l 88 685 l 88 0 z "},"ỉ":{"ha":313,"x_min":0,"x_max":0,"o":"m 133 722 b 308 856 207 736 308 750 b 94 997 308 947 219 997 l 74 997 l 74 918 l 94 918 b 218 847 160 918 218 904 b 118 776 218 789 165 785 z m 224 0 l 224 685 l 88 685 l 88 0 z "},"ī":{"ha":313,"x_min":0,"x_max":0,"o":"m 344 814 l 344 888 l -33 888 l -33 814 z m 224 0 l 224 685 l 88 685 l 88 0 z "},"į":{"ha":313,"x_min":0,"x_max":0,"o":"m 71 968 l 71 807 l 242 807 l 242 968 z m 218 -185 b 140 -224 197 -208 171 -224 b 81 -164 108 -224 81 -207 b 224 0 81 -90 169 -28 l 224 685 l 88 685 l 88 0 l 121 0 b 6 -176 68 -33 6 -93 b 143 -301 6 -253 65 -301 b 282 -231 206 -301 249 -271 z "},"ĩ":{"ha":313,"x_min":0,"x_max":0,"o":"m 247 785 b 381 968 328 785 381 851 l 303 968 b 249 863 303 901 279 863 b 67 972 183 863 168 972 b -69 800 -17 972 -69 907 l 4 800 b 61 894 4 858 25 894 b 247 785 126 894 136 785 z m 224 0 l 224 685 l 88 685 l 88 0 z "},"j":{"ha":324,"x_min":0,"x_max":0,"o":"m 253 807 l 253 968 l 82 968 l 82 807 z m 81 -294 b 235 -129 186 -294 235 -236 l 235 685 l 100 685 l 100 -97 b 33 -183 100 -156 78 -183 b -33 -172 15 -183 -8 -179 l -35 -276 b 81 -294 1 -287 44 -294 z "},"ȷ":{"ha":324,"x_min":0,"x_max":0,"o":"m 81 -294 b 235 -129 186 -294 235 -236 l 235 685 l 100 685 l 100 -97 b 33 -183 100 -156 78 -183 b -33 -172 15 -183 -8 -179 l -35 -276 b 81 -294 1 -287 44 -294 z "},"k":{"ha":872,"x_min":0,"x_max":0,"o":"m 222 0 l 222 204 l 392 351 l 679 0 l 844 0 l 488 425 l 800 685 l 613 685 l 222 338 l 222 968 l 88 968 l 88 0 z "},"ķ":{"ha":872,"x_min":0,"x_max":0,"o":"m 222 0 l 222 204 l 392 351 l 679 0 l 844 0 l 488 425 l 800 685 l 613 685 l 222 338 l 222 968 l 88 968 l 88 0 z m 354 -310 l 521 -75 l 389 -75 l 279 -310 z "},"ĸ":{"ha":872,"x_min":0,"x_max":0,"o":"m 222 0 l 222 204 l 392 351 l 679 0 l 844 0 l 488 425 l 800 685 l 613 685 l 222 338 l 222 685 l 88 685 l 88 0 z "},"l":{"ha":404,"x_min":0,"x_max":0,"o":"m 244 -11 b 367 7 283 -11 329 -4 l 365 111 b 292 100 338 104 313 100 b 218 186 239 100 218 132 l 218 968 l 83 968 l 83 154 b 244 -11 83 51 132 -11 z "},"ĺ":{"ha":404,"x_min":0,"x_max":0,"o":"m 193 1056 l 388 1251 l 253 1251 l 101 1056 z m 244 -11 b 367 7 283 -11 329 -4 l 365 111 b 292 100 338 104 313 100 b 218 186 239 100 218 132 l 218 968 l 83 968 l 83 154 b 244 -11 83 51 132 -11 z "},"ľ":{"ha":426,"x_min":0,"x_max":0,"o":"m 244 -11 b 367 7 283 -11 329 -4 l 365 111 b 292 100 338 104 313 100 b 218 186 239 100 218 132 l 218 968 l 83 968 l 83 154 b 244 -11 83 51 132 -11 z m 399 669 l 533 968 l 403 968 l 324 669 z "},"ļ":{"ha":404,"x_min":0,"x_max":0,"o":"m 244 -11 b 367 7 283 -11 329 -4 l 365 111 b 292 100 338 104 313 100 b 218 186 239 100 218 132 l 218 968 l 83 968 l 83 154 b 244 -11 83 51 132 -11 z m 89 -310 l 256 -75 l 124 -75 l 14 -310 z "},"ł":{"ha":404,"x_min":0,"x_max":0,"o":"m 365 111 b 292 100 338 104 313 100 b 218 186 239 100 218 132 l 218 501 l 329 590 l 329 717 l 218 629 l 218 968 l 83 968 l 83 522 l 1 457 l 1 328 l 83 393 l 83 154 b 244 -11 83 51 132 -11 b 367 7 283 -11 329 -4 z "},"m":{"ha":1332,"x_min":0,"x_max":0,"o":"m 975 696 b 706 538 867 696 764 658 b 457 696 664 654 571 696 b 215 561 358 696 264 660 l 215 685 l 88 685 l 88 0 l 222 0 l 222 360 b 425 592 222 474 268 592 b 603 393 539 592 603 525 l 603 0 l 736 0 l 736 360 b 936 592 736 476 779 592 b 1117 382 1072 592 1117 499 l 1117 0 l 1253 0 l 1253 418 b 975 696 1253 554 1179 696 z "},"n":{"ha":854,"x_min":0,"x_max":0,"o":"m 482 696 b 222 557 360 696 269 647 l 222 685 l 88 685 l 88 0 l 222 0 l 222 340 b 447 592 222 511 307 592 b 639 383 572 592 639 525 l 639 0 l 774 0 l 774 435 b 482 696 774 607 660 696 z "},"ń":{"ha":854,"x_min":0,"x_max":0,"o":"m 524 968 l 372 772 l 464 772 l 658 968 z m 482 696 b 222 557 360 696 269 647 l 222 685 l 88 685 l 88 0 l 222 0 l 222 340 b 447 592 222 511 307 592 b 639 383 572 592 639 525 l 639 0 l 774 0 l 774 435 b 482 696 774 607 660 696 z "},"ŉ":{"ha":1033,"x_min":0,"x_max":0,"o":"m 26 576 l 107 576 l 289 968 l 150 968 z m 663 696 b 401 557 539 696 449 647 l 401 685 l 268 685 l 268 0 l 401 0 l 401 340 b 626 592 401 511 486 592 b 819 383 753 592 819 525 l 819 0 l 953 0 l 953 435 b 663 696 953 607 840 696 z "},"ň":{"ha":854,"x_min":0,"x_max":0,"o":"m 529 968 l 417 853 l 307 968 l 207 968 l 417 749 l 628 968 z m 482 696 b 222 557 360 696 269 647 l 222 685 l 88 685 l 88 0 l 222 0 l 222 340 b 447 592 222 511 307 592 b 639 383 572 592 639 525 l 639 0 l 774 0 l 774 435 b 482 696 774 607 660 696 z "},"ņ":{"ha":854,"x_min":0,"x_max":0,"o":"m 482 696 b 222 557 360 696 269 647 l 222 685 l 88 685 l 88 0 l 222 0 l 222 340 b 447 592 222 511 307 592 b 639 383 572 592 639 525 l 639 0 l 774 0 l 774 435 b 482 696 774 607 660 696 z m 317 -310 l 483 -75 l 351 -75 l 242 -310 z "},"ŋ":{"ha":854,"x_min":0,"x_max":0,"o":"m 483 696 b 224 579 361 696 275 657 l 224 685 l 88 685 l 88 0 l 224 0 l 224 376 b 440 592 224 506 303 592 b 639 408 576 592 639 525 l 639 -106 b 565 -192 639 -154 624 -192 b 490 -179 543 -192 517 -186 l 488 -276 b 608 -294 536 -289 574 -294 b 774 -131 719 -294 774 -233 l 774 456 b 483 696 774 608 664 696 z "},"ñ":{"ha":854,"x_min":0,"x_max":0,"o":"m 324 894 b 510 785 389 894 399 785 b 643 968 590 785 643 851 l 565 968 b 511 863 565 901 542 863 b 329 972 446 863 431 972 b 193 800 246 972 193 907 l 267 800 b 324 894 267 858 288 894 z m 482 696 b 222 557 360 696 269 647 l 222 685 l 88 685 l 88 0 l 222 0 l 222 340 b 447 592 222 511 307 592 b 639 383 572 592 639 525 l 639 0 l 774 0 l 774 435 b 482 696 774 607 660 696 z "},"o":{"ha":919,"x_min":0,"x_max":0,"o":"m 458 -11 b 864 343 696 -11 864 129 b 458 696 864 558 699 696 b 54 343 219 696 54 557 b 458 -11 54 128 222 -11 z m 458 100 b 188 343 300 100 188 194 b 458 585 188 492 299 585 b 732 343 618 585 732 492 b 458 100 732 194 618 100 z "},"ó":{"ha":919,"x_min":0,"x_max":0,"o":"m 504 772 l 699 968 l 564 968 l 413 772 z m 458 -11 b 864 343 696 -11 864 129 b 458 696 864 558 699 696 b 54 343 219 696 54 557 b 458 -11 54 128 222 -11 z m 458 100 b 188 343 300 100 188 194 b 458 585 188 492 299 585 b 732 343 618 585 732 492 b 458 100 732 194 618 100 z "},"ǒ":{"ha":919,"x_min":0,"x_max":0,"o":"m 669 968 l 571 968 l 458 853 l 349 968 l 249 968 l 458 749 z m 458 -11 b 864 343 696 -11 864 129 b 458 696 864 558 699 696 b 54 343 219 696 54 557 b 458 -11 54 128 222 -11 z m 458 100 b 188 343 300 100 188 194 b 458 585 188 492 299 585 b 732 343 618 585 732 492 b 458 100 732 194 618 100 z "},"ô":{"ha":919,"x_min":0,"x_max":0,"o":"m 347 758 l 460 878 l 571 758 l 671 758 l 460 986 l 249 758 z m 458 -11 b 864 343 696 -11 864 129 b 458 696 864 558 699 696 b 54 343 219 696 54 557 b 458 -11 54 128 222 -11 z m 458 100 b 188 343 300 100 188 194 b 458 585 188 492 299 585 b 732 343 618 585 732 492 b 458 100 732 194 618 100 z "},"ố":{"ha":919,"x_min":0,"x_max":0,"o":"m 504 1033 l 699 1229 l 564 1229 l 413 1033 z m 347 758 l 460 878 l 571 758 l 671 758 l 460 986 l 249 758 z m 458 -11 b 864 343 696 -11 864 129 b 458 696 864 558 699 696 b 54 343 219 696 54 557 b 458 -11 54 128 222 -11 z m 458 100 b 188 343 300 100 188 194 b 458 585 188 492 299 585 b 732 343 618 585 732 492 b 458 100 732 194 618 100 z "},"ộ":{"ha":919,"x_min":0,"x_max":0,"o":"m 347 758 l 460 878 l 571 758 l 671 758 l 460 986 l 249 758 z m 458 -11 b 864 343 696 -11 864 129 b 458 696 864 558 699 696 b 54 343 219 696 54 557 b 458 -11 54 128 222 -11 z m 458 100 b 188 343 300 100 188 194 b 458 585 188 492 299 585 b 732 343 618 585 732 492 b 458 100 732 194 618 100 z m 542 -256 l 542 -94 l 378 -94 l 378 -256 z "},"ồ":{"ha":919,"x_min":0,"x_max":0,"o":"m 506 1033 l 361 1229 l 229 1229 l 411 1033 z m 347 758 l 460 878 l 571 758 l 671 758 l 460 986 l 249 758 z m 458 -11 b 864 343 696 -11 864 129 b 458 696 864 558 699 696 b 54 343 219 696 54 557 b 458 -11 54 128 222 -11 z m 458 100 b 188 343 300 100 188 194 b 458 585 188 492 299 585 b 732 343 618 585 732 492 b 458 100 732 194 618 100 z "},"ổ":{"ha":919,"x_min":0,"x_max":0,"o":"m 438 983 b 613 1117 511 997 613 1011 b 399 1258 613 1208 524 1258 l 378 1258 l 378 1179 l 399 1179 b 522 1108 464 1179 522 1165 b 422 1038 522 1050 469 1046 z m 347 758 l 460 878 l 571 758 l 671 758 l 460 986 l 249 758 z m 458 -11 b 864 343 696 -11 864 129 b 458 696 864 558 699 696 b 54 343 219 696 54 557 b 458 -11 54 128 222 -11 z m 458 100 b 188 343 300 100 188 194 b 458 585 188 492 299 585 b 732 343 618 585 732 492 b 458 100 732 194 618 100 z "},"ỗ":{"ha":919,"x_min":0,"x_max":0,"o":"m 551 1046 b 685 1229 632 1046 685 1113 l 607 1229 b 553 1124 607 1163 583 1124 b 371 1233 488 1124 472 1233 b 235 1061 288 1233 235 1168 l 308 1061 b 365 1156 308 1119 329 1156 b 551 1046 431 1156 440 1046 z m 347 758 l 460 878 l 571 758 l 671 758 l 460 986 l 249 758 z m 458 -11 b 864 343 696 -11 864 129 b 458 696 864 558 699 696 b 54 343 219 696 54 557 b 458 -11 54 128 222 -11 z m 458 100 b 188 343 300 100 188 194 b 458 585 188 492 299 585 b 732 343 618 585 732 492 b 458 100 732 194 618 100 z "},"ö":{"ha":919,"x_min":0,"x_max":0,"o":"m 396 807 l 396 968 l 256 968 l 256 807 z m 663 807 l 663 968 l 522 968 l 522 807 z m 458 -11 b 864 343 696 -11 864 129 b 458 696 864 558 699 696 b 54 343 219 696 54 557 b 458 -11 54 128 222 -11 z m 458 100 b 188 343 300 100 188 194 b 458 585 188 492 299 585 b 732 343 618 585 732 492 b 458 100 732 194 618 100 z "},"ọ":{"ha":919,"x_min":0,"x_max":0,"o":"m 458 -11 b 864 343 696 -11 864 129 b 458 696 864 558 699 696 b 54 343 219 696 54 557 b 458 -11 54 128 222 -11 z m 458 100 b 188 343 300 100 188 194 b 458 585 188 492 299 585 b 732 343 618 585 732 492 b 458 100 732 194 618 100 z m 542 -256 l 542 -94 l 378 -94 l 378 -256 z "},"ò":{"ha":919,"x_min":0,"x_max":0,"o":"m 506 772 l 361 968 l 229 968 l 411 772 z m 458 -11 b 864 343 696 -11 864 129 b 458 696 864 558 699 696 b 54 343 219 696 54 557 b 458 -11 54 128 222 -11 z m 458 100 b 188 343 300 100 188 194 b 458 585 188 492 299 585 b 732 343 618 585 732 492 b 458 100 732 194 618 100 z "},"ỏ":{"ha":919,"x_min":0,"x_max":0,"o":"m 438 722 b 613 856 511 736 613 750 b 399 997 613 947 524 997 l 378 997 l 378 918 l 399 918 b 522 847 464 918 522 904 b 422 776 522 789 469 785 z m 458 -11 b 864 343 696 -11 864 129 b 458 696 864 558 699 696 b 54 343 219 696 54 557 b 458 -11 54 128 222 -11 z m 458 100 b 188 343 300 100 188 194 b 458 585 188 492 299 585 b 732 343 618 585 732 492 b 458 100 732 194 618 100 z "},"ơ":{"ha":919,"x_min":0,"x_max":0,"o":"m 892 722 b 778 579 892 628 861 579 l 778 575 b 458 696 706 651 594 696 b 54 343 219 696 54 557 b 458 -11 54 128 222 -11 b 864 343 696 -11 864 129 b 829 500 864 401 851 454 b 979 715 935 519 979 604 l 979 776 l 892 776 z m 458 100 b 188 343 300 100 188 194 b 458 585 188 492 299 585 b 732 343 618 585 732 492 b 458 100 732 194 618 100 z "},"ớ":{"ha":919,"x_min":0,"x_max":0,"o":"m 564 968 l 413 772 l 504 772 l 699 968 z m 892 722 b 778 579 892 628 861 579 l 778 575 b 458 696 706 651 594 696 b 54 343 219 696 54 557 b 458 -11 54 128 222 -11 b 864 343 696 -11 864 129 b 829 500 864 401 851 454 b 979 715 935 519 979 604 l 979 776 l 892 776 z m 458 100 b 188 343 300 100 188 194 b 458 585 188 492 299 585 b 732 343 618 585 732 492 b 458 100 732 194 618 100 z "},"ợ":{"ha":919,"x_min":0,"x_max":0,"o":"m 892 722 b 778 579 892 628 861 579 l 778 575 b 458 696 706 651 594 696 b 54 343 219 696 54 557 b 458 -11 54 128 222 -11 b 864 343 696 -11 864 129 b 829 500 864 401 851 454 b 979 715 935 519 979 604 l 979 776 l 892 776 z m 458 100 b 188 343 300 100 188 194 b 458 585 188 492 299 585 b 732 343 618 585 732 492 b 458 100 732 194 618 100 z m 542 -256 l 542 -94 l 378 -94 l 378 -256 z "},"ờ":{"ha":919,"x_min":0,"x_max":0,"o":"m 361 968 l 229 968 l 411 772 l 506 772 z m 892 722 b 778 579 892 628 861 579 l 778 575 b 458 696 706 651 594 696 b 54 343 219 696 54 557 b 458 -11 54 128 222 -11 b 864 343 696 -11 864 129 b 829 500 864 401 851 454 b 979 715 935 519 979 604 l 979 776 l 892 776 z m 458 100 b 188 343 300 100 188 194 b 458 585 188 492 299 585 b 732 343 618 585 732 492 b 458 100 732 194 618 100 z "},"ở":{"ha":919,"x_min":0,"x_max":0,"o":"m 522 847 b 422 776 522 789 469 785 l 438 722 b 613 856 511 736 613 750 b 399 997 613 947 524 997 l 378 997 l 378 918 l 399 918 b 522 847 464 918 522 904 z m 892 722 b 778 579 892 628 861 579 l 778 575 b 458 696 706 651 594 696 b 54 343 219 696 54 557 b 458 -11 54 128 222 -11 b 864 343 696 -11 864 129 b 829 500 864 401 851 454 b 979 715 935 519 979 604 l 979 776 l 892 776 z m 458 100 b 188 343 300 100 188 194 b 458 585 188 492 299 585 b 732 343 618 585 732 492 b 458 100 732 194 618 100 z "},"ỡ":{"ha":919,"x_min":0,"x_max":0,"o":"m 365 894 b 551 785 431 894 440 785 b 685 968 632 785 685 851 l 607 968 b 553 863 607 901 583 863 b 371 972 488 863 472 972 b 235 800 288 972 235 907 l 308 800 b 365 894 308 858 329 894 z m 892 722 b 778 579 892 628 861 579 l 778 575 b 458 696 706 651 594 696 b 54 343 219 696 54 557 b 458 -11 54 128 222 -11 b 864 343 696 -11 864 129 b 829 500 864 401 851 454 b 979 715 935 519 979 604 l 979 776 l 892 776 z m 458 100 b 188 343 300 100 188 194 b 458 585 188 492 299 585 b 732 343 618 585 732 492 b 458 100 732 194 618 100 z "},"ő":{"ha":919,"x_min":0,"x_max":0,"o":"m 381 750 l 553 968 l 440 968 l 289 750 z m 629 750 l 821 968 l 689 968 l 538 750 z m 458 -11 b 864 343 696 -11 864 129 b 458 696 864 558 699 696 b 54 343 219 696 54 557 b 458 -11 54 128 222 -11 z m 458 100 b 188 343 300 100 188 194 b 458 585 188 492 299 585 b 732 343 618 585 732 492 b 458 100 732 194 618 100 z "},"ō":{"ha":919,"x_min":0,"x_max":0,"o":"m 649 814 l 649 888 l 271 888 l 271 814 z m 458 -11 b 864 343 696 -11 864 129 b 458 696 864 558 699 696 b 54 343 219 696 54 557 b 458 -11 54 128 222 -11 z m 458 100 b 188 343 300 100 188 194 b 458 585 188 492 299 585 b 732 343 618 585 732 492 b 458 100 732 194 618 100 z "},"ø":{"ha":919,"x_min":0,"x_max":0,"o":"m 740 750 l 676 750 l 626 669 b 458 696 576 686 519 696 b 54 343 219 696 54 557 b 239 38 54 204 125 96 l 176 -64 l 239 -64 l 289 17 b 458 -11 339 -1 396 -11 b 864 343 696 -11 864 129 b 678 649 864 483 793 590 z m 188 343 b 458 585 188 492 299 585 b 565 569 497 585 533 579 l 301 139 b 188 343 231 179 188 251 z m 458 100 b 350 117 419 100 383 106 l 615 547 b 732 343 688 507 732 436 b 458 100 732 194 618 100 z "},"õ":{"ha":919,"x_min":0,"x_max":0,"o":"m 551 785 b 685 968 632 785 685 851 l 607 968 b 553 863 607 901 583 863 b 371 972 488 863 472 972 b 235 800 288 972 235 907 l 308 800 b 365 894 308 858 329 894 b 551 785 431 894 440 785 z m 458 -11 b 864 343 696 -11 864 129 b 458 696 864 558 699 696 b 54 343 219 696 54 557 b 458 -11 54 128 222 -11 z m 458 100 b 188 343 300 100 188 194 b 458 585 188 492 299 585 b 732 343 618 585 732 492 b 458 100 732 194 618 100 z "},"œ":{"ha":1538,"x_min":0,"x_max":0,"o":"m 1479 367 b 1110 696 1479 542 1360 696 b 799 550 975 696 864 642 b 458 696 728 643 608 696 b 54 343 219 696 54 557 b 458 -11 54 128 222 -11 b 796 135 606 -11 725 43 b 1133 -11 864 43 983 -11 b 1449 72 1253 -11 1344 13 l 1397 169 b 1133 100 1319 121 1232 100 b 874 306 978 100 882 176 l 1475 306 b 1479 367 1478 326 1479 350 z m 874 394 b 1114 588 885 510 982 588 b 1343 411 1274 588 1343 496 b 1342 394 1343 407 1343 401 z m 458 100 b 188 343 300 100 188 194 b 458 585 188 492 299 585 b 732 343 618 585 732 492 b 458 100 732 194 618 100 z "},"p":{"ha":956,"x_min":0,"x_max":0,"o":"m 507 696 b 221 554 386 696 282 644 l 221 685 l 88 685 l 88 -283 l 221 -283 l 221 135 b 513 -11 268 46 378 -11 b 899 340 736 -11 899 128 b 507 696 899 557 736 696 z m 493 90 b 221 340 336 90 221 189 b 493 592 221 494 336 592 b 765 340 650 592 765 492 b 493 90 765 190 650 90 z "},"þ":{"ha":963,"x_min":0,"x_max":0,"o":"m 544 696 b 260 554 422 696 319 642 l 260 968 l 125 968 l 125 -283 l 260 -283 l 260 149 b 551 -11 304 56 424 -11 b 900 340 760 -11 900 139 b 544 696 900 544 757 696 z m 519 90 b 260 340 372 90 260 197 b 519 592 260 483 372 592 b 765 340 669 592 765 483 b 519 90 765 199 669 90 z "},"q":{"ha":956,"x_min":0,"x_max":0,"o":"m 735 554 b 449 696 674 644 569 696 b 57 340 219 696 57 557 b 443 -11 57 128 219 -11 b 735 135 578 -11 688 46 l 735 -283 l 868 -283 l 868 685 l 735 685 z m 463 90 b 190 340 306 90 190 190 b 463 592 190 492 306 592 b 735 340 619 592 735 494 b 463 90 735 189 619 90 z "},"r":{"ha":640,"x_min":0,"x_max":0,"o":"m 468 696 b 224 568 372 696 272 650 l 224 685 l 88 685 l 88 0 l 222 0 l 222 367 b 446 579 222 518 333 579 b 549 558 478 579 521 572 l 614 664 b 468 696 567 688 522 696 z "},"ŕ":{"ha":640,"x_min":0,"x_max":0,"o":"m 390 968 l 239 772 l 331 772 l 525 968 z m 468 696 b 224 568 372 696 272 650 l 224 685 l 88 685 l 88 0 l 222 0 l 222 367 b 446 579 222 518 333 579 b 549 558 478 579 521 572 l 614 664 b 468 696 567 688 522 696 z "},"ř":{"ha":640,"x_min":0,"x_max":0,"o":"m 397 968 l 285 853 l 175 968 l 75 968 l 285 749 l 496 968 z m 468 696 b 224 568 372 696 272 650 l 224 685 l 88 685 l 88 0 l 222 0 l 222 367 b 446 579 222 518 333 579 b 549 558 478 579 521 572 l 614 664 b 468 696 567 688 522 696 z "},"ŗ":{"ha":640,"x_min":0,"x_max":0,"o":"m 468 696 b 224 568 372 696 272 650 l 224 685 l 88 685 l 88 0 l 222 0 l 222 367 b 446 579 222 518 333 579 b 549 558 478 579 521 572 l 614 664 b 468 696 567 688 522 696 z m 54 -310 l 221 -75 l 89 -75 l -21 -310 z "},"s":{"ha":793,"x_min":0,"x_max":0,"o":"m 410 -11 b 743 211 614 -11 743 79 b 217 501 743 497 217 363 b 382 594 217 561 286 594 b 639 503 493 594 571 558 l 717 576 b 392 696 653 640 546 696 b 92 489 231 696 92 626 b 611 193 92 214 611 353 b 417 90 611 131 543 90 b 125 210 285 90 182 138 l 35 142 b 410 -11 96 56 233 -11 z "},"ś":{"ha":793,"x_min":0,"x_max":0,"o":"m 447 772 l 642 968 l 507 968 l 356 772 z m 410 -11 b 743 211 614 -11 743 79 b 217 501 743 497 217 363 b 382 594 217 561 286 594 b 639 503 493 594 571 558 l 717 576 b 392 696 653 640 546 696 b 92 489 231 696 92 626 b 611 193 92 214 611 353 b 417 90 611 131 543 90 b 125 210 285 90 182 138 l 35 142 b 410 -11 96 56 233 -11 z "},"š":{"ha":793,"x_min":0,"x_max":0,"o":"m 613 968 l 514 968 l 401 853 l 292 968 l 192 968 l 401 749 z m 410 -11 b 743 211 614 -11 743 79 b 217 501 743 497 217 363 b 382 594 217 561 286 594 b 639 503 493 594 571 558 l 717 576 b 392 696 653 640 546 696 b 92 489 231 696 92 626 b 611 193 92 214 611 353 b 417 90 611 131 543 90 b 125 210 285 90 182 138 l 35 142 b 410 -11 96 56 233 -11 z "},"ş":{"ha":793,"x_min":0,"x_max":0,"o":"m 743 211 b 217 501 743 497 217 363 b 382 594 217 561 286 594 b 639 503 493 594 571 558 l 717 576 b 392 696 653 640 546 696 b 92 489 231 696 92 626 b 611 193 92 214 611 353 b 417 90 611 131 543 90 b 125 210 285 90 182 138 l 35 142 b 357 -10 90 64 206 3 l 285 -132 b 396 -143 325 -132 363 -133 b 458 -215 432 -154 458 -175 b 383 -283 458 -260 429 -283 b 304 -240 351 -283 322 -265 l 263 -300 b 381 -357 296 -339 344 -357 b 532 -210 474 -357 532 -296 b 471 -106 532 -162 511 -128 b 383 -81 447 -93 418 -85 l 432 -11 b 743 211 624 -4 743 83 z "},"ș":{"ha":793,"x_min":0,"x_max":0,"o":"m 410 -11 b 743 211 614 -11 743 79 b 217 501 743 497 217 363 b 382 594 217 561 286 594 b 639 503 493 594 571 558 l 717 576 b 392 696 653 640 546 696 b 92 489 231 696 92 626 b 611 193 92 214 611 353 b 417 90 611 131 543 90 b 125 210 285 90 182 138 l 35 142 b 410 -11 96 56 233 -11 z m 300 -310 l 467 -75 l 335 -75 l 225 -310 z "},"ß":{"ha":1072,"x_min":0,"x_max":0,"o":"m 685 -11 b 1022 211 899 -11 1022 74 b 708 407 1022 369 846 389 b 510 510 603 421 510 436 b 658 613 510 586 579 603 b 883 775 814 624 883 693 b 508 982 883 906 732 982 b 83 618 163 982 83 803 l 83 0 l 224 0 l 224 618 b 517 876 224 754 274 876 b 750 771 651 876 750 832 b 642 701 750 724 711 711 b 383 510 501 690 383 649 b 689 311 383 353 553 331 b 892 196 794 294 892 278 b 692 86 892 129 826 86 b 419 215 535 86 453 150 l 313 172 b 685 -11 357 72 496 -11 z "},"t":{"ha":567,"x_min":0,"x_max":0,"o":"m 510 103 b 407 86 469 92 433 86 b 304 193 335 86 304 122 l 304 590 l 508 590 l 508 685 l 304 685 l 304 933 l 171 872 l 171 685 l 33 685 l 33 590 l 171 590 l 171 175 b 376 -11 171 57 240 -11 b 511 7 429 -11 467 -3 z "},"ŧ":{"ha":567,"x_min":0,"x_max":0,"o":"m 510 103 b 407 86 469 92 433 86 b 304 193 335 86 304 122 l 304 301 l 499 301 l 499 386 l 304 386 l 304 590 l 508 590 l 508 685 l 304 685 l 304 933 l 171 872 l 171 685 l 33 685 l 33 590 l 171 590 l 171 386 l 46 386 l 46 301 l 171 301 l 171 175 b 376 -11 171 57 240 -11 b 511 7 429 -11 467 -3 z "},"ť":{"ha":567,"x_min":0,"x_max":0,"o":"m 510 1090 l 431 792 l 506 792 l 640 1090 z m 407 86 b 304 193 335 86 304 122 l 304 590 l 508 590 l 508 685 l 304 685 l 304 933 l 171 872 l 171 685 l 33 685 l 33 590 l 171 590 l 171 175 b 376 -11 171 57 240 -11 b 511 7 429 -11 467 -3 l 510 103 b 407 86 469 92 433 86 z "},"ţ":{"ha":567,"x_min":0,"x_max":0,"o":"m 407 -106 b 319 -81 383 -93 354 -85 l 368 -11 l 376 -11 b 511 7 429 -11 467 -3 l 510 103 b 407 86 469 92 433 86 b 304 193 335 86 304 122 l 304 590 l 508 590 l 508 685 l 304 685 l 304 933 l 171 872 l 171 685 l 33 685 l 33 590 l 171 590 l 171 175 b 297 -1 171 82 214 21 l 221 -132 b 332 -143 261 -132 299 -133 b 394 -215 368 -154 394 -175 b 319 -283 394 -260 365 -283 b 240 -240 288 -283 258 -265 l 199 -300 b 317 -357 232 -339 281 -357 b 468 -210 410 -357 468 -296 b 407 -106 468 -162 447 -128 z "},"ț":{"ha":567,"x_min":0,"x_max":0,"o":"m 171 175 b 376 -11 171 57 240 -11 b 511 7 429 -11 467 -3 l 510 103 b 407 86 469 92 433 86 b 304 193 335 86 304 122 l 304 590 l 508 590 l 508 685 l 304 685 l 304 933 l 171 872 l 171 685 l 33 685 l 33 590 l 171 590 z m 236 -310 l 403 -75 l 271 -75 l 161 -310 z "},"u":{"ha":851,"x_min":0,"x_max":0,"o":"m 628 347 b 407 93 628 189 564 93 b 211 292 281 93 211 157 l 211 685 l 78 685 l 78 268 b 372 -11 78 81 189 -11 b 628 117 485 -11 575 28 l 628 0 l 763 0 l 763 685 l 628 685 z "},"ú":{"ha":851,"x_min":0,"x_max":0,"o":"m 524 968 l 372 772 l 464 772 l 658 968 z m 628 347 b 407 93 628 189 564 93 b 211 292 281 93 211 157 l 211 685 l 78 685 l 78 268 b 372 -11 78 81 189 -11 b 628 117 485 -11 575 28 l 628 0 l 763 0 l 763 685 l 628 685 z "},"ǔ":{"ha":851,"x_min":0,"x_max":0,"o":"m 531 968 l 418 853 l 308 968 l 208 968 l 418 749 l 629 968 z m 628 347 b 407 93 628 189 564 93 b 211 292 281 93 211 157 l 211 685 l 78 685 l 78 268 b 372 -11 78 81 189 -11 b 628 117 485 -11 575 28 l 628 0 l 763 0 l 763 685 l 628 685 z "},"û":{"ha":851,"x_min":0,"x_max":0,"o":"m 531 758 l 631 758 l 419 986 l 208 758 l 307 758 l 419 878 z m 628 347 b 407 93 628 189 564 93 b 211 292 281 93 211 157 l 211 685 l 78 685 l 78 268 b 372 -11 78 81 189 -11 b 628 117 485 -11 575 28 l 628 0 l 763 0 l 763 685 l 628 685 z "},"ü":{"ha":851,"x_min":0,"x_max":0,"o":"m 215 968 l 215 807 l 356 807 l 356 968 z m 482 968 l 482 807 l 622 807 l 622 968 z m 628 347 b 407 93 628 189 564 93 b 211 292 281 93 211 157 l 211 685 l 78 685 l 78 268 b 372 -11 78 81 189 -11 b 628 117 485 -11 575 28 l 628 0 l 763 0 l 763 685 l 628 685 z "},"ǘ":{"ha":851,"x_min":0,"x_max":0,"o":"m 524 1251 l 372 1056 l 464 1056 l 658 1251 z m 215 968 l 215 807 l 356 807 l 356 968 z m 622 968 l 482 968 l 482 807 l 622 807 z m 628 347 b 407 93 628 189 564 93 b 211 292 281 93 211 157 l 211 685 l 78 685 l 78 268 b 372 -11 78 81 189 -11 b 628 117 485 -11 575 28 l 628 0 l 763 0 l 763 685 l 628 685 z "},"ǚ":{"ha":851,"x_min":0,"x_max":0,"o":"m 531 1251 l 418 1136 l 308 1251 l 208 1251 l 418 1032 l 629 1251 z m 356 968 l 215 968 l 215 807 l 356 807 z m 622 968 l 482 968 l 482 807 l 622 807 z m 628 347 b 407 93 628 189 564 93 b 211 292 281 93 211 157 l 211 685 l 78 685 l 78 268 b 372 -11 78 81 189 -11 b 628 117 485 -11 575 28 l 628 0 l 763 0 l 763 685 l 628 685 z "},"ǜ":{"ha":851,"x_min":0,"x_max":0,"o":"m 321 1251 l 189 1251 l 371 1056 l 465 1056 z m 356 968 l 215 968 l 215 807 l 356 807 z m 482 968 l 482 807 l 622 807 l 622 968 z m 628 347 b 407 93 628 189 564 93 b 211 292 281 93 211 157 l 211 685 l 78 685 l 78 268 b 372 -11 78 81 189 -11 b 628 117 485 -11 575 28 l 628 0 l 763 0 l 763 685 l 628 685 z "},"ǖ":{"ha":851,"x_min":0,"x_max":0,"o":"m 231 1171 l 231 1097 l 608 1097 l 608 1171 z m 215 968 l 215 807 l 356 807 l 356 968 z m 622 807 l 622 968 l 482 968 l 482 807 z m 628 347 b 407 93 628 189 564 93 b 211 292 281 93 211 157 l 211 685 l 78 685 l 78 268 b 372 -11 78 81 189 -11 b 628 117 485 -11 575 28 l 628 0 l 763 0 l 763 685 l 628 685 z "},"ụ":{"ha":851,"x_min":0,"x_max":0,"o":"m 628 347 b 407 93 628 189 564 93 b 211 292 281 93 211 157 l 211 685 l 78 685 l 78 268 b 372 -11 78 81 189 -11 b 628 117 485 -11 575 28 l 628 0 l 763 0 l 763 685 l 628 685 z m 511 -256 l 511 -94 l 347 -94 l 347 -256 z "},"ù":{"ha":851,"x_min":0,"x_max":0,"o":"m 321 968 l 189 968 l 371 772 l 465 772 z m 628 347 b 407 93 628 189 564 93 b 211 292 281 93 211 157 l 211 685 l 78 685 l 78 268 b 372 -11 78 81 189 -11 b 628 117 485 -11 575 28 l 628 0 l 763 0 l 763 685 l 628 685 z "},"ủ":{"ha":851,"x_min":0,"x_max":0,"o":"m 481 847 b 381 776 481 789 428 785 l 396 722 b 571 856 469 736 571 750 b 357 997 571 947 482 997 l 336 997 l 336 918 l 357 918 b 481 847 422 918 481 904 z m 628 347 b 407 93 628 189 564 93 b 211 292 281 93 211 157 l 211 685 l 78 685 l 78 268 b 372 -11 78 81 189 -11 b 628 117 485 -11 575 28 l 628 0 l 763 0 l 763 685 l 628 685 z "},"ư":{"ha":851,"x_min":0,"x_max":0,"o":"m 846 828 b 732 685 846 733 815 685 l 628 685 l 628 347 b 407 93 628 189 564 93 b 211 292 281 93 211 157 l 211 685 l 78 685 l 78 268 b 372 -11 78 81 189 -11 b 628 117 485 -11 575 28 l 628 0 l 763 0 l 763 603 b 933 821 883 615 933 703 l 933 882 l 846 882 z "},"ứ":{"ha":851,"x_min":0,"x_max":0,"o":"m 524 968 l 372 772 l 464 772 l 658 968 z m 846 828 b 732 685 846 733 815 685 l 628 685 l 628 347 b 407 93 628 189 564 93 b 211 292 281 93 211 157 l 211 685 l 78 685 l 78 268 b 372 -11 78 81 189 -11 b 628 117 485 -11 575 28 l 628 0 l 763 0 l 763 603 b 933 821 883 615 933 703 l 933 882 l 846 882 z "},"ự":{"ha":851,"x_min":0,"x_max":0,"o":"m 846 828 b 732 685 846 733 815 685 l 628 685 l 628 347 b 407 93 628 189 564 93 b 211 292 281 93 211 157 l 211 685 l 78 685 l 78 268 b 372 -11 78 81 189 -11 b 628 117 485 -11 575 28 l 628 0 l 763 0 l 763 603 b 933 821 883 615 933 703 l 933 882 l 846 882 z m 511 -256 l 511 -94 l 347 -94 l 347 -256 z "},"ừ":{"ha":851,"x_min":0,"x_max":0,"o":"m 321 968 l 189 968 l 371 772 l 465 772 z m 846 828 b 732 685 846 733 815 685 l 628 685 l 628 347 b 407 93 628 189 564 93 b 211 292 281 93 211 157 l 211 685 l 78 685 l 78 268 b 372 -11 78 81 189 -11 b 628 117 485 -11 575 28 l 628 0 l 763 0 l 763 603 b 933 821 883 615 933 703 l 933 882 l 846 882 z "},"ử":{"ha":851,"x_min":0,"x_max":0,"o":"m 481 847 b 381 776 481 789 428 785 l 396 722 b 571 856 469 736 571 750 b 357 997 571 947 482 997 l 336 997 l 336 918 l 357 918 b 481 847 422 918 481 904 z m 846 828 b 732 685 846 733 815 685 l 628 685 l 628 347 b 407 93 628 189 564 93 b 211 292 281 93 211 157 l 211 685 l 78 685 l 78 268 b 372 -11 78 81 189 -11 b 628 117 485 -11 575 28 l 628 0 l 763 0 l 763 603 b 933 821 883 615 933 703 l 933 882 l 846 882 z "},"ữ":{"ha":851,"x_min":0,"x_max":0,"o":"m 324 894 b 510 785 389 894 399 785 b 643 968 590 785 643 851 l 565 968 b 511 863 565 901 542 863 b 329 972 446 863 431 972 b 193 800 246 972 193 907 l 267 800 b 324 894 267 858 288 894 z m 846 828 b 732 685 846 733 815 685 l 628 685 l 628 347 b 407 93 628 189 564 93 b 211 292 281 93 211 157 l 211 685 l 78 685 l 78 268 b 372 -11 78 81 189 -11 b 628 117 485 -11 575 28 l 628 0 l 763 0 l 763 603 b 933 821 883 615 933 703 l 933 882 l 846 882 z "},"ű":{"ha":851,"x_min":0,"x_max":0,"o":"m 400 968 l 249 750 l 340 750 l 513 968 z m 781 968 l 649 968 l 497 750 l 589 750 z m 628 347 b 407 93 628 189 564 93 b 211 292 281 93 211 157 l 211 685 l 78 685 l 78 268 b 372 -11 78 81 189 -11 b 628 117 485 -11 575 28 l 628 0 l 763 0 l 763 685 l 628 685 z "},"ū":{"ha":851,"x_min":0,"x_max":0,"o":"m 231 888 l 231 814 l 608 814 l 608 888 z m 628 347 b 407 93 628 189 564 93 b 211 292 281 93 211 157 l 211 685 l 78 685 l 78 268 b 372 -11 78 81 189 -11 b 628 117 485 -11 575 28 l 628 0 l 763 0 l 763 685 l 628 685 z "},"ų":{"ha":851,"x_min":0,"x_max":0,"o":"m 757 -185 b 679 -224 736 -208 710 -224 b 619 -164 647 -224 619 -207 b 763 0 619 -90 708 -28 l 763 685 l 628 685 l 628 347 b 407 93 628 189 564 93 b 211 292 281 93 211 157 l 211 685 l 78 685 l 78 268 b 372 -11 78 81 189 -11 b 628 117 485 -11 575 28 l 628 0 l 660 0 b 544 -176 607 -33 544 -93 b 682 -301 544 -253 604 -301 b 821 -231 744 -301 788 -271 z "},"ů":{"ha":851,"x_min":0,"x_max":0,"o":"m 419 742 b 563 886 499 742 563 806 b 419 1031 563 967 496 1031 b 275 886 339 1031 275 965 b 419 742 275 808 338 742 z m 419 961 b 494 888 464 961 494 931 b 419 811 494 844 463 811 b 344 888 376 811 344 843 b 419 961 344 929 374 961 z m 628 347 b 407 93 628 189 564 93 b 211 292 281 93 211 157 l 211 685 l 78 685 l 78 268 b 372 -11 78 81 189 -11 b 628 117 485 -11 575 28 l 628 0 l 763 0 l 763 685 l 628 685 z "},"ũ":{"ha":851,"x_min":0,"x_max":0,"o":"m 324 894 b 510 785 389 894 399 785 b 643 968 590 785 643 851 l 565 968 b 511 863 565 901 542 863 b 329 972 446 863 431 972 b 193 800 246 972 193 907 l 267 800 b 324 894 267 858 288 894 z m 628 347 b 407 93 628 189 564 93 b 211 292 281 93 211 157 l 211 685 l 78 685 l 78 268 b 372 -11 78 81 189 -11 b 628 117 485 -11 575 28 l 628 0 l 763 0 l 763 685 l 628 685 z "},"v":{"ha":844,"x_min":0,"x_max":0,"o":"m 479 0 l 821 685 l 668 685 l 422 154 l 178 685 l 22 685 l 365 0 z "},"w":{"ha":1225,"x_min":0,"x_max":0,"o":"m 401 0 l 613 525 l 828 0 l 949 0 l 1197 685 l 1053 685 l 881 176 l 672 685 l 553 685 l 346 175 l 171 685 l 28 685 l 276 0 z "},"ẃ":{"ha":1225,"x_min":0,"x_max":0,"o":"m 658 772 l 853 968 l 718 968 l 567 772 z m 401 0 l 613 525 l 828 0 l 949 0 l 1197 685 l 1053 685 l 881 176 l 672 685 l 553 685 l 346 175 l 171 685 l 28 685 l 276 0 z "},"ŵ":{"ha":1225,"x_min":0,"x_max":0,"o":"m 500 758 l 613 878 l 724 758 l 824 758 l 613 986 l 401 758 z m 401 0 l 613 525 l 828 0 l 949 0 l 1197 685 l 1053 685 l 881 176 l 672 685 l 553 685 l 346 175 l 171 685 l 28 685 l 276 0 z "},"ẅ":{"ha":1225,"x_min":0,"x_max":0,"o":"m 550 807 l 550 968 l 410 968 l 410 807 z m 817 807 l 817 968 l 676 968 l 676 807 z m 401 0 l 613 525 l 828 0 l 949 0 l 1197 685 l 1053 685 l 881 176 l 672 685 l 553 685 l 346 175 l 171 685 l 28 685 l 276 0 z "},"ẁ":{"ha":1225,"x_min":0,"x_max":0,"o":"m 660 772 l 515 968 l 383 968 l 565 772 z m 401 0 l 613 525 l 828 0 l 949 0 l 1197 685 l 1053 685 l 881 176 l 672 685 l 553 685 l 346 175 l 171 685 l 28 685 l 276 0 z "},"x":{"ha":846,"x_min":0,"x_max":0,"o":"m 197 0 l 421 263 l 647 0 l 814 0 l 510 344 l 813 685 l 647 685 l 421 425 l 197 685 l 29 685 l 332 344 l 29 0 z "},"y":{"ha":863,"x_min":0,"x_max":0,"o":"m 375 -283 l 838 685 l 683 685 l 446 149 l 181 685 l 24 685 l 372 13 l 232 -283 z "},"ý":{"ha":863,"x_min":0,"x_max":0,"o":"m 478 772 l 672 968 l 538 968 l 386 772 z m 375 -283 l 838 685 l 683 685 l 446 149 l 181 685 l 24 685 l 372 13 l 232 -283 z "},"ŷ":{"ha":863,"x_min":0,"x_max":0,"o":"m 321 758 l 433 878 l 544 758 l 644 758 l 433 986 l 222 758 z m 375 -283 l 838 685 l 683 685 l 446 149 l 181 685 l 24 685 l 372 13 l 232 -283 z "},"ÿ":{"ha":863,"x_min":0,"x_max":0,"o":"m 369 807 l 369 968 l 229 968 l 229 807 z m 636 807 l 636 968 l 496 968 l 496 807 z m 375 -283 l 838 685 l 683 685 l 446 149 l 181 685 l 24 685 l 372 13 l 232 -283 z "},"ỵ":{"ha":863,"x_min":0,"x_max":0,"o":"m 375 -283 l 838 685 l 683 685 l 446 149 l 181 685 l 24 685 l 372 13 l 232 -283 z m 775 -256 l 775 -94 l 611 -94 l 611 -256 z "},"ỳ":{"ha":863,"x_min":0,"x_max":0,"o":"m 479 772 l 335 968 l 203 968 l 385 772 z m 375 -283 l 838 685 l 683 685 l 446 149 l 181 685 l 24 685 l 372 13 l 232 -283 z "},"ỷ":{"ha":863,"x_min":0,"x_max":0,"o":"m 411 722 b 586 856 485 736 586 750 b 372 997 586 947 497 997 l 351 997 l 351 918 l 372 918 b 496 847 438 918 496 904 b 396 776 496 789 443 785 z m 375 -283 l 838 685 l 683 685 l 446 149 l 181 685 l 24 685 l 372 13 l 232 -283 z "},"ỹ":{"ha":863,"x_min":0,"x_max":0,"o":"m 525 785 b 658 968 606 785 658 851 l 581 968 b 526 863 581 901 557 863 b 344 972 461 863 446 972 b 208 800 261 972 208 907 l 282 800 b 339 894 282 858 303 894 b 525 785 404 894 414 785 z m 375 -283 l 838 685 l 683 685 l 446 149 l 181 685 l 24 685 l 372 13 l 232 -283 z "},"z":{"ha":818,"x_min":0,"x_max":0,"o":"m 751 588 l 751 685 l 71 685 l 71 583 l 574 583 l 51 90 l 51 0 l 760 0 l 760 101 l 242 101 z "},"ź":{"ha":818,"x_min":0,"x_max":0,"o":"m 511 968 l 360 772 l 451 772 l 646 968 z m 751 588 l 751 685 l 71 685 l 71 583 l 574 583 l 51 90 l 51 0 l 760 0 l 760 101 l 242 101 z "},"ž":{"ha":818,"x_min":0,"x_max":0,"o":"m 518 968 l 406 853 l 296 968 l 196 968 l 406 749 l 617 968 z m 751 588 l 751 685 l 71 685 l 71 583 l 574 583 l 51 90 l 51 0 l 760 0 l 760 101 l 242 101 z "},"ż":{"ha":818,"x_min":0,"x_max":0,"o":"m 321 968 l 321 807 l 492 807 l 492 968 z m 751 588 l 751 685 l 71 685 l 71 583 l 574 583 l 51 90 l 51 0 l 760 0 l 760 101 l 242 101 z "},"ﬁ":{"ha":833,"x_min":0,"x_max":0,"o":"m 310 685 l 310 729 b 494 882 310 826 369 882 b 696 828 574 882 639 863 l 760 914 b 488 979 685 954 603 979 b 175 738 319 979 175 899 l 175 685 l 33 685 l 33 590 l 175 590 l 175 0 l 310 0 l 310 590 l 625 590 l 625 0 l 758 0 l 758 685 z "},"ﬂ":{"ha":975,"x_min":0,"x_max":0,"o":"m 815 -11 b 939 7 854 -11 900 -4 l 936 111 b 863 100 910 104 881 100 b 789 186 815 100 789 128 l 789 913 b 483 979 668 968 589 979 b 172 738 315 979 172 897 l 172 685 l 33 685 l 33 582 l 172 582 l 172 0 l 317 0 l 317 582 l 499 582 l 499 685 l 317 685 l 317 728 b 490 882 317 826 374 882 b 643 851 546 882 599 871 l 643 154 b 815 -11 643 46 707 -11 z "},"ª":{"ha":608,"x_min":0,"x_max":0,"o":"m 254 482 b 426 575 325 482 383 514 l 428 492 l 489 492 l 489 786 b 296 979 489 906 419 979 b 101 875 213 979 156 950 l 154 839 b 297 918 190 889 232 918 b 421 807 374 918 415 879 b 425 774 424 797 425 788 l 286 774 b 86 631 165 774 86 728 b 254 482 86 540 157 482 z m 269 544 b 158 628 197 544 158 579 b 290 714 158 683 201 714 l 425 714 b 414 636 424 686 418 658 b 269 544 382 574 335 544 z "},"º":{"ha":642,"x_min":0,"x_max":0,"o":"m 321 490 b 557 735 458 490 557 599 b 321 979 557 869 457 979 b 83 735 183 979 83 869 b 321 490 83 600 182 490 z m 321 556 b 161 735 217 556 161 635 b 321 914 161 836 218 914 b 481 735 424 914 481 835 b 321 556 481 635 424 556 z "},"Δ":{"ha":844,"x_min":0,"x_max":0,"o":"m 790 0 l 406 968 l 376 968 l -7 0 z m 392 772 l 651 94 l 133 94 z "},"Ω":{"ha":1083,"x_min":0,"x_max":0,"o":"m 415 0 l 415 122 b 168 517 269 182 168 311 b 500 875 168 731 299 875 b 832 513 700 875 832 733 b 583 124 832 299 725 168 l 583 0 l 989 0 l 989 108 l 724 108 l 747 124 b 951 526 872 190 951 338 b 501 990 951 796 765 990 b 49 531 238 990 49 796 b 254 124 49 349 125 203 l 276 108 l 10 108 l 10 0 z "},"μ":{"ha":863,"x_min":0,"x_max":0,"o":"m 204 -233 l 204 75 b 399 -11 238 18 306 -11 b 639 103 506 -11 596 32 l 639 0 l 751 0 l 751 685 l 639 685 l 639 292 b 422 100 639 211 578 100 b 224 281 289 100 224 171 l 224 685 l 110 685 l 110 -233 z "},"π":{"ha":910,"x_min":0,"x_max":0,"o":"m 760 -11 b 878 17 800 -11 836 -3 l 847 97 b 781 81 825 88 799 81 b 682 183 704 81 682 117 l 682 578 l 803 578 l 803 685 l 51 685 l 51 578 l 147 578 l 147 0 l 250 0 l 250 578 l 579 578 l 579 176 b 760 -11 579 92 601 -11 z "},"⁄":{"ha":203,"x_min":0,"x_max":0,"o":"m -136 0 l 418 968 l 339 968 l -214 0 z "},".":{"ha":308,"x_min":0,"x_max":0,"o":"m 229 0 l 229 172 l 79 172 l 79 0 z "},",":{"ha":343,"x_min":0,"x_max":0,"o":"m 142 -210 l 319 211 l 157 211 l 44 -210 z "},":":{"ha":310,"x_min":0,"x_max":0,"o":"m 231 481 l 231 654 l 79 654 l 79 481 z m 231 0 l 231 172 l 79 172 l 79 0 z "},";":{"ha":357,"x_min":0,"x_max":0,"o":"m 289 481 l 289 654 l 139 654 l 139 481 z m 138 -210 l 315 211 l 153 211 l 40 -210 z "},"…":{"ha":938,"x_min":0,"x_max":0,"o":"m 214 0 l 214 172 l 79 172 l 79 0 z m 536 0 l 536 172 l 401 172 l 401 0 z m 858 0 l 858 172 l 724 172 l 724 0 z "},"!":{"ha":310,"x_min":0,"x_max":0,"o":"m 210 288 l 226 968 l 82 968 l 99 288 z m 231 0 l 231 172 l 79 172 l 79 0 z "},"¡":{"ha":310,"x_min":0,"x_max":0,"o":"m 79 685 l 79 513 l 231 513 l 231 685 z m 100 397 l 82 -283 l 228 -283 l 210 397 z "},"?":{"ha":742,"x_min":0,"x_max":0,"o":"m 431 285 l 431 356 b 719 724 431 518 719 467 b 375 979 719 903 571 979 b 15 688 163 979 17 872 l 146 688 b 372 867 146 794 225 867 b 593 718 510 867 593 813 b 307 358 593 540 307 588 l 307 285 z m 446 0 l 446 172 l 294 172 l 294 0 z "},"¿":{"ha":750,"x_min":0,"x_max":0,"o":"m 322 685 l 322 513 l 474 513 l 474 685 z m 338 400 l 338 329 b 49 -39 338 167 49 218 b 393 -294 49 -218 197 -294 b 753 -3 606 -294 751 -187 l 622 -3 b 396 -182 622 -110 543 -182 b 175 -33 258 -182 175 -128 b 461 326 175 144 461 97 l 461 400 z "},"·":{"ha":351,"x_min":0,"x_max":0,"o":"m 175 376 b 303 506 246 376 303 435 b 175 629 303 575 246 629 b 49 506 106 629 49 575 b 175 376 49 435 104 376 z "},"•":{"ha":522,"x_min":0,"x_max":0,"o":"m 261 108 b 482 329 383 108 482 213 b 261 551 482 451 381 551 b 40 329 140 551 40 450 b 261 108 40 210 140 108 z "},"*":{"ha":540,"x_min":0,"x_max":0,"o":"m 296 503 l 296 689 l 458 596 l 485 642 l 324 736 l 485 829 l 458 875 l 296 782 l 296 968 l 243 968 l 243 782 l 82 875 l 54 829 l 217 736 l 54 642 l 82 596 l 243 689 l 243 503 z "},"#":{"ha":860,"x_min":0,"x_max":0,"o":"m 218 0 l 278 290 l 494 290 l 432 0 l 526 0 l 588 290 l 785 290 l 785 376 l 607 376 l 656 608 l 842 608 l 842 694 l 674 694 l 735 968 l 639 968 l 581 694 l 365 694 l 426 968 l 329 968 l 269 699 l 75 699 l 75 608 l 250 608 l 203 376 l 18 376 l 18 290 l 185 290 l 124 0 z m 344 608 l 560 608 l 514 376 l 299 376 z "},"/":{"ha":561,"x_min":0,"x_max":0,"o":"m 79 -293 l 575 968 l 483 968 l -14 -293 z "},"\\":{"ha":574,"x_min":0,"x_max":0,"o":"m 90 968 l -1 968 l 494 -293 l 588 -293 z "},"‣":{"ha":489,"x_min":0,"x_max":0,"o":"m 471 353 l 82 576 l 82 126 z "},"‥":{"ha":618,"x_min":0,"x_max":0,"o":"m 217 0 l 217 169 l 79 169 l 79 0 z m 539 0 l 539 169 l 401 169 l 401 0 z "},"(":{"ha":307,"x_min":0,"x_max":0,"o":"m 303 -62 b 126 481 185 82 126 286 b 304 1026 126 686 182 875 l 193 1026 b 31 481 92 907 31 710 b 194 -62 31 253 97 47 z "},")":{"ha":307,"x_min":0,"x_max":0,"o":"m 113 -62 b 276 481 210 47 276 253 b 114 1026 276 710 215 907 l 3 1026 b 181 481 125 875 181 686 b 4 -62 181 286 122 82 z "},"{":{"ha":335,"x_min":0,"x_max":0,"o":"m 325 -100 l 325 -19 l 274 -19 b 192 83 213 -19 192 32 l 192 311 b 101 451 192 385 157 428 l 101 458 b 192 607 165 486 192 529 l 192 847 b 278 949 192 919 219 949 l 325 949 l 325 1026 l 239 1026 b 89 849 142 1026 89 964 l 89 608 b 3 499 89 528 44 511 l 3 414 b 89 310 44 399 89 382 l 89 82 b 236 -100 89 -28 139 -100 z "},"}":{"ha":335,"x_min":0,"x_max":0,"o":"m 100 -100 b 246 82 196 -100 246 -28 l 246 310 b 332 414 246 378 286 399 l 332 499 b 246 608 285 513 246 533 l 246 849 b 96 1026 246 963 194 1026 l 10 1026 l 10 949 l 57 949 b 144 847 118 949 144 913 l 144 607 b 235 458 144 529 171 485 l 235 451 b 144 311 165 422 144 371 l 144 83 b 61 -19 144 10 110 -19 l 10 -19 l 10 -100 z "},"[":{"ha":350,"x_min":0,"x_max":0,"o":"m 342 -96 l 342 -14 l 169 -14 l 169 981 l 342 981 l 342 1063 l 71 1063 l 71 -96 z "},"]":{"ha":350,"x_min":0,"x_max":0,"o":"m 279 -96 l 279 1063 l 8 1063 l 8 981 l 182 981 l 182 -14 l 8 -14 l 8 -96 z "},"-":{"ha":486,"x_min":0,"x_max":0,"o":"m 435 375 l 435 465 l 53 465 l 53 375 z "},"­":{"ha":583,"x_min":0,"x_max":0,"o":"m 532 375 l 532 465 l 53 465 l 53 375 z "},"–":{"ha":689,"x_min":0,"x_max":0,"o":"m 692 375 l 692 465 l -3 465 l -3 375 z "},"—":{"ha":1397,"x_min":0,"x_max":0,"o":"m 1400 375 l 1400 465 l -3 465 l -3 375 z "},"―":{"ha":946,"x_min":0,"x_max":0,"o":"m 894 379 l 894 465 l 53 465 l 53 379 z "},"_":{"ha":668,"x_min":0,"x_max":0,"o":"m 617 -93 l 617 0 l 53 0 l 53 -93 z "},"‚":{"ha":300,"x_min":0,"x_max":0,"o":"m 107 -212 l 289 181 l 150 181 l 26 -212 z "},"„":{"ha":567,"x_min":0,"x_max":0,"o":"m 107 -212 l 289 181 l 150 181 l 26 -212 z m 375 -212 l 556 181 l 417 181 l 294 -212 z "},"“":{"ha":560,"x_min":0,"x_max":0,"o":"m 150 575 l 274 968 l 192 968 l 11 575 z m 408 575 l 531 968 l 449 968 l 271 575 z "},"”":{"ha":557,"x_min":0,"x_max":0,"o":"m 107 576 l 289 968 l 150 968 l 26 576 z m 365 576 l 546 968 l 408 968 l 285 576 z "},"‘":{"ha":300,"x_min":0,"x_max":0,"o":"m 150 575 l 274 968 l 192 968 l 11 575 z "},"’":{"ha":300,"x_min":0,"x_max":0,"o":"m 107 576 l 289 968 l 150 968 l 26 576 z "},"«":{"ha":640,"x_min":0,"x_max":0,"o":"m 319 183 l 131 350 l 319 517 l 319 644 l 3 350 l 319 56 z m 604 183 l 417 350 l 604 517 l 604 644 l 288 350 l 604 56 z "},"»":{"ha":661,"x_min":0,"x_max":0,"o":"m 375 350 l 57 644 l 57 517 l 244 350 l 57 183 l 57 56 z m 660 350 l 342 644 l 342 517 l 531 350 l 342 183 l 342 56 z "},"‹":{"ha":354,"x_min":0,"x_max":0,"o":"m 319 183 l 132 350 l 319 517 l 319 644 l 3 350 l 319 56 z "},"›":{"ha":354,"x_min":0,"x_max":0,"o":"m 351 350 l 35 644 l 35 517 l 222 350 l 35 183 l 35 56 z "},"\"":{"ha":488,"x_min":0,"x_max":0,"o":"m 171 533 l 171 968 l 69 968 l 69 533 z m 418 533 l 418 968 l 317 968 l 317 533 z "},"'":{"ha":240,"x_min":0,"x_max":0,"o":"m 171 533 l 171 968 l 69 968 l 69 533 z "}," ":{"ha":386,"x_min":0,"x_max":0,"o":""},"¢":{"ha":871,"x_min":0,"x_max":0,"o":"m 460 100 b 188 340 281 100 188 207 b 458 585 188 474 278 585 b 701 457 575 585 660 535 l 825 504 b 507 694 761 617 660 683 l 507 835 l 406 835 l 406 693 b 54 340 176 674 54 522 b 406 -8 54 149 188 11 l 406 -157 l 507 -157 l 507 -10 b 817 182 657 3 767 69 l 696 228 b 460 100 664 147 576 100 z "},"¤":{"ha":778,"x_min":0,"x_max":0,"o":"m 199 179 b 578 179 308 94 467 93 l 650 107 l 714 175 l 643 243 b 643 622 729 354 729 511 l 714 693 l 649 758 l 578 688 b 200 686 471 772 314 774 l 129 758 l 65 690 l 135 622 b 135 244 51 517 49 357 l 65 175 l 128 107 z m 226 274 b 228 593 139 361 142 507 b 549 593 317 682 458 683 b 549 274 640 503 639 364 b 226 274 461 183 317 183 z "},"$":{"ha":969,"x_min":0,"x_max":0,"o":"m 936 276 b 539 564 936 489 714 531 b 258 725 361 597 258 624 b 475 871 258 815 343 871 b 789 747 608 871 717 826 l 886 828 b 543 983 797 922 689 972 l 543 1122 l 440 1122 l 440 983 b 110 711 242 971 110 869 b 501 431 110 503 303 464 b 789 261 682 399 789 371 b 531 97 789 160 708 97 b 183 293 357 97 228 165 l 38 263 b 444 -14 86 113 204 7 l 444 -160 l 547 -160 l 547 -17 b 936 276 818 -11 936 110 z "},"€":{"ha":876,"x_min":0,"x_max":0,"o":"m 781 182 b 563 107 729 138 661 107 b 253 346 396 107 292 201 l 679 346 l 679 426 l 238 426 b 235 489 236 447 235 468 b 239 557 235 513 236 535 l 679 557 l 679 640 l 257 640 b 567 861 300 772 404 861 b 776 793 657 861 725 836 l 842 896 b 567 979 775 950 683 979 b 129 640 333 979 179 843 l 39 640 l 39 557 l 115 557 b 113 490 114 535 113 513 b 115 426 113 468 114 447 l 39 426 l 39 346 l 128 346 b 563 -11 172 132 324 -11 b 846 79 682 -11 775 21 z "},"ƒ":{"ha":601,"x_min":0,"x_max":0,"o":"m 188 -294 b 340 -129 292 -294 340 -236 l 340 590 l 572 590 l 572 685 l 340 685 l 340 763 b 451 879 340 842 381 879 b 542 860 476 879 510 874 l 585 953 b 438 979 536 971 493 979 b 207 767 268 979 207 893 l 207 685 l 33 685 l 33 590 l 207 590 l 207 -97 b 140 -183 207 -156 185 -183 b 74 -172 122 -183 99 -179 l 72 -276 b 188 -294 108 -287 151 -294 z "},"£":{"ha":742,"x_min":0,"x_max":0,"o":"m 326 281 b 294 438 329 335 310 381 l 558 438 l 558 547 l 276 547 b 243 683 256 592 243 640 b 419 864 243 788 311 864 b 601 728 500 864 564 818 l 711 774 b 424 975 663 906 561 975 b 133 700 247 975 133 860 b 161 547 133 649 144 599 l 44 547 l 44 438 l 186 438 b 215 288 201 385 221 339 b 40 118 199 204 121 140 l 40 0 l 693 0 l 693 110 l 186 110 b 326 281 249 133 317 186 z "},"₸":{"ha":861,"x_min":0,"x_max":0,"o":"m 817 872 l 817 968 l 44 968 l 44 872 z m 490 0 l 490 647 l 817 647 l 817 744 l 44 744 l 44 647 l 372 647 l 372 0 z "},"¥":{"ha":971,"x_min":0,"x_max":0,"o":"m 564 0 l 564 150 l 857 150 l 857 247 l 564 247 l 564 367 l 857 367 l 857 465 l 629 465 l 963 968 l 782 968 l 485 494 l 186 968 l 7 968 l 340 465 l 114 465 l 114 367 l 408 367 l 408 247 l 114 247 l 114 150 l 408 150 l 408 0 z "},"+":{"ha":781,"x_min":0,"x_max":0,"o":"m 440 76 l 440 378 l 742 378 l 742 481 l 440 481 l 440 781 l 340 781 l 340 481 l 38 481 l 38 378 l 340 378 l 340 76 z "},"−":{"ha":685,"x_min":0,"x_max":0,"o":"m 603 381 l 603 482 l 82 482 l 82 381 z "},"×":{"ha":626,"x_min":0,"x_max":0,"o":"m 313 353 l 528 142 l 599 210 l 383 425 l 599 638 l 528 708 l 313 494 l 99 710 l 29 639 l 243 425 l 29 210 l 100 142 z "},"÷":{"ha":607,"x_min":0,"x_max":0,"o":"m 363 626 l 363 788 l 233 788 l 233 626 z m 564 381 l 564 482 l 32 482 l 32 381 z m 363 71 l 363 235 l 233 235 l 233 71 z "},"=":{"ha":706,"x_min":0,"x_max":0,"o":"m 628 553 l 628 653 l 78 653 l 78 553 z m 628 269 l 628 369 l 78 369 l 78 269 z "},"≠":{"ha":724,"x_min":0,"x_max":0,"o":"m 124 0 l 278 269 l 674 269 l 674 369 l 338 369 l 443 553 l 674 553 l 674 653 l 503 653 l 683 968 l 597 968 l 418 653 l 49 653 l 49 553 l 357 553 l 251 369 l 49 369 l 49 269 l 192 269 l 38 0 z "},">":{"ha":810,"x_min":0,"x_max":0,"o":"m 788 414 l 85 815 l 39 736 l 603 414 l 39 93 l 85 13 z "},"<":{"ha":810,"x_min":0,"x_max":0,"o":"m 771 93 l 208 414 l 771 736 l 726 815 l 22 414 l 726 13 z "},"≥":{"ha":829,"x_min":0,"x_max":0,"o":"m 806 540 l 101 942 l 56 863 l 619 540 l 56 219 l 101 139 z m 768 -93 l 768 0 l 40 0 l 40 -93 z "},"≤":{"ha":828,"x_min":0,"x_max":0,"o":"m 772 219 l 210 540 l 772 863 l 728 942 l 24 540 l 728 139 z m 789 -93 l 789 0 l 61 0 l 61 -93 z "},"±":{"ha":807,"x_min":0,"x_max":0,"o":"m 449 129 l 449 439 l 769 439 l 769 531 l 449 531 l 449 839 l 357 839 l 357 531 l 36 531 l 36 439 l 357 439 l 357 129 z m 765 -93 l 765 0 l 36 0 l 36 -93 z "},"≈":{"ha":696,"x_min":0,"x_max":0,"o":"m 468 485 b 642 714 572 485 642 579 l 550 714 b 468 568 550 629 517 568 b 224 733 374 568 381 733 b 53 521 121 733 53 650 l 146 521 b 224 651 146 600 174 651 b 468 485 325 651 315 485 z m 468 169 b 642 397 572 169 642 263 l 550 397 b 468 251 550 313 517 251 b 224 417 374 251 381 417 b 53 204 119 417 53 331 l 146 204 b 224 333 146 283 174 333 b 468 169 325 333 315 169 z "},"~":{"ha":700,"x_min":0,"x_max":0,"o":"m 471 244 b 644 472 576 244 644 338 l 553 472 b 471 326 553 388 519 326 b 226 493 376 326 383 493 b 56 279 124 493 56 407 l 149 279 b 226 410 149 358 176 410 b 471 244 328 410 318 244 z "},"¬":{"ha":761,"x_min":0,"x_max":0,"o":"m 674 199 l 674 546 l 43 546 l 43 439 l 558 439 l 558 199 z "},"^":{"ha":729,"x_min":0,"x_max":0,"o":"m 149 303 l 363 782 l 582 303 l 708 303 l 363 1011 l 21 303 z "},"∞":{"ha":1215,"x_min":0,"x_max":0,"o":"m 313 243 b 606 419 417 243 525 311 b 903 243 689 311 797 243 b 1168 501 1064 243 1168 354 b 903 760 1168 649 1064 760 b 606 585 796 760 689 692 b 313 760 525 692 417 760 b 47 501 151 760 47 650 b 313 243 47 354 151 243 z m 326 342 b 154 501 226 342 154 406 b 326 663 154 597 225 663 b 551 501 399 663 485 608 b 326 342 485 393 396 342 z m 886 342 b 660 501 810 342 725 403 b 886 663 725 600 811 663 b 1061 501 989 663 1061 597 b 886 342 1061 406 988 342 z "},"∫":{"ha":540,"x_min":0,"x_max":0,"o":"m 132 -294 b 283 -129 236 -294 283 -236 l 283 763 b 396 879 283 842 324 879 b 486 860 421 879 454 874 l 528 953 b 381 979 481 971 438 979 b 150 767 213 979 150 893 l 150 -97 b 85 -183 150 -156 128 -183 b 18 -172 67 -183 42 -179 l 17 -276 b 132 -294 51 -287 94 -294 z "},"Ω":{"ha":1053,"x_min":0,"x_max":0,"o":"m 443 0 l 443 122 b 196 517 297 182 196 311 b 526 875 196 731 325 875 b 858 513 726 875 858 733 b 610 124 858 299 751 168 l 610 0 l 1015 0 l 1015 108 l 750 108 l 774 124 b 978 526 899 190 978 338 b 528 990 978 796 792 990 b 75 531 264 990 75 796 b 281 124 75 349 151 203 l 303 108 l 36 108 l 36 0 z "},"∆":{"ha":835,"x_min":0,"x_max":0,"o":"m 815 0 l 432 968 l 403 968 l 19 0 z m 418 772 l 676 94 l 160 94 z "},"∏":{"ha":761,"x_min":0,"x_max":0,"o":"m 203 0 l 203 867 l 558 867 l 558 0 l 660 0 l 660 867 l 726 867 l 726 968 l 35 968 l 35 867 l 101 867 l 101 0 z "},"∑":{"ha":799,"x_min":0,"x_max":0,"o":"m 31 968 l 31 900 l 421 483 l 31 68 l 31 0 l 761 0 l 761 114 l 224 114 l 583 483 l 224 854 l 761 854 l 761 968 z "},"√":{"ha":776,"x_min":0,"x_max":0,"o":"m 758 968 l 649 968 l 318 140 l 199 479 l 21 479 l 21 378 l 125 378 l 311 -119 z "},"µ":{"ha":729,"x_min":0,"x_max":0,"o":"m 186 -233 l 186 71 b 346 -11 214 17 268 -11 b 539 103 433 -11 493 25 l 539 0 l 660 0 l 660 685 l 539 685 l 539 292 b 368 100 539 214 500 100 b 208 281 258 100 208 171 l 208 685 l 89 685 l 89 -233 z "},"∂":{"ha":786,"x_min":0,"x_max":0,"o":"m 338 -8 b 742 513 603 -8 742 225 b 408 978 742 814 621 978 b 117 792 274 978 164 913 l 207 764 b 406 889 243 856 326 889 b 628 613 536 889 611 796 b 638 513 635 581 638 547 b 411 694 613 603 539 694 b 33 303 203 694 33 536 b 338 -8 33 122 151 -8 z m 347 96 b 147 303 233 96 147 172 b 422 596 147 456 242 596 b 618 360 564 596 624 467 b 347 96 603 228 513 96 z "},"%":{"ha":953,"x_min":0,"x_max":0,"o":"m 236 539 b 421 758 343 539 421 635 b 232 979 421 885 342 979 b 46 758 115 979 46 875 b 236 539 46 643 115 539 z m 240 0 l 800 968 l 713 968 l 154 0 z m 236 622 b 129 758 163 622 129 688 b 232 897 129 833 163 897 b 339 758 300 897 339 835 b 236 622 339 679 296 622 z m 721 -11 b 907 207 829 -11 907 85 b 717 429 907 333 826 429 b 532 208 599 429 532 325 b 721 -11 532 93 601 -11 z m 721 71 b 614 208 649 71 614 136 b 717 346 614 281 649 346 b 825 207 786 346 825 283 b 721 71 825 128 782 71 z "},"‱":{"ha":1783,"x_min":0,"x_max":0,"o":"m 218 540 b 400 758 325 540 400 636 b 214 979 400 885 322 979 b 29 758 96 979 29 874 b 218 540 29 646 96 540 z m 222 0 l 778 968 l 696 968 l 140 0 z m 218 618 b 107 758 142 618 107 686 b 214 901 107 833 140 901 b 322 758 283 901 322 836 b 218 618 322 678 279 618 z m 704 -11 b 889 207 811 -11 889 83 b 700 428 889 333 810 428 b 517 208 582 428 517 322 b 704 -11 517 94 583 -11 z m 1138 -11 b 1321 207 1243 -11 1321 82 b 1133 428 1321 333 1242 428 b 950 208 1017 428 950 322 b 1138 -11 950 94 1017 -11 z m 1572 -11 b 1754 207 1678 -11 1754 83 b 1568 428 1754 333 1675 428 b 1383 208 1449 428 1383 322 b 1572 -11 1383 94 1450 -11 z m 704 67 b 594 208 631 67 594 135 b 700 350 594 282 628 350 b 811 207 771 350 811 285 b 704 67 811 125 767 67 z m 1138 67 b 1028 208 1064 67 1028 135 b 1133 350 1028 282 1063 350 b 1244 207 1204 350 1244 286 b 1138 67 1244 125 1200 67 z m 1572 67 b 1461 208 1496 67 1461 135 b 1568 350 1461 282 1494 350 b 1678 207 1638 350 1678 286 b 1572 67 1678 126 1633 67 z "},"‰":{"ha":1353,"x_min":0,"x_max":0,"o":"m 221 539 b 406 758 328 539 406 635 b 217 979 406 885 325 979 b 31 758 99 979 31 875 b 221 539 31 643 100 539 z m 224 0 l 783 968 l 697 968 l 138 0 z m 221 622 b 113 758 147 622 113 688 b 217 897 113 833 146 897 b 322 758 283 897 322 835 b 221 622 322 679 279 622 z m 704 -11 b 890 207 813 -11 890 85 b 700 429 890 333 810 429 b 515 208 583 429 515 325 b 704 -11 515 93 585 -11 z m 1139 -11 b 1325 207 1246 -11 1325 82 b 1135 429 1325 333 1246 429 b 950 208 1019 429 950 325 b 1139 -11 950 93 1019 -11 z m 704 71 b 597 208 632 71 597 136 b 700 346 597 281 632 346 b 808 207 769 346 808 283 b 704 71 808 128 765 71 z m 1139 71 b 1032 208 1068 71 1032 136 b 1135 346 1032 282 1067 346 b 1243 207 1203 346 1243 285 b 1139 71 1243 128 1200 71 z "},"→":{"ha":1458,"x_min":0,"x_max":0,"o":"m 1443 421 l 749 808 l 711 732 l 1192 465 l 0 465 l 0 375 l 1192 375 l 711 108 l 749 33 z "},"←":{"ha":1458,"x_min":0,"x_max":0,"o":"m 747 108 l 267 375 l 1458 375 l 1458 465 l 267 465 l 747 732 l 710 808 l 15 421 l 710 33 z "},"◊":{"ha":725,"x_min":0,"x_max":0,"o":"m 446 0 l 704 483 l 446 968 l 279 968 l 21 483 l 279 0 z m 139 483 l 353 903 l 372 903 l 585 483 l 372 65 l 353 65 z "},"":{"ha":1161,"x_min":0,"x_max":0,"o":"m 579 -14 b 1104 511 869 -14 1104 222 b 579 1036 1104 800 869 1036 b 54 511 289 1036 54 800 b 579 -14 54 222 289 -14 z m 579 36 b 104 511 318 36 104 250 b 579 986 104 772 317 986 b 1054 511 842 986 1054 772 b 579 36 1054 251 842 36 z m 279 301 b 304 326 293 301 304 313 l 304 694 b 279 719 304 708 293 719 b 254 694 267 719 254 708 l 254 326 b 279 301 254 313 267 301 z m 579 301 b 604 326 593 301 604 313 l 604 694 b 579 719 604 708 593 719 b 554 694 565 719 554 708 l 554 326 b 579 301 554 313 565 301 z m 882 301 b 904 325 894 301 904 315 b 897 342 904 332 901 338 l 714 511 l 897 679 b 904 696 903 685 904 690 b 881 719 904 713 889 719 b 861 710 875 719 867 715 l 663 528 b 656 511 658 524 656 517 b 663 494 656 504 658 499 l 864 308 b 882 301 867 306 876 301 z m 479 486 b 504 511 493 486 504 497 b 479 536 504 524 493 536 l 379 536 b 354 511 367 536 354 525 b 379 486 354 497 365 486 z "},"@":{"ha":1344,"x_min":0,"x_max":0,"o":"m 667 -242 b 879 -204 744 -242 811 -229 l 846 -114 b 663 -151 788 -140 732 -151 b 150 351 388 -151 150 24 b 682 890 150 664 364 890 b 1199 386 994 890 1199 679 b 983 64 1199 207 1132 64 b 889 204 903 64 881 122 b 983 686 899 310 938 485 l 903 688 l 867 560 b 704 722 865 671 796 722 b 360 294 479 722 360 482 b 585 33 360 144 436 33 b 832 217 704 33 785 110 b 821 143 828 197 824 172 b 963 -25 810 36 867 -25 b 1293 394 1185 -25 1293 167 b 681 983 1293 721 1051 983 b 56 351 310 983 56 717 b 667 -242 56 -29 333 -242 z m 596 131 b 451 307 504 131 451 196 b 693 625 451 453 540 625 b 831 451 782 625 831 561 b 596 131 831 306 744 131 z "},"&":{"ha":900,"x_min":0,"x_max":0,"o":"m 724 183 b 838 485 775 261 814 361 l 731 501 b 651 267 714 408 688 329 l 451 494 b 656 751 558 557 656 628 b 414 978 656 883 546 978 b 156 751 279 978 156 890 b 281 518 156 651 242 560 b 46 226 161 453 46 375 b 353 -14 46 72 175 -14 b 651 97 471 -14 571 22 l 775 -47 l 860 29 z m 269 753 b 411 882 269 829 328 882 b 544 754 488 882 544 829 b 375 568 544 671 468 619 b 269 753 340 606 269 685 z m 360 83 b 172 232 236 83 172 144 b 354 440 172 326 256 385 l 583 175 b 360 83 524 115 449 83 z "},"¶":{"ha":717,"x_min":0,"x_max":0,"o":"m 406 -168 l 406 968 l 338 968 b 26 697 176 968 26 868 b 338 426 26 526 176 426 l 338 -168 z m 628 -168 l 628 968 l 557 968 l 557 -168 z "},"§":{"ha":722,"x_min":0,"x_max":0,"o":"m 356 -279 b 640 -24 513 -279 640 -181 b 617 82 640 19 631 54 b 693 272 665 129 693 197 b 415 557 693 449 546 507 b 207 731 307 597 207 635 b 364 868 207 811 274 868 b 546 756 440 868 506 829 l 650 819 b 368 979 589 926 492 979 b 83 725 213 979 83 883 b 107 621 83 683 92 650 b 29 429 58 571 29 508 b 306 146 29 253 181 193 b 515 -29 410 106 515 69 b 358 -168 515 -110 449 -168 b 176 -53 281 -168 218 -129 l 74 -118 b 356 -279 136 -229 239 -279 z m 533 164 b 372 246 485 206 425 225 b 154 440 264 289 154 329 b 189 538 154 475 167 513 b 351 456 239 497 297 476 b 569 261 464 411 569 371 b 533 164 569 226 557 192 z "},"©":{"ha":1125,"x_min":0,"x_max":0,"o":"m 564 -15 b 1071 483 843 -15 1071 193 b 564 983 1071 775 843 983 b 54 483 282 983 54 775 b 564 -15 54 193 282 -15 z m 564 61 b 131 483 324 61 131 236 b 564 907 131 732 324 907 b 996 483 801 907 996 731 b 564 61 996 238 801 61 z m 578 174 b 818 343 692 174 781 236 l 729 375 b 578 264 706 308 649 264 b 403 482 458 264 403 368 b 576 704 403 594 457 704 b 732 592 650 704 706 658 l 825 625 b 576 794 779 736 690 794 b 301 482 392 794 301 640 b 578 174 301 317 399 174 z "},"®":{"ha":1125,"x_min":0,"x_max":0,"o":"m 564 983 b 54 483 274 983 54 767 b 564 -15 54 200 274 -15 b 1071 483 851 -15 1071 200 b 564 983 1071 767 851 983 z m 564 61 b 131 483 317 61 131 243 b 564 907 131 725 317 907 b 996 483 810 907 996 724 b 564 61 996 244 808 61 z m 775 610 b 575 779 775 714 697 779 l 400 779 l 400 189 l 481 189 l 481 449 l 578 449 l 728 189 l 819 189 l 658 457 b 775 610 731 479 775 536 z m 579 706 b 693 610 651 706 693 671 b 579 514 693 549 651 514 l 481 514 l 481 706 z "},"™":{"ha":829,"x_min":0,"x_max":0,"o":"m 207 600 l 207 910 l 311 910 l 311 968 l 38 968 l 38 910 l 143 910 l 143 600 z m 442 600 l 442 904 l 547 625 l 588 625 l 690 900 l 690 600 l 753 600 l 753 968 l 654 968 l 568 715 l 481 968 l 379 968 l 379 600 z "},"°":{"ha":494,"x_min":0,"x_max":0,"o":"m 246 583 b 446 782 356 583 446 672 b 246 979 446 890 356 979 b 49 782 139 979 49 890 b 246 583 49 672 139 583 z m 246 665 b 131 782 183 665 131 717 b 246 897 131 846 182 897 b 363 782 311 897 363 846 b 246 665 363 717 311 665 z "},"|":{"ha":269,"x_min":0,"x_max":0,"o":"m 179 -353 l 179 1036 l 90 1036 l 90 -353 z "},"¦":{"ha":279,"x_min":0,"x_max":0,"o":"m 189 458 l 189 1036 l 90 1036 l 90 458 z m 189 -353 l 189 215 l 90 215 l 90 -353 z "},"†":{"ha":479,"x_min":0,"x_max":0,"o":"m 293 -140 l 293 586 l 458 586 l 458 696 l 293 696 l 293 968 l 183 968 l 183 696 l 21 696 l 21 586 l 183 586 l 183 -140 z "},"‡":{"ha":504,"x_min":0,"x_max":0,"o":"m 307 -140 l 307 131 l 471 131 l 471 240 l 307 240 l 307 586 l 471 586 l 471 696 l 307 696 l 307 968 l 197 968 l 197 696 l 35 696 l 35 586 l 197 586 l 197 240 l 35 240 l 35 131 l 197 131 l 197 -140 z "},"˶":{"ha":644,"x_min":0,"x_max":0,"o":"m 128 467 l 325 685 l 186 685 l 31 467 z m 421 467 l 617 685 l 476 685 l 324 467 z "},"˵":{"ha":644,"x_min":0,"x_max":0,"o":"m 322 467 l 168 685 l 29 685 l 225 467 z m 614 467 l 460 685 l 321 685 l 518 467 z "},"̈":{"ha":0,"x_min":0,"x_max":0,"o":"m -364 807 l -364 968 l -504 968 l -504 807 z m -97 807 l -97 968 l -237 968 l -237 807 z "},"̇":{"ha":0,"x_min":0,"x_max":0,"o":"m -96 807 l -96 968 l -267 968 l -267 807 z "},"̀":{"ha":0,"x_min":0,"x_max":0,"o":"m -97 772 l -242 968 l -374 968 l -192 772 z "},"́":{"ha":0,"x_min":0,"x_max":0,"o":"m -290 772 l -96 968 l -231 968 l -382 772 z "},"̋":{"ha":0,"x_min":0,"x_max":0,"o":"m -537 750 l -365 968 l -478 968 l -629 750 z m -289 750 l -97 968 l -229 968 l -381 750 z "},"̂":{"ha":0,"x_min":0,"x_max":0,"o":"m -419 758 l -307 878 l -196 758 l -96 758 l -307 986 l -518 758 z "},"̌":{"ha":0,"x_min":0,"x_max":0,"o":"m -97 968 l -196 968 l -308 853 l -418 968 l -518 968 l -308 749 z "},"̆":{"ha":0,"x_min":0,"x_max":0,"o":"m -328 769 b -96 968 -175 769 -96 835 l -199 968 b -328 843 -199 876 -250 843 b -457 968 -404 843 -457 876 l -558 968 b -328 769 -558 840 -486 769 z "},"̊":{"ha":0,"x_min":0,"x_max":0,"o":"m -240 742 b -97 886 -161 742 -97 806 b -240 1031 -97 967 -164 1031 b -385 886 -321 1031 -385 965 b -240 742 -385 808 -322 742 z m -240 811 b -315 888 -283 811 -315 843 b -240 961 -315 929 -286 961 b -165 888 -196 961 -165 931 b -240 811 -165 844 -197 811 z "},"̃":{"ha":0,"x_min":0,"x_max":0,"o":"m -229 785 b -96 968 -149 785 -96 851 l -174 968 b -228 863 -174 901 -197 863 b -410 972 -293 863 -308 972 b -546 800 -493 972 -546 907 l -472 800 b -415 894 -472 858 -451 894 b -229 785 -350 894 -340 785 z "},"̄":{"ha":0,"x_min":0,"x_max":0,"o":"m -97 814 l -97 888 l -475 888 l -475 814 z "},"̉":{"ha":0,"x_min":0,"x_max":0,"o":"m -272 722 b -97 856 -199 736 -97 750 b -311 997 -97 947 -186 997 l -332 997 l -332 918 l -311 918 b -187 847 -246 918 -187 904 b -287 776 -187 789 -240 785 z "},"̏":{"ha":0,"x_min":0,"x_max":0,"o":"m -346 750 l -497 968 l -629 968 l -437 750 z m -97 750 l -247 968 l -361 968 l -190 750 z "},"̒":{"ha":0,"x_min":0,"x_max":0,"o":"m -208 768 l -96 978 l -172 978 l -337 768 z "},"̛":{"ha":0,"x_min":0,"x_max":0,"o":"m -299 688 b -97 907 -156 688 -97 779 l -97 968 l -185 968 l -185 914 b -299 771 -185 819 -215 771 z "},"̣":{"ha":0,"x_min":0,"x_max":0,"o":"m -97 -256 l -97 -94 l -261 -94 l -261 -256 z "},"̦":{"ha":0,"x_min":0,"x_max":0,"o":"m -262 -310 l -96 -75 l -228 -75 l -337 -310 z "},"̧":{"ha":0,"x_min":0,"x_max":0,"o":"m -249 -357 b -97 -210 -156 -357 -97 -296 b -158 -106 -97 -162 -118 -128 b -246 -81 -182 -93 -211 -85 l -190 0 l -267 0 l -344 -132 b -233 -143 -304 -132 -267 -133 b -171 -215 -197 -154 -171 -175 b -246 -283 -171 -260 -200 -283 b -325 -240 -278 -283 -307 -265 l -367 -300 b -249 -357 -333 -339 -285 -357 z "},"̨":{"ha":0,"x_min":0,"x_max":0,"o":"m -235 -301 b -96 -231 -172 -301 -129 -271 l -160 -185 b -237 -224 -181 -208 -207 -224 b -297 -164 -269 -224 -297 -207 b -154 0 -297 -90 -208 -28 l -253 3 b -372 -176 -306 -29 -372 -90 b -235 -301 -372 -253 -312 -301 z "},"̵":{"ha":0,"x_min":0,"x_max":0,"o":"m -96 361 l -96 446 l -549 446 l -549 361 z "},"̶":{"ha":0,"x_min":0,"x_max":0,"o":"m -97 353 l -97 428 l -1094 428 l -1094 353 z "},"̷":{"ha":0,"x_min":0,"x_max":0,"o":"m -97 586 l -97 713 l -425 453 l -425 324 z "},"̸":{"ha":0,"x_min":0,"x_max":0,"o":"m -599 0 l -97 814 l -161 814 l -661 0 z "},"¨":{"ha":600,"x_min":0,"x_max":0,"o":"m 236 807 l 236 968 l 96 968 l 96 807 z m 503 807 l 503 968 l 363 968 l 363 807 z "},"˙":{"ha":363,"x_min":0,"x_max":0,"o":"m 267 807 l 267 968 l 96 968 l 96 807 z "},"`":{"ha":469,"x_min":0,"x_max":0,"o":"m 372 772 l 228 968 l 96 968 l 278 772 z "},"´":{"ha":478,"x_min":0,"x_max":0,"o":"m 188 772 l 382 968 l 247 968 l 96 772 z "},"˝":{"ha":725,"x_min":0,"x_max":0,"o":"m 188 750 l 360 968 l 247 968 l 96 750 z m 436 750 l 628 968 l 496 968 l 344 750 z "},"ˆ":{"ha":614,"x_min":0,"x_max":0,"o":"m 194 758 l 307 878 l 418 758 l 518 758 l 307 986 l 96 758 z "},"ˇ":{"ha":614,"x_min":0,"x_max":0,"o":"m 517 968 l 418 968 l 306 853 l 196 968 l 96 968 l 306 749 z "},"˘":{"ha":654,"x_min":0,"x_max":0,"o":"m 326 769 b 558 968 479 769 558 835 l 456 968 b 326 843 456 876 404 843 b 197 968 250 843 197 876 l 96 968 b 326 769 96 840 168 769 z "},"˚":{"ha":481,"x_min":0,"x_max":0,"o":"m 240 742 b 383 886 319 742 383 806 b 240 1031 383 967 317 1031 b 96 886 160 1031 96 965 b 240 742 96 808 158 742 z m 240 811 b 165 888 197 811 165 843 b 240 961 165 929 194 961 b 315 888 285 961 315 931 b 240 811 315 844 283 811 z "},"˜":{"ha":642,"x_min":0,"x_max":0,"o":"m 413 785 b 546 968 493 785 546 851 l 468 968 b 414 863 468 901 444 863 b 232 972 349 863 333 972 b 96 800 149 972 96 907 l 169 800 b 226 894 169 858 190 894 b 413 785 292 894 301 785 z "},"¯":{"ha":571,"x_min":0,"x_max":0,"o":"m 474 814 l 474 888 l 96 888 l 96 814 z "},"¸":{"ha":463,"x_min":0,"x_max":0,"o":"m 214 -357 b 365 -210 307 -357 365 -296 b 304 -106 365 -162 344 -128 b 217 -81 281 -93 251 -85 l 272 0 l 196 0 l 118 -132 b 229 -143 158 -132 196 -133 b 292 -215 265 -154 292 -175 b 217 -283 292 -260 263 -283 b 138 -240 185 -283 156 -265 l 96 -300 b 214 -357 129 -339 178 -357 z "},"˛":{"ha":468,"x_min":0,"x_max":0,"o":"m 233 -301 b 372 -231 296 -301 339 -271 l 308 -185 b 231 -224 288 -208 261 -224 b 171 -164 199 -224 171 -207 b 314 0 171 -90 260 -28 l 215 3 b 96 -176 163 -29 96 -90 b 233 -301 96 -253 156 -301 z "},"΄":{"ha":394,"x_min":0,"x_max":0,"o":"m 188 772 l 297 968 l 179 968 l 96 772 z "},"΅":{"ha":646,"x_min":0,"x_max":0,"o":"m 438 1104 l 340 1125 l 275 840 l 339 825 z m 190 807 l 190 968 l 96 968 l 96 807 z m 549 807 l 549 968 l 453 968 l 453 807 z "}}}
